Perun-Thin.ufo
<glyph name="quotedbl" format="2">
  <advance width="407"/>
  <unicode hex="0022"/>
  <outline>
    <contour>
      <point x="95" y="434" type="line"/>
      <point x="105" y="434" type="line"/>
      <point x="120" y="722" type="line"/>
      <point x="80" y="722" type="line"/>
    </contour>
    <contour>
      <point x="302" y="434" type="line"/>
      <point x="312" y="434" type="line"/>
      <point x="327" y="722" type="line"/>
      <point x="287" y="722" type="line"/>
    </contour>
  </outline>
</glyph>
<glyph name="percent" format="2">
  <advance width="938"/>
  <unicode hex="0025"/>
  <outline>
    <contour>
      <point x="222" y="-14" type="line"/>
      <point x="648" y="736" type="line"/>
      <point x="672" y="736" type="line"/>
      <point x="245" y="-14" type="line"/>
    </contour>
    <contour>
      <point x="532" y="188.984" type="curve" smooth="yes"/>
      <point x="532" y="305.323"/>
      <point x="601.979" y="380"/>
      <point x="711" y="380" type="curve" smooth="yes"/>
      <point x="820.639" y="380"/>
      <point x="890" y="305.983"/>
      <point x="890" y="188.984" type="curve" smooth="yes"/>
      <point x="890" y="71.9136"/>
      <point x="819.587" y="-4"/>
      <point x="711" y="-4" type="curve" smooth="yes"/>
      <point x="602.52" y="-4"/>
      <point x="532" y="72.0291"/>
    </contour>
    <contour>
      <point x="551.253" y="189.3" type="curve" smooth="yes"/>
      <point x="551.253" y="84.5149"/>
      <point x="614.228" y="16"/>
      <point x="712.757" y="16" type="curve" smooth="yes"/>
      <point x="809.161" y="16"/>
      <point x="870.029" y="81.591"/>
      <point x="870.029" y="188" type="curve" smooth="yes"/>
      <point x="870.029" y="294.734"/>
      <point x="809.604" y="360"/>
      <point x="711" y="360" type="curve" smooth="yes"/>
      <point x="612.886" y="360"/>
      <point x="551.253" y="292.962"/>
    </contour>
    <contour>
      <point x="51" y="534.984" type="curve" smooth="yes"/>
      <point x="51" y="651.323"/>
      <point x="120.979" y="726"/>
      <point x="230" y="726" type="curve" smooth="yes"/>
      <point x="339.639" y="726"/>
      <point x="409" y="651.983"/>
      <point x="409" y="534.984" type="curve" smooth="yes"/>
      <point x="409" y="417.914"/>
      <point x="338.587" y="342"/>
      <point x="230" y="342" type="curve" smooth="yes"/>
      <point x="121.52" y="342"/>
      <point x="51" y="418.029"/>
    </contour>
    <contour>
      <point x="70.2532" y="535.3" type="curve" smooth="yes"/>
      <point x="70.2532" y="430.515"/>
      <point x="133.228" y="362"/>
      <point x="231.757" y="362" type="curve" smooth="yes"/>
      <point x="328.161" y="362"/>
      <point x="389.029" y="427.591"/>
      <point x="389.029" y="534" type="curve" smooth="yes"/>
      <point x="389.029" y="640.734"/>
      <point x="328.604" y="706"/>
      <point x="230" y="706" type="curve" smooth="yes"/>
      <point x="131.886" y="706"/>
      <point x="70.2532" y="638.962"/>
    </contour>
  </outline>
</glyph>
<glyph name="ampersand" format="2">
  <advance width="765"/>
  <unicode hex="0026"/>
  <outline>
    <contour>
      <point x="617.251" y="0" type="line"/>
      <point x="645.064" y="0" type="line"/>
      <point x="216.276" y="463.378" type="line" smooth="yes"/>
      <point x="169.206" y="514.244"/>
      <point x="162.012" y="551.705"/>
      <point x="162.133" y="584.214" type="curve" smooth="yes"/>
      <point x="162.44" y="666.245"/>
      <point x="217.29" y="716"/>
      <point x="317.303" y="716" type="curve" smooth="yes"/>
      <point x="410.494" y="716"/>
      <point x="457.355" y="672.801"/>
      <point x="457.355" y="590.679" type="curve" smooth="yes"/>
      <point x="457.355" y="557.853"/>
      <point x="439.103" y="517.934"/>
      <point x="400.825" y="494.137" type="curve" smooth="yes"/>
      <point x="259.69" y="406.397" type="line"/>
      <point x="270.668" y="390.97" type="line"/>
      <point x="413.085" y="484.056" type="line" smooth="yes"/>
      <point x="454.147" y="510.895"/>
      <point x="477.355" y="550.045"/>
      <point x="477.355" y="602.266" type="curve" smooth="yes"/>
      <point x="477.355" y="684.407"/>
      <point x="419.935" y="736"/>
      <point x="315.676" y="736" type="curve" smooth="yes"/>
      <point x="210.205" y="736"/>
      <point x="142.133" y="683.201"/>
      <point x="142.133" y="589.21" type="curve" smooth="yes"/>
      <point x="142.133" y="537.741"/>
      <point x="156.097" y="503.896"/>
      <point x="198.461" y="457.605" type="curve" smooth="yes"/>
    </contour>
    <contour>
      <point x="519.067" y="115.979" type="line"/>
      <point x="457.374" y="52.0202"/>
      <point x="361.428" y="10"/>
      <point x="294.635" y="10" type="curve" smooth="yes"/>
      <point x="156.771" y="10"/>
      <point x="90" y="62.5412"/>
      <point x="90" y="170.879" type="curve" smooth="yes"/>
      <point x="90" y="216.857"/>
      <point x="116.806" y="283.821"/>
      <point x="204.505" y="344.928" type="curve" smooth="yes"/>
      <point x="267.968" y="389.149" type="line"/>
      <point x="255.928" y="404.114" type="line"/>
      <point x="187.627" y="355.595" type="line" smooth="yes"/>
      <point x="110.892" y="301.085"/>
      <point x="70" y="233.938"/>
      <point x="70" y="173.3" type="curve" smooth="yes"/>
      <point x="70" y="54.5442"/>
      <point x="146.57" y="-9.85756"/>
      <point x="286.186" y="-9.85756" type="curve" smooth="yes"/>
      <point x="364.704" y="-9.85756"/>
      <point x="441.627" y="17.9819"/>
      <point x="532.13" y="103.306" type="curve"/>
    </contour>
    <contour>
      <point x="534.843" y="106.584" type="line"/>
      <point x="609.325" y="189.312"/>
      <point x="651" y="310.164"/>
      <point x="651" y="422" type="curve"/>
      <point x="630.14" y="421.754" type="line"/>
      <point x="628.836" y="420.246" type="line"/>
      <point x="630.117" y="413.91"/>
      <point x="631" y="399.623"/>
      <point x="631" y="387.714" type="curve" smooth="yes"/>
      <point x="631" y="310.736"/>
      <point x="601.737" y="218.02"/>
      <point x="522.794" y="119.636" type="curve"/>
    </contour>
  </outline>
  <guideline angle="211.264" x="240" y="387.393"/>
  <guideline angle="133.02" x="643.942" y="0"/>
  <guideline angle="211.264" x="240" y="429"/>
  <guideline angle="33.9965" x="234" y="370.977"/>
</glyph>
<glyph name="parenleft" format="2">
  <advance width="253"/>
  <unicode hex="0028"/>
  <outline>
    <contour>
      <point x="193" y="-133" type="curve"/>
      <point x="203" y="-133" type="line"/>
      <point x="135.586" y="4.9404"/>
      <point x="100" y="180.995"/>
      <point x="100" y="304" type="curve" smooth="yes"/>
      <point x="100" y="444.855"/>
      <point x="135.752" y="596.331"/>
      <point x="203" y="736" type="curve"/>
      <point x="193" y="736" type="line"/>
      <point x="118" y="599"/>
      <point x="80" y="454"/>
      <point x="80" y="301" type="curve" smooth="yes"/>
      <point x="80" y="148"/>
      <point x="118" y="4"/>
    </contour>
  </outline>
</glyph>
<glyph name="parenright" format="2">
  <advance width="359"/>
  <unicode hex="0029"/>
  <outline>
    <contour>
      <point x="146" y="-130" type="curve"/>
      <point x="156" y="-130" type="line"/>
      <point x="231" y="7"/>
      <point x="269" y="151"/>
      <point x="269" y="303" type="curve" smooth="yes"/>
      <point x="269" y="456"/>
      <point x="231" y="601"/>
      <point x="156" y="738" type="curve"/>
      <point x="146" y="738" type="line"/>
      <point x="213.668" y="608.91"/>
      <point x="249" y="461.074"/>
      <point x="249" y="306" type="curve" smooth="yes"/>
      <point x="249" y="145.913"/>
      <point x="214.902" y="1.44305"/>
    </contour>
  </outline>
</glyph>
<glyph name="plus" format="2">
  <advance width="740"/>
  <unicode hex="002B"/>
  <outline>
    <contour>
      <point x="70" y="290" type="line"/>
      <point x="360.053" y="290" type="line"/>
      <point x="360.053" y="0" type="line"/>
      <point x="380" y="0" type="line"/>
      <point x="380" y="290" type="line"/>
      <point x="670" y="290" type="line"/>
      <point x="670" y="310" type="line"/>
      <point x="380" y="310" type="line"/>
      <point x="380" y="600" type="line"/>
      <point x="360.053" y="600" type="line"/>
      <point x="360.053" y="310" type="line"/>
      <point x="70" y="310" type="line"/>
    </contour>
  </outline>
  <guideline angle="0" x="0" y="300"/>
  <guideline angle="90" x="370" y="0"/>
</glyph>
<glyph name="period" format="2">
  <advance width="182"/>
  <unicode hex="002E"/>
  <outline>
    <contour>
      <point x="80" y="0" type="line"/>
      <point x="80" y="123" type="line"/>
      <point x="102" y="123" type="line"/>
      <point x="102" y="0" type="line"/>
    </contour>
  </outline>
</glyph>
<glyph name="zero" format="2">
  <advance width="558"/>
  <unicode hex="0030"/>
  <outline>
    <contour>
      <point x="490.028" y="373" type="curve" smooth="yes"/>
      <point x="490.028" y="124.654"/>
      <point x="419.825" y="0.0250854"/>
      <point x="279" y="0.0250854" type="curve" smooth="yes"/>
      <point x="150.407" y="0.0250854"/>
      <point x="70.9176" y="144.795"/>
      <point x="70.9176" y="381" type="curve" smooth="yes"/>
      <point x="70.9176" y="616.541"/>
      <point x="137.109" y="722.371"/>
      <point x="285" y="722.371" type="curve" smooth="yes"/>
      <point x="414.697" y="722.371"/>
      <point x="490.028" y="593.387"/>
    </contour>
    <contour>
      <point x="510" y="374" type="curve" smooth="yes"/>
      <point x="510" y="550"/>
      <point x="465" y="732"/>
      <point x="277" y="732" type="curve" smooth="yes"/>
      <point x="100" y="732"/>
      <point x="51" y="568"/>
      <point x="51" y="377" type="curve" smooth="yes"/>
      <point x="51" y="200"/>
      <point x="93" y="-10"/>
      <point x="285" y="-10" type="curve" smooth="yes"/>
      <point x="465" y="-10"/>
      <point x="510" y="177"/>
    </contour>
  </outline>
</glyph>
<glyph name="two" format="2">
  <advance width="558"/>
  <unicode hex="0032"/>
  <outline>
    <contour>
      <point x="60" y="0" type="line"/>
      <point x="495" y="0" type="line"/>
      <point x="495" y="20" type="line"/>
      <point x="70.8095" y="20" type="line"/>
      <point x="77.3982" y="13.7163" type="line"/>
      <point x="214.978" y="114.483"/>
      <point x="495" y="356.431"/>
      <point x="495" y="531" type="curve" smooth="yes"/>
      <point x="495" y="650"/>
      <point x="405" y="732"/>
      <point x="284" y="732" type="curve" smooth="yes"/>
      <point x="151" y="732"/>
      <point x="79" y="666"/>
      <point x="68" y="526" type="curve"/>
      <point x="88" y="526" type="line"/>
      <point x="102.757" y="653.893"/>
      <point x="164.965" y="712.054"/>
      <point x="287" y="712.054" type="curve" smooth="yes"/>
      <point x="395.428" y="712.054"/>
      <point x="475.127" y="633.174"/>
      <point x="475.127" y="526" type="curve" smooth="yes"/>
      <point x="475.127" y="416.848"/>
      <point x="262.914" y="158.785"/>
      <point x="60" y="20" type="curve"/>
    </contour>
  </outline>
</glyph>
<glyph name="three" format="2">
  <advance width="558"/>
  <unicode hex="0033"/>
  <outline>
    <contour>
      <point x="46" y="190" type="curve"/>
      <point x="66" y="190" type="line"/>
      <point x="66" y="77.9217"/>
      <point x="152.971" y="9.69203"/>
      <point x="277.803" y="9.69203" type="curve" smooth="yes"/>
      <point x="409.067" y="9.69203"/>
      <point x="492.684" y="83.2883"/>
      <point x="492.684" y="208.157" type="curve" smooth="yes"/>
      <point x="492.684" y="289.164"/>
      <point x="416.208" y="366"/>
      <point x="334.378" y="366" type="curve" smooth="yes"/>
      <point x="210.205" y="366" type="line"/>
      <point x="210.205" y="386" type="line"/>
      <point x="322.595" y="386" type="line" smooth="yes"/>
      <point x="408.791" y="386"/>
      <point x="482.413" y="457.405"/>
      <point x="482.413" y="540.014" type="curve" smooth="yes"/>
      <point x="482.413" y="649.751"/>
      <point x="411.971" y="712.274"/>
      <point x="294.707" y="712.274" type="curve" smooth="yes"/>
      <point x="166.486" y="712.274"/>
      <point x="81" y="637.523"/>
      <point x="81" y="532" type="curve"/>
      <point x="61" y="532" type="line"/>
      <point x="61" y="649.329"/>
      <point x="157.115" y="732"/>
      <point x="293.66" y="732" type="curve" smooth="yes"/>
      <point x="418.946" y="732"/>
      <point x="501" y="663.194"/>
      <point x="501" y="550.058" type="curve" smooth="yes"/>
      <point x="501" y="463.696"/>
      <point x="453.186" y="400.829"/>
      <point x="373" y="377.117" type="curve"/>
      <point x="373.475" y="380.924" type="line"/>
      <point x="453.79" y="356.415"/>
      <point x="513" y="283.425"/>
      <point x="513" y="205.87" type="curve" smooth="yes"/>
      <point x="513" y="69.5019"/>
      <point x="417.807" y="-10"/>
      <point x="276.587" y="-10" type="curve" smooth="yes"/>
      <point x="138.498" y="-10"/>
      <point x="46" y="66.0163"/>
    </contour>
  </outline>
</glyph>
<glyph name="five" format="2">
  <advance width="558"/>
  <unicode hex="0035"/>
  <outline>
    <contour>
      <point x="72.9661" y="176" type="line"/>
      <point x="73.0183" y="75.9434"/>
      <point x="155.163" y="9.82133"/>
      <point x="279.452" y="9.82133" type="curve" smooth="yes"/>
      <point x="409.277" y="9.82133"/>
      <point x="486.146" y="97.1861"/>
      <point x="486.146" y="246.135" type="curve" smooth="yes"/>
      <point x="486.146" y="382.114"/>
      <point x="422.41" y="460"/>
      <point x="310.302" y="460" type="curve" smooth="yes"/>
      <point x="200.036" y="460"/>
      <point x="139.271" y="416.996"/>
      <point x="87" y="302" type="curve"/>
      <point x="77" y="302" type="line"/>
      <point x="77" y="722" type="line"/>
      <point x="460.455" y="722" type="line"/>
      <point x="460.455" y="702" type="line"/>
      <point x="85" y="702" type="line"/>
      <point x="97" y="714" type="line"/>
      <point x="97" y="336.261" type="line"/>
      <point x="90.5395" y="340.768" type="line"/>
      <point x="129.553" y="432.941"/>
      <point x="205.123" y="480"/>
      <point x="314.127" y="480" type="curve" smooth="yes"/>
      <point x="427.176" y="480"/>
      <point x="506" y="395.909"/>
      <point x="506" y="250" type="curve" smooth="yes"/>
      <point x="506" y="80.6025"/>
      <point x="417.541" y="-10"/>
      <point x="282.643" y="-10" type="curve" smooth="yes"/>
      <point x="143.68" y="-10"/>
      <point x="53" y="64.092"/>
      <point x="53" y="176" type="curve"/>
    </contour>
  </outline>
</glyph>
<glyph name="six" format="2">
  <advance width="558"/>
  <unicode hex="0036"/>
  <outline>
    <contour>
      <point x="77.9543" y="214.133" type="curve" smooth="yes"/>
      <point x="77.9543" y="90.1786"/>
      <point x="149.954" y="9.6693"/>
      <point x="280.262" y="9.6693" type="curve" smooth="yes"/>
      <point x="411.492" y="9.6693"/>
      <point x="492.02" y="91.3222"/>
      <point x="492.02" y="224.716" type="curve" smooth="yes"/>
      <point x="492.02" y="352.324"/>
      <point x="418.327" y="426.159"/>
      <point x="291.413" y="426.159" type="curve" smooth="yes"/>
      <point x="158.644" y="426.159"/>
      <point x="77.9544" y="345.355"/>
    </contour>
    <contour>
      <point x="47" y="310.686" type="curve" smooth="yes"/>
      <point x="47" y="597.945"/>
      <point x="127.836" y="732"/>
      <point x="292.807" y="732" type="curve" smooth="yes"/>
      <point x="412.421" y="732"/>
      <point x="492" y="661.526"/>
      <point x="492" y="550" type="curve"/>
      <point x="472" y="550" type="line"/>
      <point x="472" y="650.824"/>
      <point x="405.729" y="712.169"/>
      <point x="295.785" y="712.169" type="curve" smooth="yes"/>
      <point x="119.249" y="712.169"/>
      <point x="62.4264" y="555.169"/>
      <point x="62.3745" y="269.369" type="curve"/>
      <point x="89.1999" y="386.228"/>
      <point x="165.525" y="446"/>
      <point x="285.864" y="446" type="curve" smooth="yes"/>
      <point x="429.732" y="446"/>
      <point x="512" y="360.568"/>
      <point x="512" y="221.512" type="curve" smooth="yes"/>
      <point x="512" y="74"/>
      <point x="419.423" y="-10"/>
      <point x="275.062" y="-10" type="curve" smooth="yes"/>
      <point x="118.369" y="-10"/>
      <point x="47" y="88.9653"/>
    </contour>
  </outline>
</glyph>
<glyph name="seven" format="2">
  <advance width="558"/>
  <unicode hex="0037"/>
  <outline>
    <contour>
      <point x="155" y="0" type="line"/>
      <point x="177.062" y="0" type="line"/>
      <point x="502" y="700.179" type="line"/>
      <point x="502" y="722" type="line"/>
      <point x="57" y="722" type="line"/>
      <point x="57" y="702" type="line"/>
      <point x="492.605" y="702" type="line"/>
      <point x="485.742" y="713.152" type="line"/>
    </contour>
  </outline>
</glyph>
<glyph name="eight" format="2">
  <advance width="558"/>
  <unicode hex="0038"/>
  <outline>
    <contour>
      <point x="59.919" y="189.821" type="curve" smooth="yes"/>
      <point x="59.919" y="307.156"/>
      <point x="142.07" y="373.005"/>
      <point x="270.742" y="373.005" type="curve" smooth="yes"/>
      <point x="404.627" y="373.005"/>
      <point x="494.253" y="301.712"/>
      <point x="494.253" y="200" type="curve" smooth="yes"/>
      <point x="494.253" y="76.2566"/>
      <point x="417.989" y="10.4648"/>
      <point x="277.327" y="10.4648" type="curve" smooth="yes"/>
      <point x="135.872" y="10.4648"/>
      <point x="59.919" y="77"/>
    </contour>
    <contour>
      <point x="270.398" y="392.991" type="curve" smooth="yes"/>
      <point x="152.939" y="392.991"/>
      <point x="82.4552" y="454.636"/>
      <point x="82.4552" y="550.012" type="curve" smooth="yes"/>
      <point x="82.4552" y="650.722"/>
      <point x="161.043" y="712"/>
      <point x="277" y="712" type="curve" smooth="yes"/>
      <point x="395.386" y="712"/>
      <point x="474.804" y="649.648"/>
      <point x="474.804" y="554.992" type="curve" smooth="yes"/>
      <point x="474.804" y="457.5"/>
      <point x="390.554" y="392.991"/>
    </contour>
    <contour>
      <point x="514" y="187.676" type="curve" smooth="yes"/>
      <point x="514" y="288"/>
      <point x="452.804" y="355.481"/>
      <point x="350.814" y="384" type="curve"/>
      <point x="460.246" y="421.156"/>
      <point x="495" y="482"/>
      <point x="495" y="550.369" type="curve" smooth="yes"/>
      <point x="495" y="661"/>
      <point x="404" y="732"/>
      <point x="278.189" y="732" type="curve" smooth="yes"/>
      <point x="151" y="732"/>
      <point x="62" y="659.435"/>
      <point x="62" y="551.785" type="curve" smooth="yes"/>
      <point x="62" y="477.435"/>
      <point x="104.455" y="412.991"/>
      <point x="196.161" y="383" type="curve"/>
      <point x="89.7947" y="353.669"/>
      <point x="40" y="280"/>
      <point x="40" y="188.446" type="curve" smooth="yes"/>
      <point x="40" y="64"/>
      <point x="132" y="-10"/>
      <point x="276" y="-10" type="curve" smooth="yes"/>
      <point x="421" y="-10"/>
      <point x="514" y="64"/>
    </contour>
  </outline>
  <guideline angle="0" x="0" y="383"/>
</glyph>
<glyph name="semicolon" format="2">
  <advance width="275"/>
  <unicode hex="003B"/>
  <outline>
    <contour>
      <point x="-2" y="-127" type="line"/>
      <point x="7.94074" y="-127" type="line"/>
      <point x="107.941" y="123" type="line"/>
      <point x="78" y="123" type="line"/>
    </contour>
    <contour>
      <point x="80" y="377" type="line"/>
      <point x="102" y="377" type="line"/>
      <point x="102" y="500" type="line"/>
      <point x="80" y="500" type="line"/>
    </contour>
  </outline>
  <guideline angle="90" x="80" y="0"/>
  <guideline angle="90" x="102" y="0"/>
</glyph>
<glyph name="less" format="2">
  <advance width="700"/>
  <unicode hex="003C"/>
  <outline>
    <contour>
      <point x="50" y="289" type="line"/>
      <point x="50" y="311" type="line"/>
      <point x="650" y="541" type="line"/>
      <point x="650" y="520" type="line"/>
      <point x="67.7206" y="295.903" type="line"/>
      <point x="67.5373" y="304.421" type="line"/>
      <point x="650" y="80" type="line"/>
      <point x="650" y="59" type="line"/>
    </contour>
  </outline>
  <guideline angle="90" x="650" y="0"/>
</glyph>
<glyph name="question" format="2">
  <advance width="516"/>
  <unicode hex="003F"/>
  <outline>
    <component base="period" xOffset="128"/>
    <contour>
      <point x="400" y="558" type="curve" smooth="yes"/>
      <point x="400" y="659.755"/>
      <point x="341.051" y="717.044"/>
      <point x="236" y="717.044" type="curve" smooth="yes"/>
      <point x="140.181" y="717.044"/>
      <point x="86.3066" y="656.628"/>
      <point x="50.7197" y="588.633" type="curve"/>
      <point x="34.7801" y="598.776" type="line"/>
      <point x="79.3338" y="684.001"/>
      <point x="139.856" y="737"/>
      <point x="235" y="737" type="curve" smooth="yes"/>
      <point x="350.415" y="737"/>
      <point x="420" y="674.304"/>
      <point x="420" y="553.275" type="curve" smooth="yes"/>
      <point x="420" y="409.589"/>
      <point x="229" y="427.567"/>
      <point x="229" y="263" type="curve" smooth="yes"/>
      <point x="229" y="195" type="line"/>
      <point x="209" y="195" type="line"/>
      <point x="209" y="263" type="line" smooth="yes"/>
      <point x="209" y="445.903"/>
      <point x="400" y="417.088"/>
    </contour>
  </outline>
  <guideline angle="147.529" x="91" y="563"/>
  <guideline angle="0" x="0" y="717"/>
  <guideline angle="0" x="0" y="737"/>
  <guideline angle="62.5924" x="38.3704" y="605"/>
  <guideline angle="62.5603" x="37.6923" y="563"/>
  <guideline angle="90" x="209" y="0"/>
  <guideline angle="90" x="229" y="0"/>
</glyph>
<glyph name="A" format="2">
  <advance width="706"/>
  <unicode hex="0041"/>
  <anchor x="353" y="797" name="top"/>
  <anchor x="651" y="10" name="ogonekUC"/>
  <anchor x="353" y="-75" name="bottom"/>
  <anchor x="192" y="722" name="tonos"/>
  <outline>
    <contour>
      <point x="40" y="0" type="line"/>
      <point x="63" y="0" type="line"/>
      <point x="352.627" y="702.23" type="line"/>
      <point x="643" y="0" type="line"/>
      <point x="666" y="0" type="line"/>
      <point x="363" y="722" type="line"/>
      <point x="343" y="722" type="line"/>
    </contour>
    <contour>
      <point x="551" y="248" type="line"/>
      <point x="156" y="248" type="line"/>
      <point x="148" y="230" type="line"/>
      <point x="558" y="230" type="line"/>
    </contour>
  </outline>
  <guideline angle="90" x="353" y="0"/>
  <guideline angle="0" x="0" y="230"/>
  <guideline angle="0" x="0" y="248"/>
  <guideline angle="292.446" x="363" y="702"/>
  <guideline angle="67.5542" x="53" y="0"/>
</glyph>
<glyph name="B" format="2">
  <advance width="575"/>
  <unicode hex="0042"/>
  <anchor x="208" y="797" name="top"/>
  <outline>
    <component base="I" xOffset="-10"/>
    <contour>
      <point x="81" y="0" type="line"/>
      <point x="298" y="0" type="line" smooth="yes"/>
      <point x="439" y="0"/>
      <point x="495" y="92"/>
      <point x="495" y="208" type="curve" smooth="yes"/>
      <point x="495" y="298.612"/>
      <point x="451.313" y="360.057"/>
      <point x="372" y="381" type="curve"/>
      <point x="372" y="383" type="line"/>
      <point x="434.788" y="412.621"/>
      <point x="469" y="474"/>
      <point x="469" y="542" type="curve" smooth="yes"/>
      <point x="469" y="661.511"/>
      <point x="406.158" y="722"/>
      <point x="282" y="722" type="curve" smooth="yes"/>
      <point x="81" y="722" type="line"/>
      <point x="81" y="702" type="line"/>
      <point x="278" y="702" type="line" smooth="yes"/>
      <point x="399.206" y="702"/>
      <point x="447" y="643.705"/>
      <point x="447" y="544.894" type="curve" smooth="yes"/>
      <point x="447" y="446.658"/>
      <point x="389.876" y="390"/>
      <point x="309" y="390" type="curve" smooth="yes"/>
      <point x="81" y="390" type="line"/>
      <point x="81" y="370" type="line"/>
      <point x="310.345" y="370" type="line" smooth="yes"/>
      <point x="428.345" y="370"/>
      <point x="473" y="288"/>
      <point x="473" y="212" type="curve" smooth="yes"/>
      <point x="473" y="93"/>
      <point x="416" y="20"/>
      <point x="290" y="20" type="curve" smooth="yes"/>
      <point x="81" y="20" type="line"/>
    </contour>
  </outline>
</glyph>
<glyph name="C" format="2">
  <advance width="660"/>
  <unicode hex="0043"/>
  <anchor x="335" y="797" name="top"/>
  <anchor x="357" y="10" name="bottom"/>
  <outline>
    <contour>
      <point x="358" y="732" type="line"/>
      <point x="512" y="732"/>
      <point x="606" y="655"/>
      <point x="606" y="525" type="curve"/>
      <point x="586.022" y="525" type="line"/>
      <point x="586.022" y="633"/>
      <point x="508" y="711.856"/>
      <point x="358" y="711.856" type="curve"/>
    </contour>
    <contour>
      <point x="357" y="10" type="line"/>
      <point x="507.061" y="10"/>
      <point x="590.021" y="80.4407"/>
      <point x="590.021" y="197" type="curve"/>
      <point x="610" y="197" type="line"/>
      <point x="610" y="66"/>
      <point x="518" y="-10"/>
      <point x="357" y="-10" type="curve"/>
    </contour>
    <contour>
      <point x="60" y="361" type="curve" smooth="yes"/>
      <point x="60" y="579"/>
      <point x="140" y="732"/>
      <point x="358" y="732" type="curve"/>
      <point x="358" y="712" type="line"/>
      <point x="158" y="712"/>
      <point x="82" y="561"/>
      <point x="82" y="361" type="curve" smooth="yes"/>
      <point x="82" y="161"/>
      <point x="158" y="9.53642"/>
      <point x="358" y="9.53642" type="curve"/>
      <point x="358" y="-10" type="line"/>
      <point x="140" y="-10"/>
      <point x="60" y="143"/>
    </contour>
  </outline>
</glyph>
<glyph name="F" format="2">
  <advance width="540"/>
  <unicode hex="0046"/>
  <anchor x="275" y="797" name="top"/>
  <outline>
    <component base="I" xOffset="58"/>
    <contour>
      <point x="159" y="377.889" type="line"/>
      <point x="497" y="377.889" type="line"/>
      <point x="497" y="358.018" type="line"/>
      <point x="159" y="358.018" type="line"/>
    </contour>
    <contour>
      <point x="160" y="722" type="line"/>
      <point x="508" y="722" type="line"/>
      <point x="508" y="704" type="line"/>
      <point x="160" y="704" type="line"/>
    </contour>
  </outline>
</glyph>
<glyph name="G" format="2">
  <advance width="735"/>
  <unicode hex="0047"/>
  <anchor x="357" y="797" name="top"/>
  <outline>
    <contour>
      <point x="358" y="712" type="line"/>
      <point x="507.683" y="712"/>
      <point x="611" y="635.635"/>
      <point x="611" y="525" type="curve"/>
      <point x="633" y="525" type="line"/>
      <point x="633" y="649.6"/>
      <point x="524.019" y="732"/>
      <point x="358" y="732" type="curve"/>
    </contour>
    <contour>
      <point x="358" y="10.1284" type="curve"/>
      <point x="358" y="-10" type="line"/>
      <point x="476.232" y="-10"/>
      <point x="570.608" y="4.27838"/>
      <point x="629" y="31" type="curve"/>
      <point x="629" y="326" type="line"/>
      <point x="364" y="326" type="line"/>
      <point x="364" y="306.261" type="line"/>
      <point x="607" y="306.261" type="line"/>
      <point x="606.938" y="43.3215" type="line"/>
      <point x="545.321" y="20.4466"/>
      <point x="467.937" y="10.1284"/>
    </contour>
    <contour>
      <point x="60" y="361" type="curve" smooth="yes"/>
      <point x="60" y="143"/>
      <point x="140" y="-10"/>
      <point x="358" y="-10" type="curve"/>
      <point x="358" y="9.53642" type="line"/>
      <point x="158" y="9.53642"/>
      <point x="82" y="161"/>
      <point x="82" y="361" type="curve" smooth="yes"/>
      <point x="82" y="561"/>
      <point x="158" y="712"/>
      <point x="358" y="712" type="curve"/>
      <point x="358" y="732" type="line"/>
      <point x="140" y="732"/>
      <point x="60" y="579"/>
    </contour>
  </outline>
  <guideline angle="90" x="358" y="0"/>
</glyph>
<glyph name="J" format="2">
  <advance width="449"/>
  <unicode hex="004A"/>
  <anchor x="360" y="797" name="top"/>
  <outline>
    <contour>
      <point x="40.4554" y="174" type="line"/>
      <point x="40.0537" y="48.7348"/>
      <point x="117.88" y="-14"/>
      <point x="205.185" y="-14" type="curve" smooth="yes"/>
      <point x="295.18" y="-14"/>
      <point x="371" y="35.1732"/>
      <point x="371" y="162.395" type="curve" smooth="yes"/>
      <point x="371" y="722" type="line"/>
      <point x="349" y="722" type="line"/>
      <point x="349" y="162.395" type="line" smooth="yes"/>
      <point x="349" y="44.6117"/>
      <point x="285.749" y="5.90913"/>
      <point x="201.185" y="5.90913" type="curve" smooth="yes"/>
      <point x="130.454" y="5.90913"/>
      <point x="60" y="66.1605"/>
      <point x="60" y="174" type="curve"/>
    </contour>
  </outline>
</glyph>
<glyph name="L" format="2">
  <advance width="495"/>
  <unicode hex="004C"/>
  <anchor x="106" y="797" name="top"/>
  <outline>
    <component base="I"/>
    <contour>
      <point x="102" y="18" type="line"/>
      <point x="460" y="18" type="line"/>
      <point x="460" y="0" type="line"/>
      <point x="102" y="0" type="line"/>
    </contour>
  </outline>
</glyph>
<glyph name="N" format="2">
  <advance width="683"/>
  <unicode hex="004E"/>
  <anchor x="345" y="797" name="top"/>
  <outline>
    <contour>
      <point x="72.2245" y="722" type="line"/>
      <point x="94" y="722" type="line"/>
      <point x="567.653" y="0" type="line"/>
      <point x="545" y="0" type="line"/>
    </contour>
    <contour>
      <point x="81.862" y="722" type="line"/>
      <point x="81.862" y="0" type="line"/>
      <point x="60" y="0" type="line"/>
      <point x="60" y="722" type="line"/>
    </contour>
    <contour>
      <point x="558.103" y="0" type="line"/>
      <point x="558.103" y="722" type="line"/>
      <point x="580.103" y="722" type="line"/>
      <point x="580.103" y="0" type="line"/>
    </contour>
  </outline>
</glyph>
<glyph name="O" format="2">
  <advance width="754"/>
  <unicode hex="004F"/>
  <anchor x="365" y="797" name="top"/>
  <anchor x="72" y="722" name="tonos"/>
  <outline>
    <contour>
      <point x="80" y="361" type="curve" smooth="yes"/>
      <point x="80" y="143"/>
      <point x="160" y="-10"/>
      <point x="378" y="-10" type="curve"/>
      <point x="378" y="9.53642" type="line"/>
      <point x="178" y="9.53642"/>
      <point x="102" y="161"/>
      <point x="102" y="361" type="curve" smooth="yes"/>
      <point x="102" y="561"/>
      <point x="178" y="712"/>
      <point x="378" y="712" type="curve"/>
      <point x="378" y="732" type="line"/>
      <point x="160" y="732"/>
      <point x="80" y="579"/>
    </contour>
    <contour>
      <point x="676" y="361" type="curve" smooth="yes"/>
      <point x="676" y="579"/>
      <point x="596" y="732"/>
      <point x="378" y="732" type="curve"/>
      <point x="378" y="712" type="line"/>
      <point x="578" y="712"/>
      <point x="654" y="561"/>
      <point x="654" y="361" type="curve" smooth="yes"/>
      <point x="654" y="161"/>
      <point x="578" y="9.53642"/>
      <point x="378" y="9.53642" type="curve"/>
      <point x="378" y="-10" type="line"/>
      <point x="596" y="-10"/>
      <point x="676" y="143"/>
    </contour>
  </outline>
  <guideline angle="90" x="80" y="0"/>
  <guideline angle="90" x="102" y="0"/>
  <guideline angle="0" x="0" y="714"/>
</glyph>
<glyph name="Q" format="2">
  <advance width="775"/>
  <unicode hex="0051"/>
  <anchor x="375" y="797" name="top"/>
  <outline>
    <component base="O"/>
    <contour>
      <point x="499.432" y="10.1269" type="curve"/>
      <point x="411.672" y="-8.4" type="line"/>
      <point x="418.672" y="-7" type="line" smooth="yes"/>
      <point x="442.712" y="-2.1922"/>
      <point x="556" y="0"/>
      <point x="576" y="0" type="curve" smooth="yes"/>
      <point x="755" y="0" type="line"/>
      <point x="755" y="20" type="line"/>
      <point x="708.043" y="20"/>
      <point x="513.276" y="17.2674"/>
    </contour>
  </outline>
</glyph>
<glyph name="R" format="2">
  <advance width="647"/>
  <unicode hex="0052"/>
  <anchor x="280" y="797" name="top"/>
  <outline>
    <component base="I" xOffset="-10"/>
    <contour>
      <point x="80" y="702" type="line"/>
      <point x="316" y="702" type="line" smooth="yes"/>
      <point x="479.04" y="702"/>
      <point x="527.016" y="655.331"/>
      <point x="527.016" y="536.821" type="curve" smooth="yes"/>
      <point x="527.016" y="447.331"/>
      <point x="466.799" y="381"/>
      <point x="366" y="381" type="curve" smooth="yes"/>
      <point x="80" y="381" type="line"/>
      <point x="80" y="361" type="line"/>
      <point x="360" y="361" type="line" smooth="yes"/>
      <point x="467.547" y="361"/>
      <point x="486.467" y="319.56"/>
      <point x="506.462" y="200.023" type="curve" smooth="yes"/>
      <point x="516" y="143" type="line" smooth="yes"/>
      <point x="526.499" y="80.2324"/>
      <point x="536" y="35"/>
      <point x="545" y="0" type="curve"/>
      <point x="569" y="0" type="line"/>
      <point x="556" y="36"/>
      <point x="542" y="98"/>
      <point x="533" y="155" type="curve" smooth="yes"/>
      <point x="524" y="215" type="line" smooth="yes"/>
      <point x="513" y="286"/>
      <point x="498.939" y="358.58"/>
      <point x="412" y="371" type="curve"/>
      <point x="412" y="367" type="line"/>
      <point x="496.99" y="382.759"/>
      <point x="549" y="455.562"/>
      <point x="549" y="537.821" type="curve" smooth="yes"/>
      <point x="549" y="665.744"/>
      <point x="490.558" y="722"/>
      <point x="319" y="722" type="curve" smooth="yes"/>
      <point x="80" y="722" type="line"/>
    </contour>
  </outline>
  <guideline angle="0" x="0" y="371"/>
</glyph>
<glyph name="U" format="2">
  <advance width="654"/>
  <unicode hex="0055"/>
  <anchor x="327" y="797" name="top"/>
  <anchor x="327" y="-50" name="bottom"/>
  <outline>
    <contour>
      <point x="70" y="322" type="line" smooth="yes"/>
      <point x="70" y="81.801"/>
      <point x="142.115" y="-12"/>
      <point x="329.556" y="-12" type="curve" smooth="yes"/>
      <point x="509.629" y="-12"/>
      <point x="584" y="74.5723"/>
      <point x="584" y="322" type="curve" smooth="yes"/>
      <point x="584" y="722" type="line"/>
      <point x="562" y="722" type="line"/>
      <point x="562" y="312" type="line" smooth="yes"/>
      <point x="562" y="84.2099"/>
      <point x="490.044" y="7.63904"/>
      <point x="331.263" y="7.63904" type="curve" smooth="yes"/>
      <point x="168.388" y="7.63904"/>
      <point x="92" y="88.2097"/>
      <point x="92" y="312" type="curve" smooth="yes"/>
      <point x="92" y="722" type="line"/>
      <point x="70" y="722" type="line"/>
    </contour>
  </outline>
  <guideline angle="90" x="327" y="0"/>
</glyph>
<glyph name="V" format="2">
  <advance width="612"/>
  <unicode hex="0056"/>
  <anchor x="306" y="797" name="top"/>
  <outline>
    <contour>
      <point x="572" y="722" type="line"/>
      <point x="551.526" y="722" type="line"/>
      <point x="302.176" y="19.3611" type="line"/>
      <point x="309.824" y="19.3611" type="line"/>
      <point x="59.5438" y="722" type="line"/>
      <point x="40" y="722" type="line"/>
      <point x="297" y="0" type="line"/>
      <point x="315" y="0" type="line"/>
    </contour>
  </outline>
  <guideline angle="90" x="306" y="0"/>
  <guideline angle="109.593" x="297" y="0"/>
  <guideline angle="250.407" x="552.288" y="722"/>
  <guideline angle="109.593" x="316.508" y="0"/>
  <guideline angle="250.407" x="572" y="722"/>
</glyph>
<glyph name="X" format="2">
  <advance width="684"/>
  <unicode hex="0058"/>
  <anchor x="342" y="797" name="top"/>
  <outline>
    <contour>
      <point x="578" y="0" type="line"/>
      <point x="598" y="0" type="line"/>
      <point x="106.378" y="722" type="line"/>
      <point x="86" y="722" type="line"/>
    </contour>
    <contour>
      <point x="335.735" y="369.086" type="line"/>
      <point x="86" y="0" type="line"/>
      <point x="106" y="0" type="line"/>
      <point x="345.667" y="354.499" type="line"/>
    </contour>
    <contour>
      <point x="349.104" y="353.683" type="line"/>
      <point x="598.307" y="722" type="line"/>
      <point x="578.307" y="722" type="line"/>
      <point x="339.232" y="368.358" type="line"/>
    </contour>
  </outline>
  <guideline angle="90" x="342" y="0"/>
  <guideline angle="0" x="0" y="371"/>
</glyph>
<glyph name="Z" format="2">
  <advance width="626"/>
  <unicode hex="005A"/>
  <anchor x="318" y="797" name="top"/>
  <outline>
    <contour>
      <point x="576" y="0" type="line"/>
      <point x="50" y="0" type="line"/>
      <point x="50" y="20.1496" type="line"/>
      <point x="539.558" y="702" type="line"/>
      <point x="70" y="702" type="line"/>
      <point x="70" y="722" type="line"/>
      <point x="566" y="722" type="line"/>
      <point x="566" y="702.141" type="line"/>
      <point x="77.2463" y="20" type="line"/>
      <point x="576" y="20" type="line"/>
    </contour>
  </outline>
  <guideline angle="90" x="318" y="0"/>
</glyph>
<glyph name="bracketleft" format="2">
  <advance width="396"/>
  <unicode hex="005B"/>
  <outline>
    <contour>
      <point x="292" y="-198" type="line"/>
      <point x="106" y="-198" type="line"/>
      <point x="106" y="722" type="line"/>
      <point x="292" y="722" type="line"/>
      <point x="292" y="702" type="line"/>
      <point x="127.861" y="702" type="line"/>
      <point x="127.861" y="-178" type="line"/>
      <point x="292" y="-178" type="line"/>
    </contour>
  </outline>
</glyph>
<glyph name="backslash" format="2">
  <advance width="339"/>
  <unicode hex="005C"/>
  <outline>
    <contour>
      <point x="298.429" y="-52" type="line"/>
      <point x="62.4285" y="736" type="line"/>
      <point x="40" y="736" type="line"/>
      <point x="276" y="-52" type="line"/>
    </contour>
  </outline>
</glyph>
<glyph name="bracketright" format="2">
  <advance width="396"/>
  <unicode hex="005D"/>
  <outline>
    <contour>
      <point x="292" y="-198" type="line"/>
      <point x="106" y="-198" type="line"/>
      <point x="106" y="-178" type="line"/>
      <point x="270.006" y="-178" type="line"/>
      <point x="270.006" y="702.015" type="line"/>
      <point x="106" y="702.015" type="line"/>
      <point x="106" y="722" type="line"/>
      <point x="292" y="722" type="line"/>
    </contour>
  </outline>
</glyph>
<glyph name="grave" format="2">
  <advance width="288"/>
  <unicode hex="0060"/>
  <outline>
    <contour>
      <point x="212.379" y="600" type="line"/>
      <point x="202.621" y="600" type="line"/>
      <point x="62.6212" y="771" type="line"/>
      <point x="112.379" y="771" type="line"/>
    </contour>
  </outline>
</glyph>
<glyph name="a" format="2">
  <advance width="567"/>
  <unicode hex="0061"/>
  <anchor x="283" y="580" name="top"/>
  <anchor x="452" y="10" name="ogonekLC"/>
  <anchor x="283" y="-50" name="bottom"/>
  <outline>
    <contour>
      <point x="80" y="140" type="curve" smooth="yes"/>
      <point x="80" y="47.2781"/>
      <point x="131.407" y="-10"/>
      <point x="247" y="-10" type="curve" smooth="yes"/>
      <point x="348.974" y="-10"/>
      <point x="421.31" y="25.8013"/>
      <point x="461.677" y="79.8601" type="curve"/>
      <point x="453.587" y="78.3064" type="line"/>
      <point x="454.727" y="47.1746"/>
      <point x="460.612" y="19.2594"/>
      <point x="466.473" y="0" type="curve"/>
      <point x="487" y="0" type="line"/>
      <point x="475.374" y="31.0019"/>
      <point x="469.992" y="99.6146"/>
      <point x="471" y="182" type="curve" smooth="yes"/>
      <point x="472.987" y="344.417" type="line" smooth="yes"/>
      <point x="474.423" y="461.748"/>
      <point x="419.547" y="512"/>
      <point x="290" y="512" type="curve" smooth="yes"/>
      <point x="167.354" y="512"/>
      <point x="108" y="461.53"/>
      <point x="108" y="365" type="curve"/>
      <point x="128" y="365" type="line"/>
      <point x="128" y="451.213"/>
      <point x="176.857" y="492"/>
      <point x="290" y="492" type="curve" smooth="yes"/>
      <point x="406.883" y="492"/>
      <point x="454.991" y="449.691"/>
      <point x="453.473" y="349" type="curve" smooth="yes"/>
      <point x="450.027" y="120.332" type="line" smooth="yes"/>
      <point x="449.147" y="62.0053"/>
      <point x="355.834" y="10"/>
      <point x="254" y="10" type="curve" smooth="yes"/>
      <point x="147.444" y="10"/>
      <point x="99.6302" y="51.7418"/>
      <point x="99.6302" y="143" type="curve" smooth="yes"/>
      <point x="99.6302" y="241.931"/>
      <point x="176.457" y="288.16"/>
      <point x="336.197" y="288.16" type="curve" smooth="yes"/>
      <point x="369.287" y="288.16"/>
      <point x="429.816" y="283.941"/>
      <point x="464.958" y="279.752" type="curve"/>
      <point x="462.714" y="300.67" type="line"/>
      <point x="429.462" y="304.221"/>
      <point x="371.233" y="308"/>
      <point x="331" y="308" type="curve" smooth="yes"/>
      <point x="156.473" y="308"/>
      <point x="80" y="248.194"/>
    </contour>
  </outline>
  <guideline angle="90" x="283" y="0"/>
</glyph>
<glyph name="b" format="2">
  <advance width="613"/>
  <unicode hex="0062"/>
  <anchor x="253" y="754" name="top"/>
  <anchor x="268" y="-88" name="bottom"/>
  <outline>
    <contour>
      <point x="100.048" y="0" type="line"/>
      <point x="100.048" y="722" type="line"/>
      <point x="120" y="722" type="line"/>
      <point x="120" y="328.323" type="line"/>
      <point x="114.398" y="328.45" type="line"/>
      <point x="113.516" y="182.55" type="line"/>
      <point x="120" y="182.272" type="line"/>
      <point x="120" y="0" type="line"/>
    </contour>
    <contour>
      <point x="109.924" y="170.895" type="curve"/>
      <point x="109.924" y="337.891" type="line"/>
      <point x="129.625" y="443.73"/>
      <point x="215.98" y="512"/>
      <point x="310" y="512" type="curve" smooth="yes"/>
      <point x="441.043" y="512"/>
      <point x="533" y="425.319"/>
      <point x="533" y="254.994" type="curve" smooth="yes"/>
      <point x="533" y="84.2416"/>
      <point x="440.682" y="-10"/>
      <point x="315.161" y="-10" type="curve" smooth="yes"/>
      <point x="208.413" y="-10"/>
      <point x="129.493" y="58.1596"/>
    </contour>
    <contour>
      <point x="120" y="262" type="curve" smooth="yes"/>
      <point x="120" y="103.783"/>
      <point x="193.558" y="10"/>
      <point x="313.331" y="10" type="curve" smooth="yes"/>
      <point x="427.683" y="10"/>
      <point x="513" y="95.4855"/>
      <point x="513" y="257.376" type="curve" smooth="yes"/>
      <point x="513" y="416.677"/>
      <point x="429.757" y="492"/>
      <point x="307.257" y="492" type="curve" smooth="yes"/>
      <point x="225.583" y="492"/>
      <point x="120" y="421.965"/>
    </contour>
  </outline>
</glyph>
<glyph name="c" format="2">
  <advance width="588"/>
  <unicode hex="0063"/>
  <anchor x="294" y="580" name="top"/>
  <outline>
    <contour>
      <point x="80" y="240" type="curve" smooth="yes"/>
      <point x="80" y="408.787"/>
      <point x="167.276" y="512"/>
      <point x="310" y="512" type="curve" smooth="yes"/>
      <point x="424.032" y="512"/>
      <point x="496.338" y="448.266"/>
      <point x="504" y="341" type="curve"/>
      <point x="484" y="341" type="line"/>
      <point x="476.087" y="432.435"/>
      <point x="416.849" y="492"/>
      <point x="302" y="492" type="curve" smooth="yes"/>
      <point x="180.127" y="492"/>
      <point x="100" y="394.548"/>
      <point x="100" y="246" type="curve" smooth="yes"/>
      <point x="100" y="90.3259"/>
      <point x="168.571" y="10"/>
      <point x="301" y="10" type="curve" smooth="yes"/>
      <point x="409.582" y="10"/>
      <point x="488.075" y="76.4717"/>
      <point x="487.822" y="169" type="curve"/>
      <point x="508" y="169" type="line"/>
      <point x="502.007" y="60.1205"/>
      <point x="420.134" y="-10"/>
      <point x="299" y="-10" type="curve" smooth="yes"/>
      <point x="159.482" y="-10"/>
      <point x="80" y="80.7329"/>
    </contour>
  </outline>
</glyph>
<glyph name="e" format="2">
  <advance width="616"/>
  <unicode hex="0065"/>
  <anchor x="308" y="580" name="top"/>
  <anchor x="308" y="-89" name="bottom"/>
  <anchor x="308" y="0" name="cedilla.bottom"/>
  <outline>
    <contour>
      <point x="80" y="251.756" type="curve" smooth="yes"/>
      <point x="80" y="413.664"/>
      <point x="167.068" y="512"/>
      <point x="312" y="512" type="curve" smooth="yes"/>
      <point x="449.132" y="512"/>
      <point x="535" y="423.029"/>
      <point x="535" y="282" type="curve" smooth="yes"/>
      <point x="535" y="246" type="line"/>
      <point x="102" y="246" type="line"/>
      <point x="102" y="97.9352"/>
      <point x="184.607" y="10"/>
      <point x="323.879" y="10" type="curve" smooth="yes"/>
      <point x="427.624" y="10"/>
      <point x="491.232" y="58.7954"/>
      <point x="516.061" y="160" type="curve"/>
      <point x="536" y="160" type="line"/>
      <point x="514.839" y="50.166"/>
      <point x="435.933" y="-10"/>
      <point x="318.521" y="-10" type="curve" smooth="yes"/>
      <point x="167.737" y="-10"/>
      <point x="80" y="89.2267"/>
    </contour>
    <contour>
      <point x="102" y="266" type="curve"/>
      <point x="514.738" y="266" type="line"/>
      <point x="515.173" y="412.215"/>
      <point x="443.482" y="492"/>
      <point x="317.408" y="492" type="curve" smooth="yes"/>
      <point x="184.368" y="492"/>
      <point x="102" y="403.154"/>
    </contour>
  </outline>
  <guideline angle="90" x="308" y="0"/>
</glyph>
<glyph name="f" format="2">
  <advance width="345"/>
  <unicode hex="0066"/>
  <anchor x="193" y="757" name="top"/>
  <anchor x="137" y="-75" name="bottom"/>
  <outline>
    <contour>
      <point x="124" y="622.98" type="curve" smooth="yes"/>
      <point x="124" y="0" type="line"/>
      <point x="144" y="0" type="line"/>
      <point x="144" y="620.98" type="line" smooth="yes"/>
      <point x="144" y="682.944"/>
      <point x="162.197" y="711.926"/>
      <point x="215.763" y="711.926" type="curve" smooth="yes"/>
      <point x="233.525" y="711.926"/>
      <point x="255.515" y="709.179"/>
      <point x="275" y="701.98" type="curve"/>
      <point x="275" y="722" type="line"/>
      <point x="252.955" y="729.348"/>
      <point x="237.045" y="732"/>
      <point x="206.024" y="732" type="curve" smooth="yes"/>
      <point x="151.751" y="732"/>
      <point x="124" y="692.469"/>
    </contour>
    <contour>
      <point x="134" y="500" type="line"/>
      <point x="24" y="500" type="line"/>
      <point x="24" y="480" type="line"/>
      <point x="134" y="480" type="line"/>
    </contour>
    <contour>
      <point x="134.494" y="480" type="line"/>
      <point x="269.494" y="480" type="line"/>
      <point x="269.494" y="500" type="line"/>
      <point x="134.494" y="500" type="line"/>
    </contour>
  </outline>
</glyph>
<glyph name="k" format="2">
  <advance width="400"/>
  <unicode hex="006B"/>
  <anchor x="226" y="762" name="top"/>
  <anchor x="225" y="-75" name="bottom"/>
  <outline>
    <component base="l"/>
    <contour>
      <point x="360" y="0" type="line"/>
      <point x="125.226" y="287.753" type="line"/>
      <point x="125.411" y="275.384" type="line"/>
      <point x="350" y="500" type="line"/>
      <point x="330" y="500" type="line"/>
      <point x="109.711" y="280.736" type="line"/>
      <point x="340" y="0" type="line"/>
    </contour>
  </outline>
  <guideline angle="90" x="120" y="0"/>
  <guideline angle="90" x="30" y="0"/>
</glyph>
<glyph name="l" format="2">
  <advance width="220"/>
  <unicode hex="006C"/>
  <anchor x="110" y="762" name="top"/>
  <anchor x="190" y="722" name="caron_TR"/>
  <outline>
    <contour>
      <point x="100" y="0" type="line"/>
      <point x="120" y="0" type="line"/>
      <point x="120" y="722" type="line"/>
      <point x="100" y="722" type="line"/>
    </contour>
  </outline>
  <guideline angle="90" x="110" y="0"/>
</glyph>
<glyph name="m" format="2">
  <advance width="880"/>
  <unicode hex="006D"/>
  <anchor x="414" y="580" name="top"/>
  <outline>
    <contour>
      <point x="450" y="346.667" type="line"/>
      <point x="450" y="368" type="line"/>
      <point x="450" y="426.55"/>
      <point x="524.714" y="492"/>
      <point x="591.551" y="492" type="curve" smooth="yes"/>
      <point x="714.206" y="492"/>
      <point x="760" y="434.213"/>
      <point x="760" y="321" type="curve" smooth="yes"/>
      <point x="760" y="0" type="line"/>
      <point x="780" y="0" type="line"/>
      <point x="780" y="324" type="line" smooth="yes"/>
      <point x="780" y="448.514"/>
      <point x="717.527" y="512"/>
      <point x="595" y="512" type="curve" smooth="yes"/>
      <point x="526.725" y="512"/>
      <point x="463.56" y="466.685"/>
      <point x="430.348" y="393.878" type="curve"/>
      <point x="430.08" y="346.582" type="line"/>
    </contour>
    <contour>
      <point x="120" y="415" type="curve" smooth="yes"/>
      <point x="100" y="383.21" type="line"/>
      <point x="100" y="349.9" type="line"/>
      <point x="120" y="349.879" type="line"/>
      <point x="120" y="414.012"/>
      <point x="196.554" y="492"/>
      <point x="269.083" y="492" type="curve" smooth="yes"/>
      <point x="385.024" y="492"/>
      <point x="430" y="435.928"/>
      <point x="430" y="368" type="curve"/>
      <point x="430" y="0" type="line"/>
      <point x="450" y="0" type="line"/>
      <point x="450" y="395.204" type="line"/>
      <point x="428" y="470"/>
      <point x="365.595" y="512"/>
      <point x="273.124" y="512" type="curve" smooth="yes"/>
      <point x="215.102" y="512"/>
      <point x="156.914" y="473.675"/>
    </contour>
    <contour>
      <point x="100" y="0" type="line"/>
      <point x="120" y="0" type="line"/>
      <point x="120" y="499.619" type="line"/>
      <point x="100" y="499.619" type="line"/>
    </contour>
  </outline>
</glyph>
<glyph name="n" format="2">
  <advance width="585"/>
  <unicode hex="006E"/>
  <anchor x="287" y="580" name="top"/>
  <anchor x="301" y="-75" name="bottom"/>
  <outline>
    <component base="dotlessi"/>
    <contour>
      <point x="110" y="376.185" type="line"/>
      <point x="120" y="376" type="line"/>
      <point x="129.434" y="441.097"/>
      <point x="215.865" y="490"/>
      <point x="289.535" y="490" type="curve" smooth="yes"/>
      <point x="399.198" y="490"/>
      <point x="465" y="431.284"/>
      <point x="465" y="315.893" type="curve" smooth="yes"/>
      <point x="465" y="0" type="line"/>
      <point x="485" y="0" type="line"/>
      <point x="485" y="312" type="line" smooth="yes"/>
      <point x="485" y="441.495"/>
      <point x="412.03" y="510"/>
      <point x="293" y="510" type="curve" smooth="yes"/>
      <point x="228.947" y="510"/>
      <point x="150.75" y="474.346"/>
      <point x="120" y="420" type="curve" smooth="yes"/>
      <point x="110" y="402.327" type="line"/>
    </contour>
  </outline>
</glyph>
<glyph name="o" format="2">
  <advance width="620"/>
  <unicode hex="006F"/>
  <anchor x="310" y="580" name="top"/>
  <anchor x="310" y="-75" name="bottom"/>
  <anchor x="310" y="580" name="tonos.top"/>
  <outline>
    <contour>
      <point x="80" y="250" type="curve" smooth="yes"/>
      <point x="80" y="89.739"/>
      <point x="166.287" y="-10"/>
      <point x="311" y="-10" type="curve" smooth="yes"/>
      <point x="455.094" y="-10"/>
      <point x="540" y="89.0984"/>
      <point x="540" y="250" type="curve" smooth="yes"/>
      <point x="540" y="410.902"/>
      <point x="455.094" y="510"/>
      <point x="311" y="510" type="curve" smooth="yes"/>
      <point x="166.287" y="510"/>
      <point x="80" y="410.261"/>
    </contour>
    <contour>
      <point x="101.495" y="250" type="curve" smooth="yes"/>
      <point x="101.495" y="397.561"/>
      <point x="185.501" y="490.005"/>
      <point x="310" y="490.005" type="curve" smooth="yes"/>
      <point x="436.695" y="490.005"/>
      <point x="518" y="396.305"/>
      <point x="518" y="250" type="curve" smooth="yes"/>
      <point x="518" y="101.621"/>
      <point x="434.754" y="9.95889"/>
      <point x="310" y="9.95889" type="curve" smooth="yes"/>
      <point x="184.978" y="9.95889"/>
      <point x="101.495" y="101.877"/>
    </contour>
  </outline>
  <guideline angle="90" x="310" y="0"/>
</glyph>
<glyph name="p" format="2">
  <advance width="616"/>
  <unicode hex="0070"/>
  <outline>
    <contour>
      <point x="103" y="-200" type="line"/>
      <point x="123" y="-200" type="line"/>
      <point x="123" y="421" type="line"/>
      <point x="122" y="500" type="line"/>
      <point x="100" y="500" type="line"/>
      <point x="102" y="474"/>
      <point x="103" y="447"/>
      <point x="103" y="421" type="curve" smooth="yes"/>
    </contour>
    <contour>
      <point x="112.924" y="170.895" type="line"/>
      <point x="132.493" y="58.1596"/>
      <point x="211.413" y="-10"/>
      <point x="318.161" y="-10" type="curve" smooth="yes"/>
      <point x="443.682" y="-10"/>
      <point x="536" y="84.2416"/>
      <point x="536" y="254.994" type="curve" smooth="yes"/>
      <point x="536" y="425.319"/>
      <point x="444.043" y="512"/>
      <point x="313" y="512" type="curve" smooth="yes"/>
      <point x="218.98" y="512"/>
      <point x="132.625" y="443.73"/>
      <point x="112.924" y="337.891" type="curve"/>
    </contour>
    <contour>
      <point x="123" y="262" type="curve" smooth="yes"/>
      <point x="123" y="421.965"/>
      <point x="228.583" y="492"/>
      <point x="310.257" y="492" type="curve" smooth="yes"/>
      <point x="432.757" y="492"/>
      <point x="516" y="416.677"/>
      <point x="516" y="257.376" type="curve" smooth="yes"/>
      <point x="516" y="95.4855"/>
      <point x="430.683" y="10"/>
      <point x="316.331" y="10" type="curve" smooth="yes"/>
      <point x="196.558" y="10"/>
      <point x="123" y="103.783"/>
    </contour>
  </outline>
</glyph>
<glyph name="q" format="2">
  <advance width="621"/>
  <unicode hex="0071"/>
  <anchor x="285" y="580" name="top"/>
  <anchor x="360" y="-275" name="bottom"/>
  <outline>
    <contour>
      <point x="501" y="499.587" type="line"/>
      <point x="521" y="499.587" type="line"/>
      <point x="521" y="-200" type="line"/>
      <point x="501" y="-200" type="line"/>
    </contour>
    <contour>
      <point x="510.441" y="169.878" type="line"/>
      <point x="490.009" y="59.1489"/>
      <point x="401" y="-10"/>
      <point x="306" y="-10" type="curve" smooth="yes"/>
      <point x="158.724" y="-10"/>
      <point x="80" y="85.2011"/>
      <point x="80" y="250.204" type="curve" smooth="yes"/>
      <point x="80" y="416.033"/>
      <point x="159.515" y="512"/>
      <point x="302" y="512" type="curve" smooth="yes"/>
      <point x="410.009" y="512"/>
      <point x="495.17" y="424"/>
      <point x="510.009" y="324.509" type="curve"/>
    </contour>
    <contour>
      <point x="100" y="251.402" type="curve" smooth="yes"/>
      <point x="100" y="88.6729"/>
      <point x="176.603" y="10"/>
      <point x="308.507" y="10" type="curve" smooth="yes"/>
      <point x="396" y="10"/>
      <point x="501" y="88.5059"/>
      <point x="501" y="242.333" type="curve" smooth="yes"/>
      <point x="501" y="387.659"/>
      <point x="418.434" y="492"/>
      <point x="303.627" y="492" type="curve" smooth="yes"/>
      <point x="167.613" y="492"/>
      <point x="100" y="404.286"/>
    </contour>
  </outline>
</glyph>
<glyph name="s" format="2">
  <advance width="523"/>
  <unicode hex="0073"/>
  <anchor x="258" y="580" name="top"/>
  <anchor x="243" y="0" name="cedilla.bottom"/>
  <outline>
    <contour>
      <point x="80" y="144" type="curve"/>
      <point x="100" y="144" type="line"/>
      <point x="100" y="58.1393"/>
      <point x="154.01" y="10"/>
      <point x="262.043" y="10" type="curve" smooth="yes"/>
      <point x="360.147" y="10"/>
      <point x="423" y="49.6969"/>
      <point x="423" y="116.468" type="curve" smooth="yes"/>
      <point x="423" y="170.137"/>
      <point x="382.395" y="218.281"/>
      <point x="261.466" y="246.508" type="curve" smooth="yes"/>
      <point x="234.453" y="252.813" type="line" smooth="yes"/>
      <point x="126.809" y="277.939"/>
      <point x="94" y="332.455"/>
      <point x="94" y="387.136" type="curve" smooth="yes"/>
      <point x="94" y="457.567"/>
      <point x="148.433" y="512"/>
      <point x="265.851" y="512" type="curve" smooth="yes"/>
      <point x="385.997" y="512"/>
      <point x="433" y="456.339"/>
      <point x="433" y="366" type="curve"/>
      <point x="413.019" y="366" type="line"/>
      <point x="413.002" y="446.871"/>
      <point x="375.395" y="492"/>
      <point x="266.737" y="492" type="curve" smooth="yes"/>
      <point x="168.097" y="492"/>
      <point x="114" y="454.809"/>
      <point x="114" y="388.054" type="curve" smooth="yes"/>
      <point x="114" y="334.322"/>
      <point x="149.049" y="291.933"/>
      <point x="250.082" y="268.772" type="curve" smooth="yes"/>
      <point x="279.589" y="262.008" type="line" smooth="yes"/>
      <point x="395.852" y="235.356"/>
      <point x="443" y="173.73"/>
      <point x="443" y="123" type="curve" smooth="yes"/>
      <point x="443" y="35.3393"/>
      <point x="376.829" y="-10"/>
      <point x="252" y="-10" type="curve" smooth="yes"/>
      <point x="141.205" y="-10"/>
      <point x="80" y="44.1433"/>
    </contour>
  </outline>
  <guideline angle="344.863" x="80" y="306"/>
  <guideline angle="344.863" x="80" y="316"/>
  <guideline angle="344.863" x="80" y="296"/>
</glyph>
<glyph name="t" format="2">
  <advance width="344"/>
  <unicode hex="0074"/>
  <anchor x="161" y="711" name="top"/>
  <anchor x="169" y="0" name="cedilla.bottom"/>
  <outline>
    <contour>
      <point x="114" y="73.7953" type="line" smooth="yes"/>
      <point x="114" y="17.7681"/>
      <point x="136.214" y="-10"/>
      <point x="181.467" y="-10" type="curve" smooth="yes"/>
      <point x="199.451" y="-10"/>
      <point x="227.119" y="-6.56984"/>
      <point x="244.011" y="0" type="curve"/>
      <point x="244.011" y="20" type="line"/>
      <point x="224.011" y="14"/>
      <point x="203.011" y="10"/>
      <point x="185.907" y="10" type="curve" smooth="yes"/>
      <point x="148.946" y="10"/>
      <point x="134.011" y="28.6811"/>
      <point x="134.011" y="70.7953" type="curve" smooth="yes"/>
      <point x="134.011" y="636" type="line"/>
      <point x="114" y="627.504" type="line"/>
    </contour>
    <contour>
      <point x="119.011" y="480" type="line"/>
      <point x="244.011" y="480" type="line"/>
      <point x="244.011" y="500" type="line"/>
      <point x="119.011" y="500" type="line"/>
    </contour>
    <contour>
      <point x="24" y="480" type="line"/>
      <point x="129" y="480" type="line"/>
      <point x="129" y="500" type="line"/>
      <point x="24" y="500" type="line"/>
    </contour>
  </outline>
  <guideline angle="202.348" x="204" y="664.956"/>
</glyph>
<glyph name="u" format="2">
  <advance width="584"/>
  <unicode hex="0075"/>
  <anchor x="292" y="580" name="top"/>
  <anchor x="292" y="-87" name="bottom"/>
  <outline>
    <contour>
      <point x="463.886" y="500" type="line"/>
      <point x="463.886" y="0" type="line"/>
      <point x="484" y="0" type="line"/>
      <point x="484" y="500" type="line"/>
    </contour>
    <contour>
      <point x="100" y="174" type="line" smooth="yes"/>
      <point x="100" y="53.0055"/>
      <point x="161.889" y="-10"/>
      <point x="280.911" y="-10" type="curve" smooth="yes"/>
      <point x="363.882" y="-10"/>
      <point x="435.638" y="48.5288"/>
      <point x="463.886" y="119" type="curve" smooth="yes"/>
      <point x="473.886" y="143.947" type="line"/>
      <point x="473.886" y="193.745" type="line"/>
      <point x="463.886" y="194.284" type="line"/>
      <point x="463.995" y="96.8939"/>
      <point x="369.625" y="9.98976"/>
      <point x="285.769" y="9.98976" type="curve" smooth="yes"/>
      <point x="173.62" y="9.98976"/>
      <point x="120" y="62.5888"/>
      <point x="120" y="172" type="curve" smooth="yes"/>
      <point x="120" y="500" type="line"/>
      <point x="100" y="500" type="line"/>
    </contour>
  </outline>
  <guideline angle="90" x="292" y="0"/>
</glyph>
<glyph name="v" format="2">
  <advance width="524"/>
  <unicode hex="0076"/>
  <anchor x="264" y="580" name="top"/>
  <outline>
    <contour>
      <point x="484" y="500" type="line"/>
      <point x="275.771" y="0" type="line"/>
      <point x="252" y="0" type="line"/>
      <point x="40.4853" y="500" type="line"/>
      <point x="59.9221" y="500" type="line"/>
      <point x="268.383" y="8.66815" type="line"/>
      <point x="259.642" y="8.65845" type="line"/>
      <point x="463.643" y="500" type="line"/>
    </contour>
  </outline>
  <guideline angle="90" x="264" y="0"/>
  <guideline angle="112.977" x="271.64" y="0"/>
  <guideline angle="67.3903" x="296.643" y="99"/>
  <guideline angle="0" x="0" y="20"/>
  <guideline angle="112.977" x="252" y="0"/>
  <guideline angle="67.3903" x="317" y="99"/>
</glyph>
<glyph name="w" format="2">
  <advance width="824"/>
  <unicode hex="0077"/>
  <anchor x="392" y="580" name="top"/>
  <outline>
    <contour>
      <point x="724" y="500" type="line"/>
      <point x="572.517" y="0" type="line"/>
      <point x="545" y="0" type="line"/>
      <point x="386.232" y="494.725" type="line"/>
      <point x="397.523" y="494.725" type="line"/>
      <point x="247.927" y="0" type="line"/>
      <point x="219.274" y="0" type="line"/>
      <point x="67.9915" y="500" type="line"/>
      <point x="88.4667" y="500" type="line"/>
      <point x="237.475" y="7.51422" type="line"/>
      <point x="230.525" y="7.51422" type="line"/>
      <point x="379.683" y="500" type="line"/>
      <point x="404.759" y="500" type="line"/>
      <point x="563.143" y="7.51422" type="line"/>
      <point x="554.879" y="7.51422" type="line"/>
      <point x="703.979" y="500" type="line"/>
    </contour>
  </outline>
  <guideline angle="286.834" x="237.475" y="7.51422"/>
  <guideline angle="73.1661" x="230.525" y="7.51422"/>
  <guideline angle="252.23" x="412" y="415"/>
  <guideline angle="107.77" x="545" y="0"/>
  <guideline angle="73.1661" x="585.979" y="110"/>
  <guideline angle="90" x="234" y="0"/>
  <guideline angle="90" x="392" y="0"/>
  <guideline angle="90" x="590" y="0"/>
  <guideline angle="0" x="0" y="20"/>
  <guideline angle="0" x="0" y="480"/>
  <guideline angle="286.834" x="217" y="7.51422"/>
  <guideline angle="73.1661" x="231" y="7.51422"/>
  <guideline angle="73.1661" x="251" y="7.51422"/>
  <guideline angle="107.77" x="565" y="0"/>
  <guideline angle="73.1661" x="606" y="110"/>
</glyph>
<glyph name="x" format="2">
  <advance width="497"/>
  <unicode hex="0078"/>
  <anchor x="247" y="580" name="top"/>
  <outline>
    <contour>
      <point x="457" y="0" type="line"/>
      <point x="71.9289" y="500" type="line"/>
      <point x="49.1141" y="500" type="line"/>
      <point x="435" y="0" type="line"/>
    </contour>
    <contour>
      <point x="237.123" y="261.064" type="line"/>
      <point x="40" y="0" type="line"/>
      <point x="62.3428" y="0" type="line"/>
      <point x="247.781" y="249.721" type="line"/>
    </contour>
    <contour>
      <point x="251.74" y="254.152" type="line"/>
      <point x="436" y="500" type="line"/>
      <point x="413.58" y="500" type="line"/>
      <point x="241.002" y="265.622" type="line"/>
    </contour>
  </outline>
  <guideline angle="127.596" x="455" y="0"/>
  <guideline angle="127.596" x="435" y="0"/>
  <guideline angle="127.596" x="448.04" y="0"/>
  <guideline angle="52.3767" x="241" y="247"/>
  <guideline angle="234.349" x="416" y="500"/>
  <guideline angle="90" x="247" y="0"/>
</glyph>
<glyph name="y" format="2">
  <advance width="508"/>
  <unicode hex="0079"/>
  <anchor x="289" y="580" name="top"/>
  <outline>
    <contour>
      <point x="181" y="-200" type="line"/>
      <point x="196" y="-200" type="line"/>
      <point x="468" y="500" type="line"/>
      <point x="448" y="500" type="line"/>
    </contour>
    <contour>
      <point x="267.899" y="7.24025" type="line"/>
      <point x="60" y="500" type="line"/>
      <point x="40" y="500" type="line"/>
      <point x="259.912" y="-12.7858" type="line"/>
    </contour>
  </outline>
  <guideline angle="249.122" x="448" y="500"/>
  <guideline angle="68.7653" x="273" y="-200"/>
  <guideline angle="112.682" x="308" y="110"/>
  <guideline angle="293.212" x="40" y="500"/>
  <guideline angle="68.6821" x="260" y="-13"/>
</glyph>
<glyph name="z" format="2">
  <advance width="530"/>
  <unicode hex="007A"/>
  <anchor x="286" y="580" name="top"/>
  <outline>
    <contour>
      <point x="450" y="0" type="line"/>
      <point x="450" y="20" type="line"/>
      <point x="87.1972" y="20" type="line"/>
      <point x="92.3201" y="7.04761" type="line"/>
      <point x="450" y="479.884" type="line"/>
      <point x="450" y="500" type="line"/>
      <point x="102" y="500" type="line"/>
      <point x="102" y="480" type="line"/>
      <point x="442.879" y="480" type="line"/>
      <point x="436.078" y="491.191" type="line"/>
      <point x="80" y="20.4217" type="line"/>
      <point x="80" y="0" type="line"/>
    </contour>
  </outline>
  <guideline angle="53.2275" x="102" y="20"/>
</glyph>
<glyph name="asciitilde" format="2">
  <advance width="633"/>
  <unicode hex="007E"/>
  <outline>
    <contour>
      <point x="549" y="305" type="curve"/>
      <point x="529" y="305" type="line"/>
      <point x="520" y="275"/>
      <point x="474.004" y="227.763"/>
      <point x="430.471" y="227.763" type="curve" smooth="yes"/>
      <point x="363.18" y="227.763"/>
      <point x="285.244" y="303"/>
      <point x="215" y="303" type="curve" smooth="yes"/>
      <point x="142.775" y="303"/>
      <point x="101.705" y="253.726"/>
      <point x="81" y="205" type="curve"/>
      <point x="101" y="205" type="line"/>
      <point x="118.011" y="237.62"/>
      <point x="151.557" y="283.275"/>
      <point x="217" y="283.275" type="curve" smooth="yes"/>
      <point x="289.091" y="283.275"/>
      <point x="359.063" y="208"/>
      <point x="434" y="208" type="curve" smooth="yes"/>
      <point x="476.426" y="208"/>
      <point x="532.281" y="254.233"/>
    </contour>
  </outline>
</glyph>
<glyph name="cent" format="2">
  <advance width="558"/>
  <unicode hex="00A2"/>
  <outline>
    <component base="c" xOffset="5"/>
    <contour>
      <point x="419.674" y="613.413" type="line"/>
      <point x="400.784" y="618.425" type="line"/>
      <point x="155.743" y="-132.701" type="line"/>
      <point x="174.759" y="-137.84" type="line"/>
    </contour>
  </outline>
  <guideline angle="165.141" x="425" y="612"/>
  <guideline angle="344.846" x="131" y="-126"/>
  <guideline angle="251.932" x="423.454" y="625"/>
</glyph>
<glyph name="sterling" format="2">
  <advance width="558"/>
  <unicode hex="00A3"/>
  <outline>
    <contour>
      <point x="147.5" y="9" type="line"/>
      <point x="167.5" y="9" type="line"/>
      <point x="167.5" y="539" type="line" smooth="yes"/>
      <point x="167.5" y="651.47"/>
      <point x="226.015" y="716"/>
      <point x="328" y="716" type="curve" smooth="yes"/>
      <point x="425.512" y="716"/>
      <point x="489.059" y="661.757"/>
      <point x="488.5" y="579" type="curve"/>
      <point x="508.5" y="579" type="line"/>
      <point x="508.5" y="673.23"/>
      <point x="436.334" y="736"/>
      <point x="328" y="736" type="curve" smooth="yes"/>
      <point x="214.612" y="736"/>
      <point x="147.5" y="662.753"/>
      <point x="147.5" y="539" type="curve" smooth="yes"/>
    </contour>
    <contour>
      <point x="523" y="20" type="line"/>
      <point x="44" y="20" type="line"/>
      <point x="44" y="0" type="line"/>
      <point x="523" y="0" type="line"/>
    </contour>
    <contour>
      <point x="44" y="434" type="line"/>
      <point x="44" y="414" type="line"/>
      <point x="367" y="414" type="line"/>
      <point x="367" y="434" type="line"/>
    </contour>
  </outline>
</glyph>
<glyph name="yen" format="2">
  <advance width="558"/>
  <unicode hex="00A5"/>
  <outline>
    <contour>
      <point x="515" y="722" type="line"/>
      <point x="493.185" y="722" type="line"/>
      <point x="276.859" y="294.367" type="line"/>
      <point x="284.813" y="294.367" type="line"/>
      <point x="67" y="722" type="line"/>
      <point x="45" y="722" type="line"/>
      <point x="264.766" y="287" type="line"/>
      <point x="270" y="287" type="line"/>
      <point x="270" y="0" type="line"/>
      <point x="290" y="0" type="line"/>
      <point x="290" y="287" type="line"/>
      <point x="293.5" y="287" type="line"/>
    </contour>
    <contour>
      <point x="269.125" y="307" type="line"/>
      <point x="14" y="307" type="line"/>
      <point x="14" y="287" type="line"/>
      <point x="280" y="287" type="line"/>
    </contour>
    <contour>
      <point x="279.737" y="287" type="line"/>
      <point x="546" y="287" type="line"/>
      <point x="546" y="307" type="line"/>
      <point x="290" y="307" type="line"/>
    </contour>
    <contour>
      <point x="172.578" y="492.5" type="line"/>
      <point x="14" y="492.5" type="line"/>
      <point x="14" y="472.5" type="line"/>
      <point x="183.283" y="472.5" type="line"/>
    </contour>
    <contour>
      <point x="377.319" y="472.5" type="line"/>
      <point x="546" y="472.5" type="line"/>
      <point x="546" y="492.5" type="line"/>
      <point x="387.204" y="492.5" type="line"/>
    </contour>
  </outline>
  <guideline angle="90" x="280" y="0"/>
  <guideline angle="90" x="270" y="0"/>
  <guideline angle="90" x="290" y="0"/>
  <guideline angle="116.937" x="254" y="354"/>
  <guideline angle="243.186" x="493" y="722"/>
</glyph>
<glyph name="section" format="2">
  <advance width="467"/>
  <unicode hex="00A7"/>
  <outline>
    <contour>
      <point x="40.4248" y="339.132" type="curve" smooth="yes"/>
      <point x="40.4248" y="313.492"/>
      <point x="56.5838" y="280.273"/>
      <point x="85.9576" y="257.045" type="curve" smooth="yes"/>
      <point x="314.532" y="76.288" type="line" smooth="yes"/>
      <point x="340.391" y="55.8387"/>
      <point x="358.5" y="28.4075"/>
      <point x="358.5" y="-14.7044" type="curve" smooth="yes"/>
      <point x="358.5" y="-93.4697"/>
      <point x="300.324" y="-131"/>
      <point x="209.028" y="-131" type="curve" smooth="yes"/>
      <point x="160.139" y="-131"/>
      <point x="102.894" y="-103.587"/>
      <point x="63" y="-59" type="curve"/>
      <point x="63" y="-84" type="line"/>
      <point x="104.11" y="-123.901"/>
      <point x="161.367" y="-149"/>
      <point x="212" y="-149" type="curve" smooth="yes"/>
      <point x="314.507" y="-149"/>
      <point x="378.512" y="-102.449"/>
      <point x="378.512" y="-8.71761" type="curve" smooth="yes"/>
      <point x="378.512" y="33.9503"/>
      <point x="357.637" y="67.9525"/>
      <point x="331.435" y="88.597" type="curve" smooth="yes"/>
      <point x="103.742" y="267.991" type="line" smooth="yes"/>
      <point x="74.203" y="291.264"/>
      <point x="60.5" y="318.187"/>
      <point x="60.5" y="342.209" type="curve" smooth="yes"/>
      <point x="60.5" y="404.515"/>
      <point x="115.44" y="444.396"/>
      <point x="216.098" y="454.772" type="curve"/>
      <point x="197.781" y="469.523" type="line"/>
      <point x="101.93" y="461.834"/>
      <point x="40.4248" y="414.414"/>
    </contour>
    <contour>
      <point x="101.5" y="589.385" type="curve" smooth="yes"/>
      <point x="101.5" y="545.105"/>
      <point x="120" y="514.889"/>
      <point x="152.383" y="490.262" type="curve" smooth="yes"/>
      <point x="376.528" y="319.803" type="line" smooth="yes"/>
      <point x="399.397" y="302.412"/>
      <point x="408.557" y="285.266"/>
      <point x="408.557" y="250.509" type="curve" smooth="yes"/>
      <point x="408.557" y="203.393"/>
      <point x="338.736" y="163.577"/>
      <point x="246.851" y="146.268" type="curve"/>
      <point x="266.459" y="131.951" type="line"/>
      <point x="374.087" y="158.774"/>
      <point x="428.557" y="197.938"/>
      <point x="428.557" y="255.915" type="curve" smooth="yes"/>
      <point x="428.557" y="287.81"/>
      <point x="414.961" y="316.863"/>
      <point x="387.766" y="337.385" type="curve" smooth="yes"/>
      <point x="162.16" y="507.629" type="line" smooth="yes"/>
      <point x="136.184" y="527.23"/>
      <point x="121.584" y="558.793"/>
      <point x="121.584" y="592.257" type="curve" smooth="yes"/>
      <point x="121.584" y="654.314"/>
      <point x="171.415" y="695"/>
      <point x="246.544" y="695" type="curve" smooth="yes"/>
      <point x="299.075" y="695"/>
      <point x="341.124" y="674.372"/>
      <point x="385" y="626.029" type="curve"/>
      <point x="385" y="651" type="line"/>
      <point x="343.168" y="693.933"/>
      <point x="300.06" y="713"/>
      <point x="245" y="713" type="curve" smooth="yes"/>
      <point x="155.536" y="713"/>
      <point x="101.5" y="666.431"/>
    </contour>
  </outline>
  <guideline angle="142.093" x="364" y="353.893"/>
  <guideline angle="324.09" x="174" y="466.241"/>
  <guideline angle="141.766" x="329" y="90.5152"/>
  <guideline angle="321.814" x="68" y="270.169"/>
</glyph>
<glyph name="dieresis" format="2">
  <advance width="362"/>
  <unicode hex="00A8"/>
  <outline>
    <contour>
      <point x="100" y="630" type="line"/>
      <point x="100" y="722" type="line"/>
      <point x="122" y="722" type="line"/>
      <point x="122" y="630" type="line"/>
    </contour>
    <contour>
      <point x="240" y="630" type="line"/>
      <point x="240" y="722" type="line"/>
      <point x="262" y="722" type="line"/>
      <point x="262" y="630" type="line"/>
    </contour>
  </outline>
</glyph>
<glyph name="logicalnot" format="2">
  <advance width="619"/>
  <unicode hex="00AC"/>
  <outline>
    <contour>
      <point x="560" y="189" type="line"/>
      <point x="540" y="189" type="line"/>
      <point x="540" y="380" type="line"/>
      <point x="40" y="380" type="line"/>
      <point x="40" y="400" type="line"/>
      <point x="560" y="400" type="line"/>
    </contour>
  </outline>
</glyph>
<glyph name="macron" format="2">
  <advance width="289"/>
  <unicode hex="00AF"/>
  <anchor x="144" y="600" name="_top"/>
  <anchor x="145" y="774" name="top.mkmk"/>
  <anchor x="145" y="750" name="_bottom"/>
  <anchor x="143" y="655" name="_top.mkmk"/>
  <outline>
    <contour>
      <point x="290" y="655.25" type="line"/>
      <point x="290" y="675" type="line"/>
      <point x="0" y="675" type="line"/>
      <point x="0" y="655.25" type="line"/>
    </contour>
  </outline>
  <guideline angle="0" x="0" y="665"/>
  <guideline angle="90" x="200" y="0"/>
  <guideline angle="90" x="145" y="0"/>
</glyph>
<glyph name="degree" format="2">
  <advance width="320"/>
  <unicode hex="00B0"/>
  <outline>
    <contour>
      <point x="160.496" y="720" type="curve" smooth="yes"/>
      <point x="221.064" y="720"/>
      <point x="270" y="671"/>
      <point x="270" y="610" type="curve" smooth="yes"/>
      <point x="270" y="550"/>
      <point x="220.071" y="500"/>
      <point x="160.496" y="500" type="curve" smooth="yes"/>
      <point x="99.9291" y="500"/>
      <point x="50" y="549"/>
      <point x="50" y="610" type="curve" smooth="yes"/>
      <point x="50" y="671"/>
      <point x="99.9291" y="720"/>
    </contour>
    <contour>
      <point x="159.305" y="520" type="curve" smooth="yes"/>
      <point x="209.027" y="520"/>
      <point x="250" y="560.973"/>
      <point x="250" y="610" type="curve" smooth="yes"/>
      <point x="250" y="660.213"/>
      <point x="210.213" y="700"/>
      <point x="161.891" y="700" type="curve" smooth="yes"/>
      <point x="112.548" y="700"/>
      <point x="70" y="658.515"/>
      <point x="70" y="608.433" type="curve" smooth="yes"/>
      <point x="70" y="559.629"/>
      <point x="110.406" y="520"/>
    </contour>
  </outline>
</glyph>
<glyph name="twosuperior" format="2">
  <advance width="353"/>
  <unicode hex="00B2"/>
  <outline>
    <contour>
      <point x="28" y="375" type="line"/>
      <point x="106.533" y="432.899" type="line" smooth="yes"/>
      <point x="252.688" y="540.655"/>
      <point x="288" y="590.09"/>
      <point x="288" y="630.863" type="curve" smooth="yes"/>
      <point x="288" y="694.551"/>
      <point x="247.402" y="725"/>
      <point x="179.045" y="725" type="curve" smooth="yes"/>
      <point x="109.163" y="725"/>
      <point x="65.083" y="688.664"/>
      <point x="57" y="624" type="curve"/>
      <point x="38" y="624" type="line"/>
      <point x="42.185" y="696.191"/>
      <point x="97.3557" y="743"/>
      <point x="175.952" y="743" type="curve" smooth="yes"/>
      <point x="261.456" y="743"/>
      <point x="308" y="706.673"/>
      <point x="308" y="629.508" type="curve" smooth="yes"/>
      <point x="308" y="586.729"/>
      <point x="280.956" y="539.053"/>
      <point x="137.522" y="433.621" type="curve" smooth="yes"/>
      <point x="39.9273" y="361.884" type="line"/>
      <point x="39.6682" y="372" type="line"/>
      <point x="301" y="372" type="line"/>
      <point x="301" y="352" type="line"/>
      <point x="28" y="352" type="line"/>
    </contour>
  </outline>
</glyph>
<glyph name="threesuperior" format="2">
  <advance width="371"/>
  <unicode hex="00B3"/>
  <outline>
    <contour>
      <point x="41" y="463" type="curve"/>
      <point x="61" y="463" type="line"/>
      <point x="68.3288" y="393.9"/>
      <point x="111.391" y="360"/>
      <point x="189.434" y="360" type="curve" smooth="yes"/>
      <point x="271.717" y="360"/>
      <point x="314" y="387.427"/>
      <point x="314" y="445.321" type="curve" smooth="yes"/>
      <point x="314" y="481.08"/>
      <point x="292" y="540.612"/>
      <point x="192.551" y="540.612" type="curve" smooth="yes"/>
      <point x="154" y="540.612" type="line"/>
      <point x="154" y="558.64" type="line"/>
      <point x="180.695" y="558.64" type="line" smooth="yes"/>
      <point x="254.757" y="558.64"/>
      <point x="297" y="598.226"/>
      <point x="297" y="635.986" type="curve" smooth="yes"/>
      <point x="297" y="694.069"/>
      <point x="266.563" y="724.68"/>
      <point x="189.276" y="724.889" type="curve" smooth="yes"/>
      <point x="121.236" y="725.073"/>
      <point x="76.1407" y="685.137"/>
      <point x="76" y="633" type="curve"/>
      <point x="56" y="633" type="line"/>
      <point x="56" y="697.426"/>
      <point x="104.324" y="743"/>
      <point x="194.338" y="743" type="curve" smooth="yes"/>
      <point x="275.772" y="743"/>
      <point x="317" y="705.7"/>
      <point x="317" y="639.054" type="curve" smooth="yes"/>
      <point x="317" y="592.097"/>
      <point x="282.584" y="557.682"/>
      <point x="225.053" y="549.626" type="curve"/>
      <point x="224.938" y="553.658" type="line"/>
      <point x="295.167" y="548.219"/>
      <point x="334" y="505.465"/>
      <point x="334" y="443.628" type="curve" smooth="yes"/>
      <point x="334" y="379.829"/>
      <point x="284.708" y="342"/>
      <point x="187.811" y="342" type="curve" smooth="yes"/>
      <point x="97.3054" y="342"/>
      <point x="44.8708" y="384.616"/>
    </contour>
  </outline>
</glyph>
<glyph name="paragraph" format="2">
  <advance width="559"/>
  <unicode hex="00B6"/>
  <outline>
    <contour>
      <point x="500" y="683" type="line"/>
      <point x="439" y="683" type="line"/>
      <point x="439" y="-160" type="line"/>
      <point x="389" y="-160" type="line"/>
      <point x="389" y="683" type="line"/>
      <point x="299" y="683" type="line"/>
      <point x="299" y="-160" type="line"/>
      <point x="249" y="-160" type="line"/>
      <point x="249" y="352" type="line"/>
      <point x="148" y="352"/>
      <point x="50" y="404"/>
      <point x="50" y="520.909" type="curve" smooth="yes"/>
      <point x="50" y="647"/>
      <point x="164" y="722"/>
      <point x="250" y="722" type="curve" smooth="yes"/>
      <point x="500" y="722" type="line"/>
    </contour>
  </outline>
</glyph>
<glyph name="periodcentered" format="2">
  <advance width="182"/>
  <unicode hex="00B7"/>
  <outline>
    <contour>
      <point x="102" y="298" type="line"/>
      <point x="80" y="298" type="line"/>
      <point x="80" y="421" type="line"/>
      <point x="102" y="421" type="line"/>
    </contour>
  </outline>
</glyph>
<glyph name="cedilla" format="2">
  <advance width="317"/>
  <unicode hex="00B8"/>
  <anchor x="123" y="10" name="_cedilla.bottom"/>
  <outline>
    <contour>
      <point x="228" y="-137.377" type="curve" smooth="yes"/>
      <point x="228" y="-87.3705"/>
      <point x="196.075" y="-53.1676"/>
      <point x="103.21" y="-53.1676" type="curve"/>
      <point x="133" y="10" type="line"/>
      <point x="113" y="10" type="line"/>
      <point x="76.077" y="-66.9231" type="line"/>
      <point x="113.912" y="-66.9231" type="line" smooth="yes"/>
      <point x="177.425" y="-66.9231"/>
      <point x="207.993" y="-92.6485"/>
      <point x="207.993" y="-138.392" type="curve" smooth="yes"/>
      <point x="207.993" y="-187.477"/>
      <point x="172.796" y="-209.694"/>
      <point x="116.349" y="-209.694" type="curve" smooth="yes"/>
      <point x="93.8009" y="-209.694"/>
      <point x="76.8493" y="-210.017"/>
      <point x="60.4799" y="-202.694" type="curve"/>
      <point x="60.4799" y="-223" type="line"/>
      <point x="74.891" y="-228.321"/>
      <point x="99.6644" y="-230"/>
      <point x="114.819" y="-230" type="curve" smooth="yes"/>
      <point x="180.776" y="-230"/>
      <point x="228" y="-198.196"/>
    </contour>
  </outline>
  <guideline angle="64.359" x="65" y="-90"/>
  <guideline angle="244.537" x="133" y="10"/>
  <guideline angle="0" x="0" y="-53"/>
  <guideline angle="0" x="0" y="-67"/>
</glyph>
<glyph name="onesuperior" format="2">
  <advance width="290"/>
  <unicode hex="00B9"/>
  <outline>
    <contour>
      <point x="217" y="352" type="line"/>
      <point x="153" y="352" type="line"/>
      <point x="153" y="667" type="line"/>
      <point x="119.471" y="641.853"/>
      <point x="84.7906" y="625.964"/>
      <point x="56" y="619" type="curve"/>
      <point x="56" y="674" type="line"/>
      <point x="78" y="682"/>
      <point x="124.872" y="706.731"/>
      <point x="139.702" y="719.526" type="curve" smooth="yes"/>
      <point x="153" y="731" type="line"/>
      <point x="217" y="731" type="line"/>
    </contour>
  </outline>
</glyph>
<glyph name="ordmasculine" format="2">
  <advance width="418"/>
  <unicode hex="00BA"/>
  <outline>
    <contour>
      <point x="46" y="525" type="curve" smooth="yes"/>
      <point x="46" y="414"/>
      <point x="100" y="341"/>
      <point x="207" y="341" type="curve" smooth="yes"/>
      <point x="314" y="341"/>
      <point x="367" y="413.727"/>
      <point x="367" y="525.727" type="curve" smooth="yes"/>
      <point x="367" y="637.727"/>
      <point x="314" y="710"/>
      <point x="207" y="710" type="curve" smooth="yes"/>
      <point x="100" y="710"/>
      <point x="46" y="637"/>
    </contour>
    <contour>
      <point x="65.8767" y="525" type="curve" smooth="yes"/>
      <point x="66.0156" y="623.011"/>
      <point x="111.693" y="692.5"/>
      <point x="206" y="692.5" type="curve" smooth="yes"/>
      <point x="300.5" y="692.5"/>
      <point x="347.118" y="623.087"/>
      <point x="347.118" y="525.273" type="curve" smooth="yes"/>
      <point x="347.118" y="426.194"/>
      <point x="302.164" y="359.5"/>
      <point x="207.219" y="359.5" type="curve" smooth="yes"/>
      <point x="111.623" y="359.5"/>
      <point x="65.7365" y="426.081"/>
    </contour>
    <contour>
      <point x="33" y="250.5" type="line"/>
      <point x="386" y="250.5" type="line"/>
      <point x="386" y="270.5" type="line"/>
      <point x="33" y="270.5" type="line"/>
    </contour>
  </outline>
</glyph>
<glyph name="guillemotright" format="2">
  <advance width="512"/>
  <unicode hex="00BB"/>
  <outline>
    <contour>
      <point x="274.701" y="57" type="line"/>
      <point x="294.701" y="57" type="line"/>
      <point x="431.701" y="252" type="line"/>
      <point x="294.701" y="447" type="line"/>
      <point x="274.701" y="447" type="line"/>
      <point x="400.99" y="241.78" type="line"/>
      <point x="400.99" y="262.22" type="line"/>
    </contour>
    <contour>
      <point x="80" y="57" type="line"/>
      <point x="100" y="57" type="line"/>
      <point x="237" y="252" type="line"/>
      <point x="100" y="447" type="line"/>
      <point x="80" y="447" type="line"/>
      <point x="206.289" y="241.78" type="line"/>
      <point x="206.289" y="262.22" type="line"/>
    </contour>
  </outline>
</glyph>
<glyph name="onequarter" format="2">
  <advance width="799"/>
  <unicode hex="00BC"/>
  <outline>
    <component base="onesuperior"/>
    <contour>
      <point x="575" y="736" type="line"/>
      <point x="551" y="736" type="line"/>
      <point x="125" y="-14" type="line"/>
      <point x="149" y="-14" type="line"/>
    </contour>
    <contour>
      <point x="453.72" y="122.172" type="line"/>
      <point x="626.833" y="362.141" type="line"/>
      <point x="621" y="372.874" type="line"/>
      <point x="621" y="0" type="line"/>
      <point x="641" y="0" type="line"/>
      <point x="641" y="390" type="line"/>
      <point x="623.572" y="390" type="line"/>
      <point x="439" y="133.347" type="line"/>
      <point x="439" y="113" type="line"/>
      <point x="724" y="113" type="line"/>
      <point x="724" y="131" type="line"/>
      <point x="455.085" y="131" type="line"/>
    </contour>
  </outline>
  <guideline angle="53.8807" x="471" y="139"/>
  <guideline angle="234.284" x="593" y="390"/>
  <guideline angle="0" x="0" y="722"/>
</glyph>
<glyph name="threequarters" format="2">
  <advance width="799"/>
  <unicode hex="00BE"/>
  <outline>
    <component base="threesuperior"/>
    <component base="fraction" xOffset="133" yOffset="1.13687e-13"/>
    <contour>
      <point x="453.72" y="122.172" type="line"/>
      <point x="626.833" y="362.141" type="line"/>
      <point x="621" y="372.874" type="line"/>
      <point x="621" y="0" type="line"/>
      <point x="641" y="0" type="line"/>
      <point x="641" y="390" type="line"/>
      <point x="623.572" y="390" type="line"/>
      <point x="439" y="133.347" type="line"/>
      <point x="439" y="113" type="line"/>
      <point x="724" y="113" type="line"/>
      <point x="724" y="131" type="line"/>
      <point x="455.085" y="131" type="line"/>
    </contour>
  </outline>
</glyph>
<glyph name="AE" format="2">
  <advance width="847"/>
  <unicode hex="00C6"/>
  <anchor x="444" y="797" name="top"/>
  <outline>
    <contour>
      <point x="40" y="0" type="line"/>
      <point x="65" y="0" type="line"/>
      <point x="428.723" y="687.409" type="line"/>
      <point x="429.142" y="722" type="line"/>
      <point x="423" y="722" type="line"/>
    </contour>
    <contour>
      <point x="173" y="227" type="line"/>
      <point x="444" y="227" type="line"/>
      <point x="444" y="247" type="line"/>
      <point x="186" y="247" type="line"/>
    </contour>
    <contour>
      <point x="451" y="0" type="line"/>
      <point x="429" y="0" type="line"/>
      <point x="429" y="722" type="line"/>
      <point x="451" y="722" type="line"/>
    </contour>
    <contour>
      <point x="429" y="0" type="line"/>
      <point x="787" y="0" type="line"/>
      <point x="787" y="18" type="line"/>
      <point x="429" y="18" type="line"/>
    </contour>
    <contour>
      <point x="429" y="359.018" type="line"/>
      <point x="767" y="359.018" type="line"/>
      <point x="767" y="378.889" type="line"/>
      <point x="429" y="378.889" type="line"/>
    </contour>
    <contour>
      <point x="429" y="704" type="line"/>
      <point x="777" y="704" type="line"/>
      <point x="777" y="722" type="line"/>
      <point x="429" y="722" type="line"/>
    </contour>
  </outline>
</glyph>
<glyph name="multiply" format="2">
  <advance width="640"/>
  <unicode hex="00D7"/>
  <outline>
    <contour>
      <point x="62" y="57" type="line"/>
      <point x="77" y="42" type="line"/>
      <point x="578" y="543" type="line"/>
      <point x="563" y="558" type="line"/>
    </contour>
    <contour>
      <point x="563.29" y="42.2899" type="line"/>
      <point x="578" y="57" type="line"/>
      <point x="77" y="558" type="line"/>
      <point x="62" y="543" type="line"/>
    </contour>
  </outline>
  <guideline angle="135" x="590" y="45"/>
  <guideline angle="315" x="50" y="555"/>
  <guideline angle="225" x="575" y="570"/>
  <guideline angle="45" x="65" y="30"/>
  <guideline angle="225" x="89" y="570"/>
  <guideline angle="135" x="590" y="531"/>
  <guideline angle="45" x="551" y="30"/>
  <guideline angle="315" x="50" y="69"/>
  <guideline angle="0" x="0" y="300"/>
  <guideline angle="90" x="320" y="0"/>
</glyph>
<glyph name="germandbls" format="2">
  <advance width="589"/>
  <unicode hex="00DF"/>
  <outline>
    <contour>
      <point x="70" y="-0.3284" type="line"/>
      <point x="92" y="-0.328419" type="line"/>
      <point x="92" y="531.507" type="line" smooth="yes"/>
      <point x="92" y="649.009"/>
      <point x="141.919" y="712"/>
      <point x="255.362" y="712" type="curve" smooth="yes"/>
      <point x="350.408" y="712"/>
      <point x="404.5" y="663.186"/>
      <point x="404.5" y="580.822" type="curve" smooth="yes"/>
      <point x="404.5" y="445.177"/>
      <point x="276.5" y="449.29"/>
      <point x="276.5" y="386.352" type="curve" smooth="yes"/>
      <point x="276.5" y="306.328"/>
      <point x="487" y="332.108"/>
      <point x="487" y="135.579" type="curve" smooth="yes"/>
      <point x="487" y="55.61"/>
      <point x="435.917" y="10"/>
      <point x="346.062" y="10" type="curve" smooth="yes"/>
      <point x="252.197" y="10"/>
      <point x="202.012" y="56.4677"/>
      <point x="201.711" y="143.29" type="curve"/>
      <point x="179.711" y="143.29" type="line"/>
      <point x="179.711" y="38.0233"/>
      <point x="245.621" y="-10"/>
      <point x="343.475" y="-10" type="curve" smooth="yes"/>
      <point x="440.978" y="-10"/>
      <point x="509" y="33.1532"/>
      <point x="509" y="148.087" type="curve" smooth="yes"/>
      <point x="509" y="333.04"/>
      <point x="298.5" y="328.228"/>
      <point x="298.5" y="389.242" type="curve" smooth="yes"/>
      <point x="298.5" y="433.272"/>
      <point x="425.5" y="441.196"/>
      <point x="425.5" y="577.973" type="curve" smooth="yes"/>
      <point x="425.5" y="675.162"/>
      <point x="361.378" y="732"/>
      <point x="255.34" y="732" type="curve" smooth="yes"/>
      <point x="132.345" y="732"/>
      <point x="70" y="666.608"/>
      <point x="70" y="537.604" type="curve" smooth="yes"/>
    </contour>
  </outline>
</glyph>
<glyph name="ae" format="2">
  <advance width="905"/>
  <unicode hex="00E6"/>
  <outline>
    <contour>
      <point x="233.066" y="-10" type="curve" smooth="yes"/>
      <point x="115.746" y="-10"/>
      <point x="59" y="37.5961"/>
      <point x="59" y="136" type="curve" smooth="yes"/>
      <point x="59" y="242.395"/>
      <point x="132.716" y="289"/>
      <point x="301" y="289" type="curve" smooth="yes"/>
      <point x="330" y="289"/>
      <point x="388.333" y="286.222"/>
      <point x="427" y="283" type="curve"/>
      <point x="422.318" y="416.789"/>
      <point x="361.297" y="492"/>
      <point x="262.281" y="492" type="curve" smooth="yes"/>
      <point x="158.395" y="492"/>
      <point x="105.971" y="452.987"/>
      <point x="105.656" y="376" type="curve"/>
      <point x="86" y="376" type="line"/>
      <point x="86" y="461.784"/>
      <point x="152.954" y="512"/>
      <point x="266.281" y="512" type="curve" smooth="yes"/>
      <point x="358.442" y="512"/>
      <point x="420.616" y="448.721"/>
      <point x="439.822" y="343.881" type="curve"/>
      <point x="470.504" y="457.051"/>
      <point x="543.184" y="512"/>
      <point x="621" y="512" type="curve" smooth="yes"/>
      <point x="749.817" y="512"/>
      <point x="814.5" y="419.979"/>
      <point x="814.5" y="280" type="curve" smooth="yes"/>
      <point x="814.5" y="263" type="line"/>
      <point x="447" y="263" type="line"/>
      <point x="447" y="104.216"/>
      <point x="517.863" y="10"/>
      <point x="637.446" y="10" type="curve" smooth="yes"/>
      <point x="726.25" y="10"/>
      <point x="776.932" y="59.8171"/>
      <point x="787" y="157" type="curve"/>
      <point x="807" y="157" type="line"/>
      <point x="794.867" y="49.0207"/>
      <point x="734.944" y="-10"/>
      <point x="637.446" y="-10" type="curve" smooth="yes"/>
      <point x="527.145" y="-10"/>
      <point x="462.651" y="50.6544"/>
      <point x="436.75" y="180.789" type="curve"/>
      <point x="418.605" y="66.6068"/>
      <point x="327.284" y="-10"/>
    </contour>
    <contour>
      <point x="427" y="263" type="line"/>
      <point x="396.812" y="265.625"/>
      <point x="326.256" y="269"/>
      <point x="305.256" y="269" type="curve" smooth="yes"/>
      <point x="134.857" y="269"/>
      <point x="79" y="237.297"/>
      <point x="79" y="138.98" type="curve" smooth="yes"/>
      <point x="79" y="49.2793"/>
      <point x="127.007" y="10"/>
      <point x="236.639" y="10" type="curve" smooth="yes"/>
      <point x="337.997" y="10"/>
      <point x="427" y="122.211"/>
      <point x="427" y="250" type="curve" smooth="yes"/>
    </contour>
    <contour>
      <point x="793" y="283" type="line"/>
      <point x="793.382" y="428.586"/>
      <point x="721.547" y="492"/>
      <point x="616" y="492" type="curve" smooth="yes"/>
      <point x="531.519" y="492"/>
      <point x="464.662" y="423.031"/>
      <point x="447" y="283" type="curve"/>
    </contour>
  </outline>
</glyph>
<glyph name="eth" format="2">
  <advance width="587"/>
  <unicode hex="00F0"/>
  <outline>
    <contour>
      <point x="68" y="254.086" type="curve" smooth="yes"/>
      <point x="68" y="90"/>
      <point x="152" y="-10"/>
      <point x="289.434" y="-10" type="curve" smooth="yes"/>
      <point x="423" y="-10"/>
      <point x="518" y="85"/>
      <point x="518" y="253.97" type="curve" smooth="yes"/>
      <point x="518" y="463.152"/>
      <point x="392.53" y="638.165"/>
      <point x="139" y="734" type="curve"/>
      <point x="123.283" y="724.884" type="line"/>
      <point x="315.141" y="646.292"/>
      <point x="412.862" y="548.24"/>
      <point x="478.138" y="402.089" type="curve"/>
      <point x="473.643" y="429.254" type="line"/>
      <point x="419.066" y="489.656"/>
      <point x="368.434" y="513"/>
      <point x="292" y="513" type="curve" smooth="yes"/>
      <point x="140" y="513"/>
      <point x="68" y="406"/>
    </contour>
    <contour>
      <point x="88" y="243.874" type="curve" smooth="yes"/>
      <point x="88" y="407.314"/>
      <point x="165.262" y="495"/>
      <point x="296.544" y="495" type="curve" smooth="yes"/>
      <point x="414.239" y="495"/>
      <point x="498" y="404.484"/>
      <point x="498" y="254" type="curve" smooth="yes"/>
      <point x="498" y="117.144"/>
      <point x="421.04" y="8"/>
      <point x="292" y="8" type="curve" smooth="yes"/>
      <point x="175.133" y="8"/>
      <point x="88" y="106.848"/>
    </contour>
    <contour>
      <point x="89.9118" y="558.156" type="line"/>
      <point x="96.5234" y="545.079" type="line"/>
      <point x="433.752" y="697.198" type="line"/>
      <point x="426.746" y="710.878" type="line"/>
    </contour>
  </outline>
  <guideline angle="210.114" x="139" y="734"/>
  <guideline angle="204.28" x="435" y="697.761"/>
  <guideline angle="204.28" x="435" y="713.821"/>
  <guideline angle="293.839" x="87.2791" y="566"/>
  <guideline angle="117.121" x="436.927" y="691"/>
</glyph>
<glyph name="divide" format="2">
  <advance width="1000"/>
  <unicode hex="00F7"/>
  <outline>
    <component base="period" xOffset="409.088" yOffset="77.7445"/>
    <component base="period" xOffset="409.088" yOffset="398.738"/>
    <contour>
      <point x="800" y="290" type="line"/>
      <point x="200" y="290" type="line"/>
      <point x="200" y="310" type="line"/>
      <point x="800" y="310" type="line"/>
    </contour>
  </outline>
</glyph>
<glyph name="oslash" format="2">
  <advance width="591"/>
  <unicode hex="00F8"/>
  <outline>
    <contour>
      <point x="109.328" y="-10" type="line"/>
      <point x="81.0583" y="-10" type="line"/>
      <point x="464.373" y="510.096" type="line"/>
      <point x="492.572" y="510" type="line"/>
    </contour>
    <contour>
      <point x="67" y="250" type="curve" smooth="yes"/>
      <point x="67" y="410.261"/>
      <point x="153.287" y="510"/>
      <point x="298" y="510" type="curve" smooth="yes"/>
      <point x="442.094" y="510"/>
      <point x="527" y="410.902"/>
      <point x="527" y="250" type="curve" smooth="yes"/>
      <point x="527" y="89.0984"/>
      <point x="442.094" y="-10"/>
      <point x="298" y="-10" type="curve" smooth="yes"/>
      <point x="153.287" y="-10"/>
      <point x="67" y="89.739"/>
    </contour>
    <contour>
      <point x="88.4952" y="250" type="curve" smooth="yes"/>
      <point x="88.4952" y="101.877"/>
      <point x="171.978" y="9.95889"/>
      <point x="297" y="9.95889" type="curve" smooth="yes"/>
      <point x="421.754" y="9.95889"/>
      <point x="505" y="101.621"/>
      <point x="505" y="250" type="curve" smooth="yes"/>
      <point x="505" y="396.305"/>
      <point x="423.695" y="490.005"/>
      <point x="297" y="490.005" type="curve" smooth="yes"/>
      <point x="172.501" y="490.005"/>
      <point x="88.4952" y="397.561"/>
    </contour>
  </outline>
  <guideline angle="0" x="0" y="510"/>
  <guideline angle="0" x="0" y="-10"/>
</glyph>
<glyph name="thorn" format="2">
  <advance width="613"/>
  <unicode hex="00FE"/>
  <outline>
    <contour>
      <point x="100" y="-200" type="line"/>
      <point x="120" y="-200" type="line"/>
      <point x="120" y="722" type="line"/>
      <point x="100" y="722" type="line"/>
    </contour>
    <contour>
      <point x="109.924" y="170.895" type="line"/>
      <point x="129.493" y="58.1596"/>
      <point x="208.413" y="-10"/>
      <point x="315.161" y="-10" type="curve" smooth="yes"/>
      <point x="440.682" y="-10"/>
      <point x="533" y="84.2416"/>
      <point x="533" y="254.994" type="curve" smooth="yes"/>
      <point x="533" y="425.319"/>
      <point x="441.043" y="512"/>
      <point x="310" y="512" type="curve" smooth="yes"/>
      <point x="215.98" y="512"/>
      <point x="129.625" y="443.73"/>
      <point x="109.924" y="337.891" type="curve"/>
    </contour>
    <contour>
      <point x="120" y="262" type="curve" smooth="yes"/>
      <point x="120" y="421.965"/>
      <point x="225.583" y="492"/>
      <point x="307.257" y="492" type="curve" smooth="yes"/>
      <point x="429.757" y="492"/>
      <point x="513" y="416.677"/>
      <point x="513" y="257.376" type="curve" smooth="yes"/>
      <point x="513" y="95.4855"/>
      <point x="427.683" y="10"/>
      <point x="313.331" y="10" type="curve" smooth="yes"/>
      <point x="193.558" y="10"/>
      <point x="120" y="103.783"/>
    </contour>
  </outline>
</glyph>
<glyph name="Hbar" format="2">
  <advance width="669"/>
  <unicode hex="0126"/>
  <outline>
    <component base="H" xOffset="-10"/>
    <contour>
      <point x="10" y="539" type="line"/>
      <point x="590" y="539" type="line"/>
      <point x="590" y="559" type="line"/>
      <point x="10" y="559" type="line"/>
    </contour>
  </outline>
</glyph>
<glyph name="kgreenlandic" format="2">
  <advance width="549"/>
  <unicode hex="0138"/>
  <outline>
    <contour>
      <point x="509" y="0" type="line"/>
      <point x="390" y="0" type="line"/>
      <point x="190" y="267" type="line"/>
      <point x="190" y="0" type="line"/>
      <point x="100" y="0" type="line"/>
      <point x="100" y="470" type="line"/>
      <point x="190" y="500" type="line"/>
      <point x="190" y="292" type="line"/>
      <point x="380" y="500" type="line"/>
      <point x="493" y="500" type="line"/>
      <point x="293" y="282" type="line"/>
    </contour>
  </outline>
</glyph>
<glyph name="lslash" format="2">
  <advance width="474"/>
  <unicode hex="0142"/>
  <outline>
    <component base="I" xOffset="144"/>
    <contour>
      <point x="100" y="285" type="line"/>
      <point x="100" y="255" type="line"/>
      <point x="374" y="523" type="line"/>
      <point x="374" y="553" type="line"/>
    </contour>
  </outline>
</glyph>
<glyph name="Eng" format="2">
  <advance width="683"/>
  <unicode hex="014A"/>
  <outline>
    <component base="N"/>
    <contour>
      <point x="580.07" y="20" type="line"/>
      <point x="580.07" y="-62" type="line" smooth="yes"/>
      <point x="580.07" y="-142.711"/>
      <point x="533.978" y="-200"/>
      <point x="469.44" y="-200" type="curve" smooth="yes"/>
      <point x="409.359" y="-200"/>
      <point x="370.817" y="-183.518"/>
      <point x="340" y="-143" type="curve"/>
      <point x="354.867" y="-128.133" type="line"/>
      <point x="377.481" y="-159.636"/>
      <point x="416.755" y="-180.094"/>
      <point x="459.561" y="-180.094" type="curve" smooth="yes"/>
      <point x="524.33" y="-180.094"/>
      <point x="558.318" y="-133.255"/>
      <point x="558.318" y="-62" type="curve" smooth="yes"/>
      <point x="558.318" y="20" type="line"/>
    </contour>
  </outline>
  <guideline angle="45" x="340" y="-143"/>
</glyph>
<glyph name="eng" format="2">
  <advance width="635"/>
  <unicode hex="014B"/>
  <outline>
    <component base="n"/>
    <contour>
      <point x="251.761" y="-143" type="curve"/>
      <point x="308.537" y="-86" type="line"/>
      <point x="329.455" y="-115"/>
      <point x="354.357" y="-130"/>
      <point x="383.243" y="-130" type="curve" smooth="yes"/>
      <point x="420.098" y="-130"/>
      <point x="445" y="-101"/>
      <point x="445" y="-62" type="curve" smooth="yes"/>
      <point x="445" y="50" type="line"/>
      <point x="535" y="50" type="line"/>
      <point x="535" y="-62" type="line" smooth="yes"/>
      <point x="535" y="-146"/>
      <point x="475.337" y="-200"/>
      <point x="389.22" y="-200" type="curve" smooth="yes"/>
      <point x="332.443" y="-200"/>
      <point x="286.624" y="-181"/>
    </contour>
  </outline>
</glyph>
<glyph name="OE" format="2">
  <advance width="1004"/>
  <unicode hex="0152"/>
  <outline>
    <component base="E" xOffset="465.027" yOffset="-1"/>
    <contour>
      <point x="398" y="712" type="line"/>
      <point x="454.981" y="712"/>
      <point x="503.659" y="708.538"/>
      <point x="544.672" y="700.679" type="curve"/>
      <point x="544.672" y="721.101" type="line"/>
      <point x="505.244" y="728.293"/>
      <point x="442.915" y="732"/>
      <point x="398" y="732" type="curve"/>
    </contour>
    <contour>
      <point x="398" y="-10" type="line"/>
      <point x="476.844" y="-10"/>
      <point x="508.439" y="-7.5536"/>
      <point x="543.752" y="0.943801" type="curve"/>
      <point x="543.563" y="24.7723" type="line"/>
      <point x="505.575" y="13.1756"/>
      <point x="469" y="10"/>
      <point x="398" y="10" type="curve"/>
    </contour>
    <contour>
      <point x="100" y="361" type="curve" smooth="yes"/>
      <point x="100" y="143"/>
      <point x="180" y="-10"/>
      <point x="398" y="-10" type="curve"/>
      <point x="398" y="9.53642" type="line"/>
      <point x="198" y="9.53642"/>
      <point x="122" y="161"/>
      <point x="122" y="361" type="curve" smooth="yes"/>
      <point x="122" y="561"/>
      <point x="198" y="712"/>
      <point x="398" y="712" type="curve"/>
      <point x="398" y="732" type="line"/>
      <point x="180" y="732"/>
      <point x="100" y="579"/>
    </contour>
  </outline>
</glyph>
<glyph name="tbar" format="2">
  <advance width="363"/>
  <unicode hex="0167"/>
  <outline>
    <contour>
      <point x="24" y="271" type="line"/>
      <point x="264" y="271" type="line"/>
      <point x="264" y="291" type="line"/>
      <point x="24" y="291" type="line"/>
    </contour>
    <contour>
      <point x="147.011" y="70.7953" type="curve" smooth="yes"/>
      <point x="147.011" y="636" type="line"/>
      <point x="127" y="627.504" type="line"/>
      <point x="127" y="73.7953" type="line" smooth="yes"/>
      <point x="127" y="17.7681"/>
      <point x="149.214" y="-10"/>
      <point x="194.467" y="-10" type="curve" smooth="yes"/>
      <point x="212.451" y="-10"/>
      <point x="240.119" y="-6.56984"/>
      <point x="257.011" y="0" type="curve"/>
      <point x="257.011" y="20" type="line"/>
      <point x="237.011" y="14"/>
      <point x="216.011" y="10"/>
      <point x="198.907" y="10" type="curve" smooth="yes"/>
      <point x="161.946" y="10"/>
      <point x="147.011" y="28.6811"/>
    </contour>
    <contour>
      <point x="132.011" y="480" type="line"/>
      <point x="257.011" y="480" type="line"/>
      <point x="257.011" y="500" type="line"/>
      <point x="132.011" y="500" type="line"/>
    </contour>
    <contour>
      <point x="142" y="500" type="line"/>
      <point x="37" y="500" type="line"/>
      <point x="37" y="480" type="line"/>
      <point x="142" y="480" type="line"/>
    </contour>
  </outline>
</glyph>
<glyph name="Utilde" format="2">
  <advance width="654"/>
  <unicode hex="0168"/>
  <anchor x="327" y="797" name="top"/>
  <anchor x="327" y="-50" name="bottom"/>
  <anchor x="323" y="977" name="top.mkmk"/>
  <outline>
    <contour>
      <point x="70" y="322" type="curve" smooth="yes"/>
      <point x="70" y="722" type="line"/>
      <point x="92" y="722" type="line"/>
      <point x="92" y="312" type="line" smooth="yes"/>
      <point x="92" y="88.2097"/>
      <point x="168.388" y="7.63904"/>
      <point x="331.263" y="7.63904" type="curve" smooth="yes"/>
      <point x="490.044" y="7.63904"/>
      <point x="562" y="84.2099"/>
      <point x="562" y="312" type="curve" smooth="yes"/>
      <point x="562" y="722" type="line"/>
      <point x="584" y="722" type="line"/>
      <point x="584" y="322" type="line" smooth="yes"/>
      <point x="584" y="74.5723"/>
      <point x="509.629" y="-12"/>
      <point x="329.556" y="-12" type="curve" smooth="yes"/>
      <point x="142.115" y="-12"/>
      <point x="70" y="81.801"/>
    </contour>
    <contour>
      <point x="177" y="815" type="line"/>
      <point x="185.644" y="856.106"/>
      <point x="215.166" y="879.207"/>
      <point x="261.051" y="879.207" type="curve" smooth="yes"/>
      <point x="280.491" y="879.207"/>
      <point x="294.267" y="875.061"/>
      <point x="323.05" y="859.946" type="curve"/>
      <point x="323.273" y="836.54" type="line"/>
      <point x="299.976" y="851.601"/>
      <point x="277.78" y="859"/>
      <point x="256.465" y="859" type="curve" smooth="yes"/>
      <point x="225.553" y="859"/>
      <point x="203.424" y="843.44"/>
      <point x="197" y="815" type="curve"/>
    </contour>
    <contour>
      <point x="469.273" y="881.207" type="line"/>
      <point x="460.629" y="840.102"/>
      <point x="431.107" y="817"/>
      <point x="386.112" y="817" type="curve" smooth="yes"/>
      <point x="367.022" y="817"/>
      <point x="353.888" y="821.158"/>
      <point x="323.223" y="837.261" type="curve"/>
      <point x="323" y="859.668" type="line"/>
      <point x="345.569" y="845.076"/>
      <point x="367.886" y="837.207"/>
      <point x="389.844" y="837.207" type="curve" smooth="yes"/>
      <point x="420.72" y="837.207"/>
      <point x="442.849" y="852.767"/>
      <point x="449.273" y="881.207" type="curve"/>
    </contour>
  </outline>
  <guideline angle="90" x="327" y="0"/>
</glyph>
<glyph name="utilde" format="2">
  <advance width="584"/>
  <unicode hex="0169"/>
  <anchor x="292" y="580" name="top"/>
  <anchor x="292" y="-87" name="bottom"/>
  <anchor x="288" y="760" name="top.mkmk"/>
  <anchor x="282" y="580" name="_top.mkmk"/>
  <anchor x="292" y="580" name="_top"/>
  <outline>
    <contour>
      <point x="463.886" y="500" type="line"/>
      <point x="463.886" y="0" type="line"/>
      <point x="484" y="0" type="line"/>
      <point x="484" y="500" type="line"/>
    </contour>
    <contour>
      <point x="100" y="174" type="line" smooth="yes"/>
      <point x="100" y="53.0055"/>
      <point x="161.889" y="-10"/>
      <point x="280.911" y="-10" type="curve" smooth="yes"/>
      <point x="363.882" y="-10"/>
      <point x="435.638" y="48.5288"/>
      <point x="463.886" y="119" type="curve" smooth="yes"/>
      <point x="473.886" y="143.947" type="line"/>
      <point x="473.886" y="193.745" type="line"/>
      <point x="463.886" y="194.284" type="line"/>
      <point x="463.995" y="96.8939"/>
      <point x="369.625" y="9.98976"/>
      <point x="285.769" y="9.98976" type="curve" smooth="yes"/>
      <point x="173.62" y="9.98976"/>
      <point x="120" y="62.5888"/>
      <point x="120" y="172" type="curve" smooth="yes"/>
      <point x="120" y="500" type="line"/>
      <point x="100" y="500" type="line"/>
    </contour>
    <contour>
      <point x="162" y="598" type="line"/>
      <point x="168.424" y="626.44"/>
      <point x="190.553" y="642"/>
      <point x="221.465" y="642" type="curve" smooth="yes"/>
      <point x="242.78" y="642"/>
      <point x="264.976" y="634.601"/>
      <point x="288.273" y="619.54" type="curve"/>
      <point x="288.05" y="642.946" type="line"/>
      <point x="259.267" y="658.061"/>
      <point x="245.491" y="662.207"/>
      <point x="226.051" y="662.207" type="curve" smooth="yes"/>
      <point x="180.166" y="662.207"/>
      <point x="150.644" y="639.106"/>
      <point x="142" y="598" type="curve"/>
    </contour>
    <contour>
      <point x="414.273" y="664.207" type="line"/>
      <point x="407.849" y="635.767"/>
      <point x="385.72" y="620.207"/>
      <point x="354.844" y="620.207" type="curve" smooth="yes"/>
      <point x="332.886" y="620.207"/>
      <point x="310.569" y="628.076"/>
      <point x="288" y="642.668" type="curve"/>
      <point x="288.223" y="620.261" type="line"/>
      <point x="318.888" y="604.158"/>
      <point x="332.022" y="600"/>
      <point x="351.112" y="600" type="curve" smooth="yes"/>
      <point x="396.107" y="600"/>
      <point x="425.629" y="623.102"/>
      <point x="434.273" y="664.207" type="curve"/>
    </contour>
  </outline>
  <guideline angle="90" x="292" y="0"/>
</glyph>
<glyph name="uni01C0" format="2">
  <advance width="344"/>
  <unicode hex="01C0"/>
  <outline>
    <contour>
      <point x="183.5" y="-258" type="line"/>
      <point x="183.5" y="796" type="line"/>
      <point x="161.5" y="796" type="line"/>
      <point x="161.5" y="-258" type="line"/>
    </contour>
  </outline>
</glyph>
<glyph name="uni01C1" format="2">
  <advance width="688"/>
  <unicode hex="01C1"/>
  <outline>
    <contour>
      <point x="183.5" y="-258" type="line"/>
      <point x="183.5" y="796" type="line"/>
      <point x="161.5" y="796" type="line"/>
      <point x="161.5" y="-258" type="line"/>
    </contour>
    <contour>
      <point x="527.5" y="-258" type="line"/>
      <point x="527.5" y="796" type="line"/>
      <point x="505.5" y="796" type="line"/>
      <point x="505.5" y="-258" type="line"/>
    </contour>
  </outline>
</glyph>
<glyph name="uni01C2" format="2">
  <advance width="405"/>
  <unicode hex="01C2"/>
  <outline>
    <contour>
      <point x="191.5" y="0" type="line"/>
      <point x="213.5" y="0" type="line"/>
      <point x="213.5" y="736" type="line"/>
      <point x="191.5" y="736" type="line"/>
    </contour>
    <contour>
      <point x="19" y="448.5" type="line"/>
      <point x="19" y="428.5" type="line"/>
      <point x="385" y="428.5" type="line"/>
      <point x="385" y="448.5" type="line"/>
    </contour>
    <contour>
      <point x="19" y="307.5" type="line"/>
      <point x="19" y="287.5" type="line"/>
      <point x="385" y="287.5" type="line"/>
      <point x="385" y="307.5" type="line"/>
    </contour>
  </outline>
</glyph>
<glyph name="uni01DD" format="2">
  <advance width="615"/>
  <unicode hex="01DD"/>
  <outline>
    <contour>
      <point x="535" y="248" type="curve" smooth="yes"/>
      <point x="535" y="93"/>
      <point x="461" y="-14"/>
      <point x="304" y="-14" type="curve" smooth="yes"/>
      <point x="161" y="-14"/>
      <point x="81" y="75"/>
      <point x="81" y="216" type="curve" smooth="yes"/>
      <point x="81" y="262" type="line"/>
      <point x="441" y="262" type="line"/>
      <point x="441" y="364"/>
      <point x="391" y="447"/>
      <point x="296" y="447" type="curve" smooth="yes"/>
      <point x="225" y="447"/>
      <point x="182" y="400"/>
      <point x="176" y="338" type="curve"/>
      <point x="80" y="338" type="line"/>
      <point x="100" y="443"/>
      <point x="177" y="512"/>
      <point x="304" y="512" type="curve" smooth="yes"/>
      <point x="467" y="512"/>
      <point x="535" y="396"/>
    </contour>
    <contour>
      <point x="441" y="197" type="curve"/>
      <point x="175" y="197" type="line"/>
      <point x="175" y="137"/>
      <point x="200" y="51"/>
      <point x="304" y="51" type="curve" smooth="yes"/>
      <point x="382" y="51"/>
      <point x="441" y="99"/>
    </contour>
  </outline>
</glyph>
<glyph name="uni0251" format="2">
  <advance width="646"/>
  <unicode hex="0251"/>
  <outline>
    <contour>
      <point x="309.607" y="10" type="curve" smooth="yes"/>
      <point x="431.118" y="10"/>
      <point x="519" y="111.402"/>
      <point x="519" y="241.219" type="curve" smooth="yes"/>
      <point x="519" y="398.013"/>
      <point x="438.419" y="489.971"/>
      <point x="301.536" y="489.971" type="curve" smooth="yes"/>
      <point x="184.943" y="489.971"/>
      <point x="100.369" y="392.667"/>
      <point x="100.369" y="253.317" type="curve" smooth="yes"/>
      <point x="100.369" y="111.385"/>
      <point x="188.106" y="10"/>
    </contour>
    <contour>
      <point x="546" y="0.375" type="line"/>
      <point x="526" y="0.375" type="line"/>
      <point x="526" y="165.493" type="line"/>
      <point x="494.797" y="45.6873"/>
      <point x="415.424" y="-10"/>
      <point x="316.226" y="-10" type="curve" smooth="yes"/>
      <point x="178.028" y="-10"/>
      <point x="80" y="98.0824"/>
      <point x="80" y="248.01" type="curve" smooth="yes"/>
      <point x="80" y="405.208"/>
      <point x="161.871" y="510"/>
      <point x="307.114" y="510" type="curve" smooth="yes"/>
      <point x="434.844" y="510"/>
      <point x="509.758" y="428.957"/>
      <point x="526" y="340.665" type="curve"/>
      <point x="526" y="500" type="line"/>
      <point x="546" y="499.778" type="line"/>
    </contour>
  </outline>
</glyph>
<glyph name="uni0253" format="2">
  <advance width="646"/>
  <unicode hex="0253"/>
  <outline>
    <component base="uni0252" xOffset="60"/>
    <contour>
      <point x="100" y="380" type="line"/>
      <point x="120" y="380" type="line"/>
      <point x="120" y="540.215" type="line" smooth="yes"/>
      <point x="120" y="649.294"/>
      <point x="183.88" y="712"/>
      <point x="303.193" y="712" type="curve" smooth="yes"/>
      <point x="359.277" y="712"/>
      <point x="403.923" y="698.145"/>
      <point x="435.754" y="668.318" type="curve"/>
      <point x="451" y="683" type="line"/>
      <point x="414.916" y="716.352"/>
      <point x="365.098" y="732"/>
      <point x="304.593" y="732" type="curve" smooth="yes"/>
      <point x="175.216" y="732"/>
      <point x="100" y="660.453"/>
      <point x="100" y="545" type="curve" smooth="yes"/>
    </contour>
  </outline>
  <guideline angle="223.919" x="451" y="683"/>
</glyph>
<glyph name="uni0256" format="2">
  <advance width="651"/>
  <unicode hex="0256"/>
  <outline>
    <component base="d"/>
    <contour>
      <point x="501" y="134" type="line"/>
      <point x="501" y="-60" type="line" smooth="yes"/>
      <point x="501" y="-144"/>
      <point x="560" y="-199"/>
      <point x="647" y="-199" type="curve" smooth="yes"/>
      <point x="704" y="-199"/>
      <point x="750" y="-180"/>
      <point x="785" y="-142" type="curve"/>
      <point x="728" y="-85" type="line"/>
      <point x="707" y="-114"/>
      <point x="682" y="-129"/>
      <point x="653" y="-129" type="curve" smooth="yes"/>
      <point x="619" y="-129"/>
      <point x="591" y="-103"/>
      <point x="591" y="-61" type="curve" smooth="yes"/>
      <point x="591" y="134" type="line"/>
    </contour>
  </outline>
</glyph>
<glyph name="uni0257" format="2">
  <advance width="611"/>
  <unicode hex="0257"/>
  <outline>
    <component base="uni0251"/>
    <contour>
      <point x="526" y="380" type="line"/>
      <point x="526" y="545" type="line" smooth="yes"/>
      <point x="526" y="660.453"/>
      <point x="601.216" y="732"/>
      <point x="730.593" y="732" type="curve" smooth="yes"/>
      <point x="791.098" y="732"/>
      <point x="840.916" y="716.352"/>
      <point x="877" y="683" type="curve"/>
      <point x="861.754" y="668.318" type="line"/>
      <point x="829.923" y="698.145"/>
      <point x="785.277" y="712"/>
      <point x="729.193" y="712" type="curve" smooth="yes"/>
      <point x="609.88" y="712"/>
      <point x="546" y="649.294"/>
      <point x="546" y="540.215" type="curve" smooth="yes"/>
      <point x="546" y="380" type="line"/>
    </contour>
  </outline>
</glyph>
<glyph name="uni025A" format="2">
  <advance width="766"/>
  <unicode hex="025A"/>
  <anchor x="308" y="-82" name="top"/>
  <anchor x="308" y="587" name="bottom"/>
  <anchor x="308" y="498" name="cedilla.bottom"/>
  <outline>
    <contour>
      <point x="506" y="246.244" type="curve" smooth="yes"/>
      <point x="506" y="410.245"/>
      <point x="416.922" y="508"/>
      <point x="267.479" y="508" type="curve" smooth="yes"/>
      <point x="149.099" y="508"/>
      <point x="70.989" y="446.943"/>
      <point x="50" y="338" type="curve"/>
      <point x="69.9387" y="338" type="line"/>
      <point x="94.6383" y="438.678"/>
      <point x="157.83" y="488"/>
      <point x="262.121" y="488" type="curve" smooth="yes"/>
      <point x="403.997" y="488"/>
      <point x="484.701" y="399.031"/>
      <point x="484.701" y="242.626" type="curve" smooth="yes"/>
      <point x="484.701" y="94.7132"/>
      <point x="403.68" y="6"/>
      <point x="268.592" y="6" type="curve" smooth="yes"/>
      <point x="164.9" y="6"/>
      <point x="97.4617" y="61.1756"/>
      <point x="77.3566" y="162.462" type="curve"/>
      <point x="57.3476" y="152.946" type="line"/>
      <point x="79.8007" y="47.7588"/>
      <point x="159.947" y="-14"/>
      <point x="274" y="-14" type="curve" smooth="yes"/>
      <point x="418.634" y="-14"/>
      <point x="506" y="84.002"/>
    </contour>
    <contour>
      <point x="70.0358" y="137.201" type="line"/>
      <point x="591.911" y="390.52" type="line"/>
      <point x="575.755" y="400.16" type="line"/>
      <point x="575.755" y="301.173" type="line" smooth="yes"/>
      <point x="575.755" y="241.384"/>
      <point x="604.881" y="213"/>
      <point x="666.233" y="213" type="curve" smooth="yes"/>
      <point x="719.433" y="213"/>
      <point x="753.033" y="252.957"/>
      <point x="752.5" y="319" type="curve"/>
      <point x="732.5" y="319" type="line"/>
      <point x="733.181" y="264.513"/>
      <point x="707.348" y="231.126"/>
      <point x="666.593" y="231" type="curve" smooth="yes"/>
      <point x="617.333" y="230.848"/>
      <point x="595.956" y="252.912"/>
      <point x="595.969" y="303" type="curve" smooth="yes"/>
      <point x="596" y="414.711" type="line"/>
      <point x="62.1319" y="155.269" type="line"/>
    </contour>
  </outline>
  <guideline angle="205.918" x="630" y="431.233"/>
  <guideline angle="90" x="596" y="0"/>
</glyph>
<glyph name="uni0260" format="2">
  <advance width="621"/>
  <unicode hex="0260"/>
  <outline>
    <component base="g"/>
    <contour>
      <point x="503" y="400" type="line"/>
      <point x="523" y="400" type="line"/>
      <point x="523" y="544.958" type="line" smooth="yes"/>
      <point x="523" y="601.516"/>
      <point x="543.102" y="619.918"/>
      <point x="586.68" y="619.918" type="curve" smooth="yes"/>
      <point x="603" y="619.918"/>
      <point x="619" y="615.918"/>
      <point x="634" y="606.918" type="curve"/>
      <point x="634" y="623" type="line"/>
      <point x="619" y="633"/>
      <point x="602.626" y="638"/>
      <point x="582.266" y="638" type="curve" smooth="yes"/>
      <point x="518.288" y="638"/>
      <point x="503" y="600.259"/>
      <point x="503" y="536.958" type="curve" smooth="yes"/>
    </contour>
  </outline>
</glyph>
<glyph name="uni0263" format="2">
  <advance width="530"/>
  <unicode hex="0263"/>
  <outline>
    <contour>
      <point x="261.835" y="62.4603" type="curve"/>
      <point x="282.821" y="27.0483"/>
      <point x="328.5" y="-74.5792"/>
      <point x="328.5" y="-99.377" type="curve" smooth="yes"/>
      <point x="328.5" y="-146.683"/>
      <point x="301.106" y="-179"/>
      <point x="264" y="-179" type="curve" smooth="yes"/>
      <point x="228.936" y="-179"/>
      <point x="199.5" y="-146.688"/>
      <point x="199.5" y="-103.038" type="curve" smooth="yes"/>
      <point x="199.5" y="-78.4517"/>
      <point x="235.088" y="21.8774"/>
    </contour>
    <contour>
      <point x="470.5" y="500" type="line"/>
      <point x="446.325" y="500" type="line"/>
      <point x="260" y="101.745" type="line"/>
      <point x="265" y="101.745" type="line"/>
      <point x="76.1217" y="500" type="line"/>
      <point x="52.3401" y="500" type="line"/>
      <point x="251.146" y="84.8615" type="line"/>
      <point x="215.998" y="19.7118"/>
      <point x="179.5" y="-69.3919"/>
      <point x="179.5" y="-105.454" type="curve" smooth="yes"/>
      <point x="179.5" y="-152.232"/>
      <point x="209.767" y="-197"/>
      <point x="264.971" y="-197" type="curve" smooth="yes"/>
      <point x="318.013" y="-197"/>
      <point x="348.5" y="-152.491"/>
      <point x="348.5" y="-105.256" type="curve" smooth="yes"/>
      <point x="348.5" y="-69.6655"/>
      <point x="305.373" y="27.1138"/>
      <point x="272.505" y="83.5314" type="curve"/>
    </contour>
  </outline>
  <guideline angle="112.348" x="228.478" y="140"/>
  <guideline angle="293.939" x="48.7934" y="500"/>
  <guideline angle="247.925" x="440.744" y="500"/>
  <guideline angle="66.0609" x="274" y="45"/>
</glyph>
<glyph name="uni0267" format="2">
  <advance width="574"/>
  <unicode hex="0267"/>
  <outline>
    <contour>
      <point x="100" y="0" type="line"/>
      <point x="80" y="0" type="line"/>
      <point x="80" y="462" type="line"/>
      <point x="100" y="462" type="line"/>
    </contour>
    <contour>
      <point x="80" y="380" type="line"/>
      <point x="80" y="545" type="line" smooth="yes"/>
      <point x="80" y="660.453"/>
      <point x="155.216" y="732"/>
      <point x="284.593" y="732" type="curve" smooth="yes"/>
      <point x="345.098" y="732"/>
      <point x="394.916" y="716.352"/>
      <point x="431" y="683" type="curve"/>
      <point x="415.754" y="668.318" type="line"/>
      <point x="383.923" y="698.145"/>
      <point x="339.277" y="712"/>
      <point x="283.193" y="712" type="curve" smooth="yes"/>
      <point x="163.88" y="712"/>
      <point x="100" y="649.294"/>
      <point x="100" y="540.215" type="curve" smooth="yes"/>
      <point x="100" y="380" type="line"/>
    </contour>
    <contour>
      <point x="465" y="134" type="line"/>
      <point x="465" y="-75.0251" type="line" smooth="yes"/>
      <point x="465" y="-155.86"/>
      <point x="430.634" y="-199"/>
      <point x="366.242" y="-199" type="curve" smooth="yes"/>
      <point x="321.682" y="-199"/>
      <point x="289.696" y="-184.339"/>
      <point x="258.841" y="-150.159" type="curve"/>
      <point x="272.829" y="-136.171" type="line"/>
      <point x="293.891" y="-164.193"/>
      <point x="324.726" y="-178.938"/>
      <point x="363.522" y="-178.938" type="curve" smooth="yes"/>
      <point x="417.455" y="-178.938"/>
      <point x="445" y="-145.578"/>
      <point x="445" y="-76.0251" type="curve" smooth="yes"/>
      <point x="445" y="134" type="line"/>
    </contour>
    <contour>
      <point x="90" y="402.327" type="line"/>
      <point x="100" y="420" type="line" smooth="yes"/>
      <point x="130.75" y="474.346"/>
      <point x="208.947" y="510"/>
      <point x="273" y="510" type="curve" smooth="yes"/>
      <point x="392.03" y="510"/>
      <point x="465" y="441.495"/>
      <point x="465" y="312" type="curve" smooth="yes"/>
      <point x="465" y="0" type="line"/>
      <point x="445" y="0" type="line"/>
      <point x="445" y="315.893" type="line" smooth="yes"/>
      <point x="445" y="431.284"/>
      <point x="379.198" y="490"/>
      <point x="269.535" y="490" type="curve" smooth="yes"/>
      <point x="195.865" y="490"/>
      <point x="109.434" y="441.097"/>
      <point x="100" y="376" type="curve"/>
      <point x="90" y="376.185" type="line"/>
    </contour>
  </outline>
  <guideline angle="90" x="80" y="0"/>
  <guideline angle="90" x="100" y="0"/>
</glyph>
<glyph name="uni026B" format="2">
  <advance width="466"/>
  <unicode hex="026B"/>
  <outline>
    <component base="l" xOffset="108"/>
    <contour>
      <point x="59.6949" y="362" type="curve"/>
      <point x="114.695" y="362" type="line"/>
      <point x="117.695" y="389"/>
      <point x="132.695" y="403"/>
      <point x="149.695" y="403" type="curve" smooth="yes"/>
      <point x="171.695" y="403"/>
      <point x="189.462" y="396.702"/>
      <point x="204.353" y="386.402" type="curve" smooth="yes"/>
      <point x="213.095" y="380.356" type="line"/>
      <point x="212.695" y="440" type="line"/>
      <point x="204.775" y="443.741" type="line" smooth="yes"/>
      <point x="183.268" y="453.901"/>
      <point x="163.288" y="460"/>
      <point x="144.695" y="460" type="curve" smooth="yes"/>
      <point x="105.695" y="460"/>
      <point x="65.6949" y="424"/>
    </contour>
    <contour>
      <point x="223.558" y="413.223" type="line"/>
      <point x="223.731" y="355.621" type="line"/>
      <point x="234.056" y="350.731" type="line" smooth="yes"/>
      <point x="261.56" y="337.705"/>
      <point x="277.581" y="334"/>
      <point x="297" y="334" type="curve" smooth="yes"/>
      <point x="342" y="334"/>
      <point x="375" y="377"/>
      <point x="380" y="432" type="curve"/>
      <point x="325" y="432" type="line"/>
      <point x="321" y="405"/>
      <point x="308" y="391"/>
      <point x="291" y="391" type="curve" smooth="yes"/>
      <point x="279" y="391"/>
      <point x="265.916" y="395.307"/>
      <point x="238.181" y="407.038" type="curve" smooth="yes"/>
    </contour>
  </outline>
</glyph>
<glyph name="uni026C" format="2">
  <advance width="522"/>
  <unicode hex="026C"/>
  <outline>
    <component base="l" xOffset="145"/>
    <contour>
      <point x="248.442" y="331.823" type="line"/>
      <point x="153.944" y="342.251"/>
      <point x="116" y="374.313"/>
      <point x="116" y="412.572" type="curve" smooth="yes"/>
      <point x="116" y="443"/>
      <point x="140" y="462"/>
      <point x="176.721" y="462" type="curve" smooth="yes"/>
      <point x="193.4" y="462"/>
      <point x="232.357" y="451.29"/>
      <point x="251.677" y="443.45" type="curve"/>
      <point x="251.151" y="491.281" type="line"/>
      <point x="225.389" y="503.9"/>
      <point x="178.607" y="517"/>
      <point x="151.376" y="517" type="curve" smooth="yes"/>
      <point x="81.0519" y="517"/>
      <point x="37" y="474.918"/>
      <point x="37" y="415.54" type="curve" smooth="yes"/>
      <point x="37" y="329.706"/>
      <point x="129.052" y="288.699"/>
      <point x="247.86" y="281.178" type="curve"/>
    </contour>
    <contour>
      <point x="261.903" y="281.874" type="line"/>
      <point x="328.737" y="287.304"/>
      <point x="380.01" y="308.252"/>
      <point x="430" y="346" type="curve"/>
      <point x="392" y="386" type="line"/>
      <point x="353.031" y="354.825"/>
      <point x="304.204" y="335.01"/>
      <point x="261.583" y="332.992" type="curve"/>
    </contour>
  </outline>
</glyph>
<glyph name="uni026D" format="2">
  <advance width="282"/>
  <unicode hex="026D"/>
  <outline>
    <component base="l"/>
    <contour>
      <point x="291" y="-199.87" type="line"/>
      <point x="238.558" y="-199.87" type="line" smooth="yes"/>
      <point x="130.263" y="-199.87"/>
      <point x="100" y="-164.857"/>
      <point x="100" y="-39.7593" type="curve" smooth="yes"/>
      <point x="100" y="40" type="line"/>
      <point x="120" y="40" type="line"/>
      <point x="120" y="-40" type="line" smooth="yes"/>
      <point x="120" y="-155.739"/>
      <point x="142.492" y="-179.759"/>
      <point x="248.611" y="-179.759" type="curve" smooth="yes"/>
      <point x="291" y="-179.759" type="line"/>
    </contour>
  </outline>
</glyph>
<glyph name="uni0270" format="2">
  <advance width="886"/>
  <unicode hex="0270"/>
  <outline>
    <contour>
      <point x="766" y="-197" type="line"/>
      <point x="786" y="-197" type="line"/>
      <point x="786" y="0" type="line"/>
      <point x="766" y="0" type="line"/>
    </contour>
    <contour>
      <point x="451" y="193.126" type="curve" smooth="yes"/>
      <point x="451" y="500" type="line"/>
      <point x="431" y="500" type="line"/>
      <point x="431" y="194" type="line" smooth="yes"/>
      <point x="431" y="96.2968"/>
      <point x="352.582" y="10"/>
      <point x="263.799" y="10" type="curve" smooth="yes"/>
      <point x="157.053" y="10"/>
      <point x="120" y="51.4652"/>
      <point x="120" y="194" type="curve" smooth="yes"/>
      <point x="120" y="500" type="line"/>
      <point x="100" y="500" type="line"/>
      <point x="100" y="194" type="line" smooth="yes"/>
      <point x="100" y="44.1033"/>
      <point x="142.575" y="-10"/>
      <point x="260.531" y="-10" type="curve" smooth="yes"/>
      <point x="336.821" y="-10"/>
      <point x="410.915" y="48.9177"/>
      <point x="434.789" y="130" type="curve"/>
      <point x="454.462" y="36.2684"/>
      <point x="507.91" y="-10"/>
      <point x="597.019" y="-10" type="curve" smooth="yes"/>
      <point x="665.874" y="-10"/>
      <point x="742.405" y="52.7004"/>
      <point x="770" y="144.401" type="curve"/>
      <point x="770" y="194.204" type="line"/>
      <point x="766" y="194" type="line"/>
      <point x="766" y="103.759"/>
      <point x="675.779" y="10"/>
      <point x="599.989" y="10" type="curve" smooth="yes"/>
      <point x="502.212" y="10"/>
      <point x="451" y="72.9465"/>
    </contour>
    <contour>
      <point x="766" y="168.489" type="line"/>
      <point x="766" y="-0.181702" type="line"/>
      <point x="786" y="-0.181702" type="line"/>
      <point x="786" y="95" type="line"/>
    </contour>
    <contour>
      <point x="786" y="95" type="line"/>
      <point x="786" y="500" type="line"/>
      <point x="766" y="500" type="line"/>
      <point x="766.055" y="170.387" type="line"/>
    </contour>
  </outline>
</glyph>
<glyph name="uni0271" format="2">
  <advance width="896"/>
  <unicode hex="0271"/>
  <outline>
    <component base="m"/>
    <contour>
      <point x="780" y="134" type="line"/>
      <point x="760" y="134" type="line"/>
      <point x="760" y="-76.0251" type="line" smooth="yes"/>
      <point x="760" y="-145.578"/>
      <point x="732.455" y="-178.938"/>
      <point x="678.522" y="-178.938" type="curve" smooth="yes"/>
      <point x="639.726" y="-178.938"/>
      <point x="608.891" y="-164.193"/>
      <point x="587.829" y="-136.171" type="curve"/>
      <point x="573.841" y="-150.159" type="line"/>
      <point x="604.696" y="-184.339"/>
      <point x="636.682" y="-199"/>
      <point x="681.242" y="-199" type="curve" smooth="yes"/>
      <point x="745.634" y="-199"/>
      <point x="780" y="-155.86"/>
      <point x="780" y="-75.0251" type="curve" smooth="yes"/>
    </contour>
  </outline>
</glyph>
<glyph name="uni0272" format="2">
  <advance width="619"/>
  <unicode hex="0272"/>
  <outline>
    <component base="n" xOffset="-20"/>
    <contour>
      <point x="-35" y="-134.843" type="line"/>
      <point x="14.5077" y="-134.843" type="line" smooth="yes"/>
      <point x="59.2633" y="-134.843"/>
      <point x="80" y="-111.779"/>
      <point x="80" y="-62" type="curve" smooth="yes"/>
      <point x="80" y="50" type="line"/>
      <point x="170" y="50" type="line"/>
      <point x="170" y="-62" type="line" smooth="yes"/>
      <point x="170" y="-162.147"/>
      <point x="127.293" y="-199.862"/>
      <point x="13.8925" y="-199.862" type="curve" smooth="yes"/>
      <point x="-35" y="-199.862" type="line"/>
    </contour>
  </outline>
</glyph>
<glyph name="uni0273" format="2">
  <advance width="620"/>
  <unicode hex="0273"/>
  <outline>
    <contour>
      <point x="600" y="-181.843" type="line"/>
      <point x="550.492" y="-181.843" type="line" smooth="yes"/>
      <point x="504.679" y="-181.843"/>
      <point x="485" y="-163.47"/>
      <point x="485" y="-122" type="curve" smooth="yes"/>
      <point x="485" y="50" type="line"/>
      <point x="465" y="50" type="line"/>
      <point x="465" y="-122" type="line" smooth="yes"/>
      <point x="465" y="-171.935"/>
      <point x="496.297" y="-199.862"/>
      <point x="551.107" y="-199.862" type="curve" smooth="yes"/>
      <point x="600" y="-199.862" type="line"/>
    </contour>
    <contour>
      <point x="110" y="376.185" type="line"/>
      <point x="120" y="376" type="line"/>
      <point x="129.434" y="441.097"/>
      <point x="215.865" y="490"/>
      <point x="289.535" y="490" type="curve" smooth="yes"/>
      <point x="399.198" y="490"/>
      <point x="465" y="431.284"/>
      <point x="465" y="315.893" type="curve" smooth="yes"/>
      <point x="465" y="0" type="line"/>
      <point x="485" y="0" type="line"/>
      <point x="485" y="312" type="line" smooth="yes"/>
      <point x="485" y="441.495"/>
      <point x="412.03" y="510"/>
      <point x="293" y="510" type="curve" smooth="yes"/>
      <point x="228.947" y="510"/>
      <point x="150.75" y="474.346"/>
      <point x="120" y="420" type="curve" smooth="yes"/>
      <point x="110" y="402.327" type="line"/>
    </contour>
    <contour>
      <point x="120" y="0" type="line"/>
      <point x="120" y="500" type="line"/>
      <point x="100" y="500" type="line"/>
      <point x="100" y="0" type="line"/>
    </contour>
  </outline>
</glyph>
<glyph name="uni0274" format="2">
  <advance width="535"/>
  <unicode hex="0274"/>
  <outline>
    <contour>
      <point x="57" y="0" type="line"/>
      <point x="57" y="500" type="line"/>
      <point x="166.883" y="500" type="line"/>
      <point x="399" y="98" type="line"/>
      <point x="399" y="500" type="line"/>
      <point x="478" y="500" type="line"/>
      <point x="478" y="0" type="line"/>
      <point x="366.125" y="0" type="line"/>
      <point x="136" y="402" type="line"/>
      <point x="136" y="0" type="line"/>
    </contour>
  </outline>
</glyph>
<glyph name="uni0276" format="2">
  <advance width="744"/>
  <unicode hex="0276"/>
  <outline>
    <contour>
      <point x="53" y="240.15" type="curve" smooth="yes"/>
      <point x="53" y="92"/>
      <point x="135.527" y="-10"/>
      <point x="288.808" y="-10" type="curve" smooth="yes"/>
      <point x="322" y="-10"/>
      <point x="372.45" y="-5.21723"/>
      <point x="393.902" y="0" type="curve"/>
      <point x="631" y="0" type="line"/>
      <point x="631" y="18" type="line"/>
      <point x="414" y="18" type="line"/>
      <point x="414" y="244.5" type="line"/>
      <point x="617" y="244.5" type="line"/>
      <point x="617" y="262.5" type="line"/>
      <point x="414" y="262.5" type="line"/>
      <point x="414" y="482" type="line"/>
      <point x="631" y="482" type="line"/>
      <point x="631" y="500" type="line"/>
      <point x="394.224" y="500" type="line"/>
      <point x="356.25" y="508.176"/>
      <point x="338.736" y="510"/>
      <point x="291" y="510" type="curve" smooth="yes"/>
      <point x="142" y="510"/>
      <point x="53" y="394"/>
    </contour>
    <contour>
      <point x="73" y="240.682" type="curve" smooth="yes"/>
      <point x="73" y="382.311"/>
      <point x="153.824" y="492"/>
      <point x="291" y="492" type="curve" smooth="yes"/>
      <point x="334" y="492"/>
      <point x="364.699" y="489.049"/>
      <point x="394" y="482.04" type="curve"/>
      <point x="394" y="17.5734" type="line"/>
      <point x="368.899" y="10.5695"/>
      <point x="335" y="8"/>
      <point x="291" y="8" type="curve" smooth="yes"/>
      <point x="158.222" y="8"/>
      <point x="73" y="95.2508"/>
    </contour>
  </outline>
</glyph>
<glyph name="uni0278" format="2">
  <advance width="652"/>
  <unicode hex="0278"/>
  <outline>
    <contour>
      <point x="572" y="250" type="curve" smooth="yes"/>
      <point x="572" y="395"/>
      <point x="493" y="496"/>
      <point x="371" y="511" type="curve"/>
      <point x="371" y="722" type="line"/>
      <point x="281" y="722" type="line"/>
      <point x="281" y="511" type="line"/>
      <point x="159" y="496"/>
      <point x="80" y="395"/>
      <point x="80" y="250" type="curve" smooth="yes"/>
      <point x="80" y="106"/>
      <point x="158" y="5"/>
      <point x="281" y="-10" type="curve"/>
      <point x="281" y="-200" type="line"/>
      <point x="371" y="-200" type="line"/>
      <point x="371" y="-8" type="line"/>
      <point x="493" y="7"/>
      <point x="572" y="105"/>
    </contour>
    <contour>
      <point x="281" y="57" type="line"/>
      <point x="219" y="74"/>
      <point x="174" y="155"/>
      <point x="174" y="247" type="curve" smooth="yes"/>
      <point x="174" y="339"/>
      <point x="219" y="420"/>
      <point x="281" y="437" type="curve"/>
    </contour>
    <contour>
      <point x="478" y="248" type="curve" smooth="yes"/>
      <point x="478" y="156"/>
      <point x="433" y="75"/>
      <point x="371" y="58" type="curve"/>
      <point x="371" y="437" type="line"/>
      <point x="433" y="420"/>
      <point x="478" y="340"/>
    </contour>
  </outline>
</glyph>
<glyph name="uni0279" format="2">
  <advance width="392"/>
  <unicode hex="0279"/>
  <outline>
    <contour>
      <point x="202" y="500" type="line"/>
      <point x="202" y="220" type="line" smooth="yes"/>
      <point x="202" y="127"/>
      <point x="141" y="80"/>
      <point x="20" y="80" type="curve"/>
      <point x="20" y="0" type="line"/>
      <point x="140" y="0"/>
      <point x="174" y="19"/>
      <point x="202" y="68" type="curve"/>
      <point x="202" y="0" type="line"/>
      <point x="292" y="0" type="line"/>
      <point x="292" y="500" type="line"/>
    </contour>
  </outline>
</glyph>
<glyph name="uni027A" format="2">
  <advance width="322"/>
  <unicode hex="027A"/>
  <outline>
    <component base="uni0279"/>
    <contour>
      <point x="202" y="722" type="line"/>
      <point x="202" y="400.317" type="line"/>
      <point x="222" y="400.317" type="line"/>
      <point x="222" y="722" type="line"/>
    </contour>
  </outline>
</glyph>
<glyph name="uni027B" format="2">
  <advance width="409"/>
  <unicode hex="027B"/>
  <outline>
    <contour>
      <point x="202" y="500" type="line"/>
      <point x="202" y="220" type="line" smooth="yes"/>
      <point x="202" y="127"/>
      <point x="141" y="80"/>
      <point x="20" y="80" type="curve"/>
      <point x="20" y="0" type="line"/>
      <point x="140" y="0"/>
      <point x="174" y="19"/>
      <point x="202" y="68" type="curve"/>
      <point x="202" y="-40" type="line" smooth="yes"/>
      <point x="202" y="-155"/>
      <point x="245" y="-200"/>
      <point x="361" y="-200" type="curve" smooth="yes"/>
      <point x="413" y="-200" type="line"/>
      <point x="413" y="-126" type="line"/>
      <point x="371" y="-126" type="line" smooth="yes"/>
      <point x="310" y="-126"/>
      <point x="292" y="-104"/>
      <point x="292" y="-40" type="curve" smooth="yes"/>
      <point x="292" y="500" type="line"/>
    </contour>
  </outline>
</glyph>
<glyph name="uni027C" format="2">
  <advance width="363"/>
  <unicode hex="027C"/>
  <outline>
    <contour>
      <point x="120" y="-200" type="line"/>
      <point x="120" y="0" type="line"/>
      <point x="100" y="0" type="line"/>
      <point x="100" y="-200" type="line"/>
    </contour>
    <contour>
      <point x="130" y="442" type="curve" smooth="yes"/>
      <point x="110" y="411.233" type="line"/>
      <point x="110" y="349.682" type="line"/>
      <point x="120" y="350" type="line"/>
      <point x="120" y="443.038"/>
      <point x="181.05" y="490"/>
      <point x="302" y="490" type="curve"/>
      <point x="302" y="510" type="line"/>
      <point x="215.347" y="510"/>
      <point x="159.972" y="488.108"/>
    </contour>
    <contour>
      <point x="120" y="0" type="line"/>
      <point x="120" y="500" type="line"/>
      <point x="100" y="500" type="line"/>
      <point x="100" y="0" type="line"/>
    </contour>
  </outline>
</glyph>
<glyph name="uni027D" format="2">
  <advance width="332"/>
  <unicode hex="027D"/>
  <outline>
    <contour>
      <point x="130" y="442" type="curve" smooth="yes"/>
      <point x="110" y="411.233" type="line"/>
      <point x="110" y="349.682" type="line"/>
      <point x="120" y="350" type="line"/>
      <point x="120" y="443.038"/>
      <point x="181.05" y="490"/>
      <point x="302" y="490" type="curve"/>
      <point x="302" y="510" type="line"/>
      <point x="215.347" y="510"/>
      <point x="159.972" y="488.108"/>
    </contour>
    <contour>
      <point x="120" y="0" type="line"/>
      <point x="120" y="500" type="line"/>
      <point x="100" y="500" type="line"/>
      <point x="100" y="0" type="line"/>
    </contour>
    <contour>
      <point x="235" y="-181.843" type="line"/>
      <point x="185.492" y="-181.843" type="line" smooth="yes"/>
      <point x="139.679" y="-181.843"/>
      <point x="120" y="-163.47"/>
      <point x="120" y="-122" type="curve" smooth="yes"/>
      <point x="120" y="50" type="line"/>
      <point x="100" y="50" type="line"/>
      <point x="100" y="-122" type="line" smooth="yes"/>
      <point x="100" y="-171.935"/>
      <point x="131.297" y="-199.862"/>
      <point x="186.107" y="-199.862" type="curve" smooth="yes"/>
      <point x="235" y="-199.862" type="line"/>
    </contour>
  </outline>
</glyph>
<glyph name="uni027E" format="2">
  <advance width="492"/>
  <unicode hex="027E"/>
  <outline>
    <contour>
      <point x="429.353" y="466.332" type="curve"/>
      <point x="379" y="419" type="line"/>
      <point x="368" y="438"/>
      <point x="338" y="448"/>
      <point x="289" y="448" type="curve" smooth="yes"/>
      <point x="223" y="448"/>
      <point x="190" y="406"/>
      <point x="190" y="321" type="curve" smooth="yes"/>
      <point x="190" y="0" type="line"/>
      <point x="100" y="0" type="line"/>
      <point x="100" y="321" type="line" smooth="yes"/>
      <point x="100" y="456.127"/>
      <point x="163" y="512"/>
      <point x="296.051" y="512" type="curve" smooth="yes"/>
      <point x="363.357" y="512"/>
      <point x="405.421" y="497.702"/>
    </contour>
  </outline>
</glyph>
<glyph name="uni0282" format="2">
  <advance width="503"/>
  <unicode hex="0282"/>
  <outline>
    <component base="s"/>
    <contour>
      <point x="100" y="-96.5361" type="curve" smooth="yes"/>
      <point x="100" y="144" type="line"/>
      <point x="80" y="144" type="line"/>
      <point x="80" y="-100" type="line" smooth="yes"/>
      <point x="80" y="-158.782"/>
      <point x="121.218" y="-200"/>
      <point x="182.573" y="-200" type="curve" smooth="yes"/>
      <point x="246.918" y="-200"/>
      <point x="288" y="-157.007"/>
      <point x="288" y="-88" type="curve"/>
      <point x="268" y="-88" type="line"/>
      <point x="268" y="-146.457"/>
      <point x="235.593" y="-182"/>
      <point x="182.526" y="-182" type="curve" smooth="yes"/>
      <point x="133.034" y="-182"/>
      <point x="100" y="-147.393"/>
    </contour>
  </outline>
</glyph>
<glyph name="uni0284" format="2">
  <advance width="350"/>
  <unicode hex="0284"/>
  <outline>
    <contour>
      <point x="179" y="-43" type="curve" smooth="yes"/>
      <point x="179" y="100" type="line"/>
      <point x="159" y="100" type="line"/>
      <point x="159" y="-41" type="line" smooth="yes"/>
      <point x="159" y="-128.493"/>
      <point x="117.086" y="-182"/>
      <point x="47.4929" y="-182" type="curve" smooth="yes"/>
      <point x="29.4262" y="-182"/>
      <point x="8.96311" y="-179.236"/>
      <point x="-7" y="-170" type="curve"/>
      <point x="-7" y="-190" type="line"/>
      <point x="13" y="-197"/>
      <point x="21.7482" y="-200"/>
      <point x="48.9244" y="-200" type="curve" smooth="yes"/>
      <point x="129.853" y="-200"/>
      <point x="179" y="-139.755"/>
    </contour>
    <contour>
      <point x="159" y="575" type="curve" smooth="yes"/>
      <point x="159" y="286.5" type="line"/>
      <point x="24" y="286.5" type="line"/>
      <point x="24" y="268.5" type="line"/>
      <point x="159" y="268.5" type="line"/>
      <point x="159" y="0" type="line"/>
      <point x="179" y="0" type="line"/>
      <point x="179" y="268.5" type="line"/>
      <point x="334" y="268.5" type="line"/>
      <point x="334" y="286.5" type="line"/>
      <point x="179" y="286.5" type="line"/>
      <point x="179" y="573" type="line" smooth="yes"/>
      <point x="179" y="669.112"/>
      <point x="214.225" y="713.612"/>
      <point x="290.507" y="713.612" type="curve" smooth="yes"/>
      <point x="308.574" y="713.612"/>
      <point x="329.037" y="710.849"/>
      <point x="345" y="701.612" type="curve"/>
      <point x="345" y="722" type="line"/>
      <point x="325" y="729"/>
      <point x="311.928" y="732"/>
      <point x="284.752" y="732" type="curve" smooth="yes"/>
      <point x="207.796" y="732"/>
      <point x="159" y="688"/>
    </contour>
  </outline>
</glyph>
<glyph name="uni028A" format="2">
  <advance width="593"/>
  <unicode hex="028A"/>
  <outline>
    <contour>
      <point x="562" y="481.5" type="line"/>
      <point x="562" y="500" type="line"/>
      <point x="380" y="500" type="line"/>
      <point x="464.894" y="415.106"/>
      <point x="521" y="312.69"/>
      <point x="521" y="242.039" type="curve" smooth="yes"/>
      <point x="521" y="91.4176"/>
      <point x="438.462" y="6"/>
      <point x="295.003" y="6" type="curve" smooth="yes"/>
      <point x="147.561" y="6"/>
      <point x="70" y="86.4334"/>
      <point x="70" y="241.692" type="curve" smooth="yes"/>
      <point x="70" y="311.562"/>
      <point x="116.516" y="394.802"/>
      <point x="215" y="500" type="curve"/>
      <point x="34" y="500" type="line"/>
      <point x="34" y="482" type="line"/>
      <point x="152.375" y="482" type="line" smooth="yes"/>
      <point x="161.77" y="482"/>
      <point x="165.849" y="477.739"/>
      <point x="165.849" y="469" type="curve" smooth="yes"/>
      <point x="165.849" y="465.8"/>
      <point x="161.666" y="459.856"/>
      <point x="156.077" y="453.674" type="curve" smooth="yes"/>
      <point x="86.4184" y="376.631"/>
      <point x="50" y="302.269"/>
      <point x="50" y="238.052" type="curve" smooth="yes"/>
      <point x="50" y="76.3642"/>
      <point x="135.519" y="-12"/>
      <point x="292" y="-12" type="curve" smooth="yes"/>
      <point x="451.001" y="-12"/>
      <point x="541" y="78.9896"/>
      <point x="541" y="239.74" type="curve" smooth="yes"/>
      <point x="541" y="305.645"/>
      <point x="499.365" y="395.688"/>
      <point x="443.165" y="453.831" type="curve" smooth="yes"/>
      <point x="436.852" y="460.362"/>
      <point x="435" y="465.8"/>
      <point x="435" y="469" type="curve" smooth="yes"/>
      <point x="435" y="477.764"/>
      <point x="439.898" y="481.5"/>
      <point x="449.623" y="481.5" type="curve" smooth="yes"/>
    </contour>
  </outline>
</glyph>
<glyph name="uni028B" format="2">
  <advance width="580"/>
  <unicode hex="028B"/>
  <outline>
    <contour>
      <point x="272" y="-12" type="curve" smooth="yes"/>
      <point x="409.945" y="-12"/>
      <point x="510" y="89.6066"/>
      <point x="510" y="250" type="curve" smooth="yes"/>
      <point x="510" y="359.667"/>
      <point x="480.85" y="429.51"/>
      <point x="418" y="516" type="curve"/>
      <point x="403.623" y="505.209" type="line"/>
      <point x="476.343" y="397.215"/>
      <point x="490" y="354.36"/>
      <point x="490" y="235.587" type="curve" smooth="yes"/>
      <point x="490" y="103.903"/>
      <point x="392.097" y="6"/>
      <point x="280.29" y="6" type="curve" smooth="yes"/>
      <point x="177.317" y="6"/>
      <point x="110" y="65.2624"/>
      <point x="110" y="173" type="curve" smooth="yes"/>
      <point x="110" y="500" type="line"/>
      <point x="90" y="500" type="line"/>
      <point x="90" y="175" type="line" smooth="yes"/>
      <point x="90" y="54.8639"/>
      <point x="162.227" y="-12"/>
    </contour>
  </outline>
</glyph>
<glyph name="uni0291" format="2">
  <advance width="595"/>
  <unicode hex="0291"/>
  <outline>
    <contour>
      <point x="220.562" y="0" type="line"/>
      <point x="220.562" y="20" type="line"/>
      <point x="87.1972" y="20" type="line"/>
      <point x="92.3201" y="7.04761" type="line"/>
      <point x="450" y="479.884" type="line"/>
      <point x="450" y="500" type="line"/>
      <point x="102" y="500" type="line"/>
      <point x="102" y="480" type="line"/>
      <point x="442.879" y="480" type="line"/>
      <point x="436.078" y="491.191" type="line"/>
      <point x="80" y="20.4217" type="line"/>
      <point x="80" y="0" type="line"/>
    </contour>
    <contour>
      <point x="507.297" y="131.286" type="curve" smooth="yes"/>
      <point x="507.297" y="65.4561"/>
      <point x="450.826" y="12.5736"/>
      <point x="349.324" y="12.5736" type="curve" smooth="yes"/>
      <point x="334.421" y="12.5736"/>
      <point x="291.379" y="17.8823"/>
      <point x="283.702" y="20.4319" type="curve"/>
      <point x="310.627" y="124.612"/>
      <point x="372.831" y="203"/>
      <point x="429.529" y="203" type="curve" smooth="yes"/>
      <point x="486.254" y="203"/>
      <point x="507.297" y="182.765"/>
    </contour>
    <contour>
      <point x="130" y="0" type="line"/>
      <point x="257.931" y="0" type="line"/>
      <point x="235.931" y="-130" type="line"/>
      <point x="254.157" y="-130" type="line"/>
      <point x="280.322" y="1.2616" type="line"/>
      <point x="289.6" y="-1.8804"/>
      <point x="336.624" y="-5.81391"/>
      <point x="347.148" y="-5.81391" type="curve" smooth="yes"/>
      <point x="467.129" y="-5.81391"/>
      <point x="527.214" y="54.8788"/>
      <point x="527.214" y="134.259" type="curve" smooth="yes"/>
      <point x="527.214" y="192.718"/>
      <point x="493.641" y="221"/>
      <point x="435.38" y="221" type="curve" smooth="yes"/>
      <point x="361.136" y="221"/>
      <point x="297.743" y="146.582"/>
      <point x="264.165" y="19.7731" type="curve"/>
      <point x="130" y="19.7731" type="line"/>
    </contour>
  </outline>
</glyph>
<glyph name="uni0292" format="2">
  <advance width="511"/>
  <unicode hex="0292"/>
  <anchor x="240" y="600" name="top"/>
  <outline>
    <contour>
      <point x="462" y="13" type="curve" smooth="yes"/>
      <point x="462" y="137.56"/>
      <point x="365.902" y="211.751"/>
      <point x="178.829" y="223.705" type="curve"/>
      <point x="179.19" y="215.094" type="line"/>
      <point x="430.307" y="477.248" type="line"/>
      <point x="430.307" y="500" type="line"/>
      <point x="50.3144" y="500" type="line"/>
      <point x="50.3144" y="480" type="line"/>
      <point x="424.746" y="480" type="line"/>
      <point x="424.815" y="495" type="line"/>
      <point x="166.632" y="229" type="line"/>
      <point x="166.632" y="209.202" type="line"/>
      <point x="337.216" y="198.519"/>
      <point x="442" y="128.476"/>
      <point x="442" y="10.6415" type="curve" smooth="yes"/>
      <point x="442" y="-103.896"/>
      <point x="378.802" y="-181.931"/>
      <point x="267.993" y="-181.931" type="curve" smooth="yes"/>
      <point x="155.838" y="-181.931"/>
      <point x="77" y="-134.82"/>
      <point x="77" y="-32" type="curve"/>
      <point x="57" y="-32" type="line"/>
      <point x="57" y="-141.252"/>
      <point x="125.941" y="-200"/>
      <point x="267.719" y="-200" type="curve" smooth="yes"/>
      <point x="398.197" y="-200"/>
      <point x="462" y="-112.197"/>
    </contour>
  </outline>
  <guideline angle="46.0809" x="136" y="224"/>
  <guideline angle="226.317" x="379.146" y="419"/>
</glyph>
<glyph name="uni0294" format="2">
  <advance width="489"/>
  <unicode hex="0294"/>
  <outline>
    <contour>
      <point x="152" y="0" type="line"/>
      <point x="152" y="412" type="line"/>
      <point x="274" y="422"/>
      <point x="333" y="472"/>
      <point x="333" y="556" type="curve" smooth="yes"/>
      <point x="333" y="619"/>
      <point x="269" y="655"/>
      <point x="171.402" y="655" type="curve" smooth="yes"/>
      <point x="136" y="655"/>
      <point x="100" y="650"/>
      <point x="64" y="640" type="curve"/>
      <point x="64" y="714" type="line"/>
      <point x="119" y="726"/>
      <point x="166" y="732"/>
      <point x="202.192" y="732" type="curve" smooth="yes"/>
      <point x="331" y="732"/>
      <point x="433" y="658"/>
      <point x="433" y="548.601" type="curve" smooth="yes"/>
      <point x="433" y="464"/>
      <point x="372" y="404"/>
      <point x="249" y="369" type="curve"/>
      <point x="249" y="0" type="line"/>
    </contour>
  </outline>
</glyph>
<glyph name="uni02A0" format="2">
  <advance width="630"/>
  <unicode hex="02A0"/>
  <outline>
    <contour>
      <point x="500.935" y="364.879" type="line"/>
      <point x="520.926" y="364.879" type="line"/>
      <point x="520.926" y="495.896" type="line" smooth="yes"/>
      <point x="520.926" y="571.344"/>
      <point x="544.635" y="586.024"/>
      <point x="580.959" y="586.024" type="curve" smooth="yes"/>
      <point x="603.741" y="586.024"/>
      <point x="625.665" y="582.024"/>
      <point x="640.665" y="573.024" type="curve"/>
      <point x="640.665" y="591.671" type="line"/>
      <point x="624.875" y="599.279"/>
      <point x="607.809" y="604.459"/>
      <point x="578.787" y="604.459" type="curve" smooth="yes"/>
      <point x="531.566" y="604.459"/>
      <point x="500.935" y="582.646"/>
      <point x="500.935" y="494.669" type="curve" smooth="yes"/>
    </contour>
    <contour>
      <point x="501" y="383.483" type="line"/>
      <point x="501" y="-200" type="line"/>
      <point x="521" y="-200" type="line"/>
      <point x="521" y="383.483" type="line"/>
    </contour>
    <contour>
      <point x="510.441" y="169.878" type="curve"/>
      <point x="510.009" y="324.509" type="line"/>
      <point x="495.17" y="424"/>
      <point x="410.009" y="512"/>
      <point x="302" y="512" type="curve" smooth="yes"/>
      <point x="159.515" y="512"/>
      <point x="80" y="416.033"/>
      <point x="80" y="250.204" type="curve" smooth="yes"/>
      <point x="80" y="85.2011"/>
      <point x="158.724" y="-10"/>
      <point x="306" y="-10" type="curve" smooth="yes"/>
      <point x="401" y="-10"/>
      <point x="490.009" y="59.1489"/>
    </contour>
    <contour>
      <point x="100" y="251.402" type="curve" smooth="yes"/>
      <point x="100" y="404.286"/>
      <point x="167.613" y="492"/>
      <point x="303.627" y="492" type="curve" smooth="yes"/>
      <point x="418.434" y="492"/>
      <point x="501" y="387.659"/>
      <point x="501" y="242.333" type="curve" smooth="yes"/>
      <point x="501" y="88.5059"/>
      <point x="396" y="10"/>
      <point x="308.507" y="10" type="curve" smooth="yes"/>
      <point x="176.603" y="10"/>
      <point x="100" y="88.6729"/>
    </contour>
  </outline>
</glyph>
<glyph name="hfishhookturned" format="2">
  <advance width="627"/>
  <unicode hex="02AE"/>
  <outline>
    <contour>
      <point x="464" y="0" type="line"/>
      <point x="464" y="-200" type="line"/>
      <point x="484" y="-200" type="line"/>
      <point x="484" y="0" type="line"/>
    </contour>
    <contour>
      <point x="170" y="380" type="line"/>
      <point x="170" y="545" type="line" smooth="yes"/>
      <point x="170" y="653.789"/>
      <point x="88.3473" y="732"/>
      <point x="-25" y="732" type="curve" smooth="yes"/>
      <point x="-97" y="732"/>
      <point x="-149" y="716"/>
      <point x="-181" y="683" type="curve"/>
      <point x="-127" y="631" type="line"/>
      <point x="-102" y="652"/>
      <point x="-69" y="662"/>
      <point x="-28" y="662" type="curve" smooth="yes"/>
      <point x="60.3488" y="662"/>
      <point x="80" y="591.108"/>
      <point x="80" y="505.724" type="curve" smooth="yes"/>
      <point x="80" y="380" type="line"/>
    </contour>
    <contour>
      <point x="100" y="174" type="line" smooth="yes"/>
      <point x="100" y="53.0055"/>
      <point x="161.889" y="-10"/>
      <point x="280.911" y="-10" type="curve" smooth="yes"/>
      <point x="363.882" y="-10"/>
      <point x="435.638" y="48.5288"/>
      <point x="463.886" y="119" type="curve" smooth="yes"/>
      <point x="473.886" y="143.947" type="line"/>
      <point x="473.886" y="193.745" type="line"/>
      <point x="463.886" y="194.284" type="line"/>
      <point x="463.995" y="96.8939"/>
      <point x="369.625" y="9.98976"/>
      <point x="285.769" y="9.98976" type="curve" smooth="yes"/>
      <point x="173.62" y="9.98976"/>
      <point x="120" y="62.5888"/>
      <point x="120" y="172" type="curve" smooth="yes"/>
      <point x="120" y="500" type="line"/>
      <point x="100" y="500" type="line"/>
    </contour>
    <contour>
      <point x="484" y="0" type="line"/>
      <point x="484" y="500" type="line"/>
      <point x="464" y="500" type="line"/>
      <point x="464" y="0" type="line"/>
    </contour>
  </outline>
</glyph>
<glyph name="uni02AF" format="2">
  <advance width="992"/>
  <unicode hex="02AF"/>
  <outline>
    <contour>
      <point x="321" y="174" type="line" smooth="yes"/>
      <point x="321" y="53.0055"/>
      <point x="382.889" y="-10"/>
      <point x="501.911" y="-10" type="curve" smooth="yes"/>
      <point x="584.882" y="-10"/>
      <point x="656.638" y="48.5288"/>
      <point x="684.886" y="119" type="curve" smooth="yes"/>
      <point x="694.886" y="143.947" type="line"/>
      <point x="694.886" y="193.745" type="line"/>
      <point x="684.886" y="194.284" type="line"/>
      <point x="684.995" y="96.8939"/>
      <point x="590.625" y="9.98976"/>
      <point x="506.769" y="9.98976" type="curve" smooth="yes"/>
      <point x="394.62" y="9.98976"/>
      <point x="341" y="62.5888"/>
      <point x="341" y="172" type="curve" smooth="yes"/>
      <point x="341" y="500" type="line"/>
      <point x="321" y="500" type="line"/>
    </contour>
    <contour>
      <point x="320.582" y="472" type="line"/>
      <point x="340.582" y="472" type="line"/>
      <point x="340.582" y="531" type="line" smooth="yes"/>
      <point x="340.582" y="662.707"/>
      <point x="284.409" y="722"/>
      <point x="157.748" y="722" type="curve" smooth="yes"/>
      <point x="104.962" y="722"/>
      <point x="59.6409" y="707.084"/>
      <point x="20.9908" y="669.156" type="curve"/>
      <point x="35.6282" y="655.397" type="line"/>
      <point x="62.7289" y="682.705"/>
      <point x="108.426" y="704"/>
      <point x="159.429" y="704" type="curve" smooth="yes"/>
      <point x="274.283" y="704"/>
      <point x="320.582" y="647.954"/>
      <point x="320.582" y="531" type="curve" smooth="yes"/>
    </contour>
    <contour>
      <point x="705" y="0" type="line"/>
      <point x="705" y="500" type="line"/>
      <point x="685" y="500" type="line"/>
      <point x="685" y="0" type="line"/>
    </contour>
    <contour>
      <point x="685" y="134" type="line"/>
      <point x="685" y="-75.0251" type="line" smooth="yes"/>
      <point x="685" y="-155.86"/>
      <point x="719.366" y="-199"/>
      <point x="783.758" y="-199" type="curve" smooth="yes"/>
      <point x="828.318" y="-199"/>
      <point x="860.304" y="-184.339"/>
      <point x="891.159" y="-150.159" type="curve"/>
      <point x="877.171" y="-136.171" type="line"/>
      <point x="856.109" y="-164.193"/>
      <point x="825.274" y="-178.938"/>
      <point x="786.478" y="-178.938" type="curve" smooth="yes"/>
      <point x="732.545" y="-178.938"/>
      <point x="705" y="-145.578"/>
      <point x="705" y="-76.0251" type="curve" smooth="yes"/>
      <point x="705" y="134" type="line"/>
    </contour>
  </outline>
</glyph>
<glyph name="uni02B0" format="2">
  <advance width="455"/>
  <unicode hex="02B0"/>
  <outline>
    <contour>
      <point x="100.5" y="350" type="line"/>
      <point x="120.5" y="350" type="line"/>
      <point x="120.5" y="615.483" type="line" smooth="yes"/>
      <point x="120.5" y="650.96"/>
      <point x="179.626" y="691.291"/>
      <point x="238.359" y="691.291" type="curve" smooth="yes"/>
      <point x="300.387" y="691.291"/>
      <point x="335" y="661.689"/>
      <point x="335" y="597.291" type="curve" smooth="yes"/>
      <point x="335" y="350" type="line"/>
      <point x="355" y="350" type="line"/>
      <point x="355" y="592.45" type="line" smooth="yes"/>
      <point x="355" y="666.532"/>
      <point x="322.217" y="709"/>
      <point x="240.821" y="709" type="curve" smooth="yes"/>
      <point x="193.048" y="709"/>
      <point x="148.827" y="688.523"/>
      <point x="120.5" y="656" type="curve"/>
      <point x="120.5" y="855" type="line"/>
      <point x="100.5" y="855" type="line"/>
    </contour>
  </outline>
</glyph>
<glyph name="uni02BC" format="2">
  <advance width="146"/>
  <unicode hex="02BC"/>
  <outline>
    <contour>
      <point x="67.8413" y="722" type="line"/>
      <point x="52.8413" y="434" type="line"/>
      <point x="43" y="434" type="line"/>
      <point x="28" y="722" type="line"/>
    </contour>
  </outline>
</glyph>
<glyph name="caron" format="2">
  <advance width="289"/>
  <unicode hex="02C7"/>
  <anchor x="145" y="600" name="_top.mkmk"/>
  <anchor x="145" y="600" name="_top"/>
  <outline>
    <contour>
      <point x="130" y="600" type="line"/>
      <point x="160.04" y="600" type="line"/>
      <point x="260.04" y="770" type="line"/>
      <point x="250" y="770" type="line"/>
      <point x="145" y="619.828" type="line"/>
      <point x="40" y="770" type="line"/>
      <point x="30" y="770" type="line"/>
    </contour>
  </outline>
  <guideline angle="90" x="145" y="0"/>
</glyph>
<glyph name="breve" format="2">
  <advance width="281"/>
  <unicode hex="02D8"/>
  <outline>
    <contour>
      <point x="-2" y="717" type="curve"/>
      <point x="8" y="716.992" type="line"/>
      <point x="19.2669" y="658.794"/>
      <point x="72.1589" y="619.992"/>
      <point x="140" y="619.992" type="curve" smooth="yes"/>
      <point x="204.993" y="619.992"/>
      <point x="259.346" y="660.535"/>
      <point x="270" y="716.992" type="curve"/>
      <point x="280" y="717" type="line"/>
      <point x="269" y="651"/>
      <point x="208" y="600"/>
      <point x="139" y="600" type="curve" smooth="yes"/>
      <point x="68" y="600"/>
      <point x="6" y="651"/>
    </contour>
  </outline>
  <guideline angle="90" x="139" y="0"/>
</glyph>
<glyph name="ring" format="2">
  <advance width="219"/>
  <unicode hex="02DA"/>
  <outline>
    <contour>
      <point x="110.496" y="820" type="curve" smooth="yes"/>
      <point x="49.9291" y="820"/>
      <point x="0" y="771"/>
      <point x="0" y="710" type="curve" smooth="yes"/>
      <point x="0" y="649"/>
      <point x="49.9291" y="600"/>
      <point x="110.496" y="600" type="curve" smooth="yes"/>
      <point x="170.071" y="600"/>
      <point x="220" y="650"/>
      <point x="220" y="710" type="curve" smooth="yes"/>
      <point x="220" y="771"/>
      <point x="171.064" y="820"/>
    </contour>
    <contour>
      <point x="109.305" y="620" type="curve" smooth="yes"/>
      <point x="60.4056" y="620"/>
      <point x="20" y="659.629"/>
      <point x="20" y="708.433" type="curve" smooth="yes"/>
      <point x="20" y="758.515"/>
      <point x="62.5483" y="800"/>
      <point x="111.891" y="800" type="curve" smooth="yes"/>
      <point x="160.213" y="800"/>
      <point x="200" y="760.213"/>
      <point x="200" y="710" type="curve" smooth="yes"/>
      <point x="200" y="660.973"/>
      <point x="159.027" y="620"/>
    </contour>
  </outline>
</glyph>
<glyph name="ogonek" format="2">
  <advance width="199"/>
  <unicode hex="02DB"/>
  <outline>
    <contour>
      <point x="82.111" y="-220" type="curve" smooth="yes"/>
      <point x="92.111" y="-220"/>
      <point x="107.972" y="-219"/>
      <point x="128.972" y="-216" type="curve"/>
      <point x="128.972" y="-196" type="line"/>
      <point x="90.1201" y="-200" type="line"/>
      <point x="45.7026" y="-200"/>
      <point x="19.9825" y="-183.323"/>
      <point x="19.9825" y="-126.445" type="curve" smooth="yes"/>
      <point x="19.9825" y="-83.4452"/>
      <point x="71.9718" y="-18"/>
      <point x="89.9718" y="0" type="curve"/>
      <point x="80" y="0" type="line"/>
      <point x="61" y="-19" type="line" smooth="yes"/>
      <point x="39" y="-41"/>
      <point x="0" y="-92"/>
      <point x="0" y="-143" type="curve" smooth="yes"/>
      <point x="0" y="-190"/>
      <point x="25.111" y="-220"/>
    </contour>
  </outline>
</glyph>
<glyph name="tilde" format="2">
  <advance width="292"/>
  <unicode hex="02DC"/>
  <anchor x="146" y="600" name="_top"/>
  <outline>
    <contour>
      <point x="0" y="618" type="line"/>
      <point x="8.64359" y="659.106"/>
      <point x="38.1661" y="682.207"/>
      <point x="84.0513" y="682.207" type="curve" smooth="yes"/>
      <point x="103.491" y="682.207"/>
      <point x="117.267" y="678.061"/>
      <point x="146.05" y="662.946" type="curve"/>
      <point x="146.273" y="639.54" type="line"/>
      <point x="122.976" y="654.601"/>
      <point x="100.78" y="662"/>
      <point x="79.465" y="662" type="curve" smooth="yes"/>
      <point x="48.5533" y="662"/>
      <point x="26.4244" y="646.44"/>
      <point x="20" y="618" type="curve"/>
    </contour>
    <contour>
      <point x="292.273" y="684.207" type="line"/>
      <point x="283.629" y="643.102"/>
      <point x="254.107" y="620"/>
      <point x="209.112" y="620" type="curve" smooth="yes"/>
      <point x="190.022" y="620"/>
      <point x="176.888" y="624.158"/>
      <point x="146.223" y="640.261" type="curve"/>
      <point x="146" y="662.668" type="line"/>
      <point x="168.569" y="648.076"/>
      <point x="190.886" y="640.207"/>
      <point x="212.844" y="640.207" type="curve" smooth="yes"/>
      <point x="243.72" y="640.207"/>
      <point x="265.849" y="655.767"/>
      <point x="272.273" y="684.207" type="curve"/>
    </contour>
  </outline>
  <guideline angle="90" x="146" y="0"/>
  <guideline angle="0" x="0" y="679"/>
</glyph>
<glyph name="hungarumlaut" format="2">
  <advance width="319"/>
  <unicode hex="02DD"/>
  <outline>
    <contour>
      <point x="149.5" y="771" type="line"/>
      <point x="39.5" y="600" type="line"/>
      <point x="29.5" y="600" type="line"/>
      <point x="109.5" y="771" type="line"/>
    </contour>
    <contour>
      <point x="289.5" y="771" type="line"/>
      <point x="179.5" y="600" type="line"/>
      <point x="169.5" y="600" type="line"/>
      <point x="249.5" y="771" type="line"/>
    </contour>
  </outline>
</glyph>
<glyph name="uni02E0" format="2">
  <advance width="380"/>
  <unicode hex="02E0"/>
  <outline>
    <contour>
      <point x="128.746" y="265.479" type="curve" smooth="yes"/>
      <point x="128.746" y="282.479"/>
      <point x="173.889" y="374.881"/>
      <point x="189.889" y="391.881" type="curve"/>
      <point x="204.875" y="371.319"/>
      <point x="251.031" y="284.479"/>
      <point x="251.031" y="266.979" type="curve" smooth="yes"/>
      <point x="251.031" y="231.413"/>
      <point x="227.438" y="216.077"/>
      <point x="190" y="215.936" type="curve" smooth="yes"/>
      <point x="152.801" y="215.795"/>
      <point x="128.746" y="230.88"/>
    </contour>
    <contour>
      <point x="109" y="264.691" type="curve" smooth="yes"/>
      <point x="109" y="220.829"/>
      <point x="139.439" y="198"/>
      <point x="190" y="198" type="curve" smooth="yes"/>
      <point x="240.561" y="198"/>
      <point x="271" y="220.829"/>
      <point x="271" y="264.691" type="curve" smooth="yes"/>
      <point x="271" y="289"/>
      <point x="230.372" y="360.146"/>
      <point x="201.148" y="405.794" type="curve"/>
      <point x="325.442" y="688" type="line"/>
      <point x="303" y="688" type="line"/>
      <point x="187.979" y="425.835" type="line"/>
      <point x="192.021" y="425.835" type="line"/>
      <point x="77" y="688" type="line"/>
      <point x="54.7788" y="688" type="line"/>
      <point x="178.852" y="405.794" type="line"/>
      <point x="147.852" y="362.794"/>
      <point x="109" y="289"/>
    </contour>
  </outline>
  <guideline angle="246.311" x="303" y="688"/>
  <guideline angle="113.689" x="188" y="435"/>
  <guideline angle="66.3047" x="185" y="369"/>
  <guideline angle="293.695" x="55" y="688"/>
</glyph>
<glyph name="uni02E4" format="2">
  <advance width="342"/>
  <unicode hex="02E4"/>
  <outline>
    <contour>
      <point x="309" y="667.274" type="curve"/>
      <point x="309" y="688" type="line"/>
      <point x="272.944" y="695.796"/>
      <point x="239.672" y="700"/>
      <point x="214.03" y="700" type="curve" smooth="yes"/>
      <point x="123.148" y="700"/>
      <point x="76" y="656.624"/>
      <point x="76" y="573.6" type="curve" smooth="yes"/>
      <point x="76" y="507.138"/>
      <point x="119.089" y="464.879"/>
      <point x="205.5" y="459.123" type="curve"/>
      <point x="204.5" y="185" type="line"/>
      <point x="224.5" y="185" type="line"/>
      <point x="224.5" y="473" type="line"/>
      <point x="136.876" y="479.149"/>
      <point x="96" y="511.47"/>
      <point x="96" y="576" type="curve" smooth="yes"/>
      <point x="96" y="645.552"/>
      <point x="138.327" y="682"/>
      <point x="218.203" y="682" type="curve" smooth="yes"/>
      <point x="243.532" y="682"/>
      <point x="282.894" y="674.584"/>
    </contour>
  </outline>
</glyph>
<glyph name="uni02E9" format="2">
  <advance width="357"/>
  <unicode hex="02E9"/>
  <outline>
    <contour>
      <point x="287" y="0" type="line"/>
      <point x="21" y="0" type="line"/>
      <point x="21" y="64" type="line"/>
      <point x="223" y="64" type="line"/>
      <point x="223" y="722" type="line"/>
      <point x="287" y="722" type="line"/>
    </contour>
  </outline>
</glyph>
<glyph name="gravecomb" format="2">
  <unicode hex="0300"/>
  <anchor x="-180" y="600" name="_top.mkmk"/>
  <anchor x="-152" y="600" name="_top"/>
  <outline>
    <contour>
      <point x="-146" y="600" type="line"/>
      <point x="-246" y="771" type="line"/>
      <point x="-295.758" y="771" type="line"/>
      <point x="-155.758" y="600" type="line"/>
    </contour>
  </outline>
</glyph>
<glyph name="acutecomb" format="2">
  <unicode hex="0301"/>
  <anchor x="-330" y="600" name="_top.mkmk"/>
  <anchor x="-352" y="600" name="_top"/>
  <outline>
    <contour>
      <point x="-207" y="771" type="line"/>
      <point x="-257" y="771" type="line"/>
      <point x="-357" y="600" type="line"/>
      <point x="-347" y="600" type="line"/>
    </contour>
  </outline>
</glyph>
<glyph name="uni0305" format="2">
  <unicode hex="0305"/>
  <anchor x="-280" y="649" name="_top"/>
  <outline>
    <contour>
      <point x="0" y="649" type="line"/>
      <point x="0" y="669" type="line"/>
      <point x="-560" y="669" type="line"/>
      <point x="-560" y="649" type="line"/>
    </contour>
  </outline>
</glyph>
<glyph name="uni0307" format="2">
  <unicode hex="0307"/>
  <anchor x="-290" y="775" name="top.mkmk"/>
  <anchor x="-290" y="600" name="_top"/>
  <outline>
    <contour>
      <point x="-301" y="600" type="line"/>
      <point x="-301" y="700" type="line"/>
      <point x="-279.02" y="700" type="line"/>
      <point x="-279.02" y="600" type="line"/>
    </contour>
  </outline>
  <guideline angle="90" x="-290" y="0"/>
</glyph>
<glyph name="uni0308" format="2">
  <unicode hex="0308"/>
  <anchor x="-290" y="775" name="top.mkmk"/>
  <anchor x="-290" y="600" name="_top"/>
  <anchor x="-290" y="600" name="_top.mkmk"/>
  <outline>
    <contour>
      <point x="-401" y="600" type="line"/>
      <point x="-379.02" y="600" type="line"/>
      <point x="-379.02" y="700" type="line"/>
      <point x="-401" y="700" type="line"/>
    </contour>
    <contour>
      <point x="-201" y="600" type="line"/>
      <point x="-179.02" y="600" type="line"/>
      <point x="-179.02" y="700" type="line"/>
      <point x="-201" y="700" type="line"/>
    </contour>
  </outline>
  <guideline angle="90" x="-401" y="0"/>
  <guideline angle="90" x="-179" y="0"/>
  <guideline angle="90" x="-290" y="0"/>
</glyph>
<glyph name="hookabovecomb" format="2">
  <unicode hex="0309"/>
  <anchor x="-290" y="530" name="_top"/>
  <outline>
    <contour>
      <point x="-176" y="697" type="curve" smooth="yes"/>
      <point x="-176" y="759.632"/>
      <point x="-207.702" y="791"/>
      <point x="-271" y="791" type="curve" smooth="yes"/>
      <point x="-316.788" y="791"/>
      <point x="-351.767" y="760.748"/>
      <point x="-358" y="714" type="curve"/>
      <point x="-338" y="714" type="line"/>
      <point x="-333.83" y="748.4"/>
      <point x="-306.392" y="773"/>
      <point x="-272" y="773" type="curve" smooth="yes"/>
      <point x="-220.468" y="773"/>
      <point x="-196" y="748.854"/>
      <point x="-196" y="698" type="curve" smooth="yes"/>
      <point x="-196" y="654"/>
      <point x="-228" y="627"/>
      <point x="-292" y="622" type="curve"/>
      <point x="-292" y="536" type="line"/>
      <point x="-272" y="536" type="line"/>
      <point x="-272" y="609.793" type="line"/>
      <point x="-212.155" y="615.552"/>
      <point x="-176" y="648.396"/>
    </contour>
  </outline>
</glyph>
<glyph name="uni030B" format="2">
  <unicode hex="030B"/>
  <anchor x="-294" y="600" name="_top"/>
  <outline>
    <contour>
      <point x="-272" y="771" type="line"/>
      <point x="-382" y="600" type="line"/>
      <point x="-392" y="600" type="line"/>
      <point x="-312" y="771" type="line"/>
    </contour>
    <contour>
      <point x="-132" y="771" type="line"/>
      <point x="-242" y="600" type="line"/>
      <point x="-252" y="600" type="line"/>
      <point x="-172" y="771" type="line"/>
    </contour>
  </outline>
  <guideline angle="90" x="-294" y="0"/>
</glyph>
<glyph name="uni030C" format="2">
  <unicode hex="030C"/>
  <anchor x="-290" y="600" name="_top.mkmk"/>
  <anchor x="-296" y="600" name="_top"/>
  <outline>
    <contour>
      <point x="-311" y="600" type="line"/>
      <point x="-280.96" y="600" type="line"/>
      <point x="-180.96" y="770" type="line"/>
      <point x="-191" y="770" type="line"/>
      <point x="-296" y="619.828" type="line"/>
      <point x="-401" y="770" type="line"/>
      <point x="-411" y="770" type="line"/>
    </contour>
  </outline>
  <guideline angle="90" x="-296" y="0"/>
</glyph>
<glyph name="uni030F" format="2">
  <unicode hex="030F"/>
  <anchor x="-270" y="600" name="_top"/>
  <outline>
    <contour>
      <point x="-440" y="771" type="line"/>
      <point x="-330" y="600" type="line"/>
      <point x="-320" y="600" type="line"/>
      <point x="-400" y="771" type="line"/>
    </contour>
    <contour>
      <point x="-300" y="771" type="line"/>
      <point x="-190" y="600" type="line"/>
      <point x="-180" y="600" type="line"/>
      <point x="-260" y="771" type="line"/>
    </contour>
  </outline>
</glyph>
<glyph name="uni0310" format="2">
  <advance width="1"/>
  <unicode hex="0310"/>
  <anchor x="-290" y="600" name="_top"/>
  <anchor x="-298" y="892" name="_bottom"/>
  <outline>
    <contour>
      <point x="-439" y="717" type="line"/>
      <point x="-431" y="651"/>
      <point x="-369" y="600"/>
      <point x="-298" y="600" type="curve" smooth="yes"/>
      <point x="-229" y="600"/>
      <point x="-168" y="651"/>
      <point x="-157" y="717" type="curve"/>
      <point x="-207" y="717" type="line"/>
      <point x="-213" y="686"/>
      <point x="-261" y="664"/>
      <point x="-297" y="664" type="curve" smooth="yes"/>
      <point x="-333" y="664"/>
      <point x="-381" y="686"/>
      <point x="-387" y="717" type="curve"/>
    </contour>
    <contour>
      <point x="-337" y="717" type="line"/>
      <point x="-247" y="717" type="line"/>
      <point x="-247" y="817" type="line"/>
      <point x="-337" y="817" type="line"/>
    </contour>
  </outline>
</glyph>
<glyph name="uni0311" format="2">
  <unicode hex="0311"/>
  <anchor x="-290" y="600" name="_top"/>
  <outline>
    <contour>
      <point x="-155" y="600" type="line"/>
      <point x="-166" y="665"/>
      <point x="-227" y="717"/>
      <point x="-296" y="717" type="curve" smooth="yes"/>
      <point x="-367" y="717"/>
      <point x="-429" y="666"/>
      <point x="-437" y="600" type="curve"/>
      <point x="-427" y="600" type="line"/>
      <point x="-414.414" y="665.026"/>
      <point x="-370.826" y="697.008"/>
      <point x="-295" y="697.008" type="curve" smooth="yes"/>
      <point x="-226.382" y="697.008"/>
      <point x="-176.577" y="659.639"/>
      <point x="-164.963" y="600" type="curve"/>
    </contour>
  </outline>
</glyph>
<glyph name="commaabovecomb" format="2">
  <unicode hex="0313"/>
  <outline>
    <contour>
      <point x="-251.758" y="581" type="line"/>
      <point x="-213.252" y="689.284" type="line"/>
      <point x="-204.252" y="689.284" type="line"/>
      <point x="-204.478" y="670.994" type="line"/>
      <point x="-242.37" y="581" type="line"/>
    </contour>
    <contour>
      <point x="-226.252" y="771" type="line"/>
      <point x="-204.252" y="771" type="line"/>
      <point x="-204.252" y="671" type="line"/>
      <point x="-226.252" y="671" type="line"/>
    </contour>
  </outline>
</glyph>
<glyph name="uni0318" format="2">
  <advance width="1"/>
  <unicode hex="0318"/>
  <outline>
    <contour>
      <point x="-261" y="-305" type="line"/>
      <point x="-317" y="-305" type="line"/>
      <point x="-317" y="-201" type="line"/>
      <point x="-420" y="-201" type="line"/>
      <point x="-420" y="-145" type="line"/>
      <point x="-317" y="-145" type="line"/>
      <point x="-317" y="-41" type="line"/>
      <point x="-261" y="-41" type="line"/>
    </contour>
  </outline>
</glyph>
<glyph name="uni031C" format="2">
  <advance width="1"/>
  <unicode hex="031C"/>
  <outline>
    <contour>
      <point x="-269.5" y="-319" type="line"/>
      <point x="-332.882" y="-319"/>
      <point x="-379.5" y="-271.86"/>
      <point x="-379.5" y="-209" type="curve" smooth="yes"/>
      <point x="-379.5" y="-146.139"/>
      <point x="-332.882" y="-99"/>
      <point x="-269.5" y="-99" type="curve"/>
      <point x="-269.5" y="-119" type="line"/>
      <point x="-321.95" y="-119"/>
      <point x="-360.018" y="-156.117"/>
      <point x="-359.5" y="-209" type="curve" smooth="yes"/>
      <point x="-358.982" y="-261.883"/>
      <point x="-321.95" y="-299"/>
      <point x="-269.5" y="-299" type="curve"/>
    </contour>
  </outline>
</glyph>
<glyph name="uni0326" format="2">
  <unicode hex="0326"/>
  <outline>
    <contour>
      <point x="-364.238" y="-307" type="line"/>
      <point x="-354.298" y="-307" type="line"/>
      <point x="-254.298" y="-57" type="line"/>
      <point x="-284.238" y="-57" type="line"/>
    </contour>
  </outline>
</glyph>
<glyph name="uni032A" format="2">
  <advance width="1"/>
  <unicode hex="032A"/>
  <outline>
    <contour>
      <point x="-217.75" y="-230" type="line"/>
      <point x="-197.75" y="-230" type="line"/>
      <point x="-197.75" y="-111" type="line"/>
      <point x="-397.75" y="-111" type="line"/>
      <point x="-397.75" y="-230" type="line"/>
      <point x="-377.75" y="-230" type="line"/>
      <point x="-377.75" y="-129" type="line"/>
      <point x="-217.75" y="-129" type="line"/>
    </contour>
  </outline>
</glyph>
<glyph name="uni033B" format="2">
  <advance width="1"/>
  <unicode hex="033B"/>
  <outline>
    <contour>
      <point x="-216" y="-290" type="line"/>
      <point x="-376" y="-290" type="line"/>
      <point x="-376" y="-130" type="line"/>
      <point x="-216" y="-130" type="line"/>
    </contour>
    <contour>
      <point x="-196" y="-310" type="line"/>
      <point x="-196" y="-110" type="line"/>
      <point x="-396" y="-110" type="line"/>
      <point x="-396" y="-310" type="line"/>
    </contour>
  </outline>
</glyph>
<glyph name="uni033C" format="2">
  <advance width="1"/>
  <unicode hex="033C"/>
  <outline>
    <contour>
      <point x="-141" y="-240" type="line"/>
      <point x="-141" y="-162"/>
      <point x="-160" y="-122"/>
      <point x="-222" y="-122" type="curve" smooth="yes"/>
      <point x="-253" y="-122"/>
      <point x="-286.409" y="-144.012"/>
      <point x="-297.656" y="-175.061" type="curve"/>
      <point x="-308.581" y="-144.012"/>
      <point x="-341" y="-122"/>
      <point x="-372" y="-122" type="curve" smooth="yes"/>
      <point x="-434" y="-122"/>
      <point x="-453" y="-161"/>
      <point x="-453" y="-239" type="curve"/>
      <point x="-438" y="-239" type="line"/>
      <point x="-426.735" y="-158.737"/>
      <point x="-410.675" y="-140"/>
      <point x="-372" y="-140" type="curve" smooth="yes"/>
      <point x="-341" y="-140"/>
      <point x="-316.166" y="-170.461"/>
      <point x="-305" y="-229" type="curve"/>
      <point x="-291" y="-229" type="line"/>
      <point x="-283.856" y="-170.461"/>
      <point x="-255" y="-140"/>
      <point x="-224" y="-140" type="curve" smooth="yes"/>
      <point x="-184.659" y="-140"/>
      <point x="-165.092" y="-159.566"/>
      <point x="-158" y="-239" type="curve"/>
    </contour>
  </outline>
</glyph>
<glyph name="uni035C" format="2">
  <advance width="1"/>
  <unicode hex="035C"/>
  <outline>
    <contour>
      <point x="430" y="-168" type="line"/>
      <point x="397" y="-281"/>
      <point x="254" y="-338"/>
      <point x="1" y="-338" type="curve" smooth="yes"/>
      <point x="-254" y="-338"/>
      <point x="-398" y="-281"/>
      <point x="-431" y="-168" type="curve"/>
      <point x="-369" y="-168" type="line"/>
      <point x="-345" y="-227"/>
      <point x="-242" y="-246"/>
      <point x="0" y="-246" type="curve" smooth="yes"/>
      <point x="242" y="-246"/>
      <point x="345" y="-227"/>
      <point x="369" y="-168" type="curve"/>
    </contour>
  </outline>
</glyph>
<glyph name="tonos" format="2">
  <advance width="161"/>
  <unicode hex="0384"/>
  <anchor x="16" y="512" name="_tonos.top"/>
  <anchor x="116" y="722" name="_tonos"/>
  <outline>
    <contour>
      <point x="111" y="722" type="line"/>
      <point x="21" y="512" type="line"/>
      <point x="11" y="512" type="line"/>
      <point x="91" y="722" type="line"/>
    </contour>
  </outline>
</glyph>
<glyph name="uni0394" format="2">
  <advance width="719"/>
  <unicode hex="0394"/>
  <outline>
    <contour>
      <point x="34.5525" y="20" type="line"/>
      <point x="37.5387" y="10.8805" type="line"/>
      <point x="360.206" y="714.306" type="line"/>
      <point x="342.549" y="714.306" type="line"/>
      <point x="670.271" y="9.37508" type="line"/>
      <point x="671.761" y="20" type="line"/>
    </contour>
    <contour>
      <point x="19" y="0" type="line"/>
      <point x="688" y="0" type="line"/>
      <point x="687.859" y="19.6544" type="line"/>
      <point x="361.137" y="722" type="line"/>
      <point x="341.127" y="722" type="line"/>
      <point x="19.3199" y="19.8443" type="line"/>
    </contour>
  </outline>
</glyph>
<glyph name="Xi" format="2">
  <advance width="669"/>
  <unicode hex="039E"/>
  <outline>
    <contour>
      <point x="609" y="702" type="line"/>
      <point x="61" y="702" type="line"/>
      <point x="61" y="722" type="line"/>
      <point x="609" y="722" type="line"/>
    </contour>
    <contour>
      <point x="508" y="361" type="line"/>
      <point x="161" y="361" type="line"/>
      <point x="161" y="381" type="line"/>
      <point x="508" y="381" type="line"/>
    </contour>
    <contour>
      <point x="609" y="0" type="line"/>
      <point x="61" y="0" type="line"/>
      <point x="61" y="20" type="line"/>
      <point x="609" y="20" type="line"/>
    </contour>
  </outline>
</glyph>
<glyph name="Sigma" format="2">
  <advance width="626"/>
  <unicode hex="03A3"/>
  <outline>
    <contour>
      <point x="50" y="0" type="line"/>
      <point x="576" y="0" type="line"/>
      <point x="576" y="20" type="line"/>
      <point x="61.9884" y="20" type="line"/>
      <point x="66.9124" y="10.3082" type="line"/>
      <point x="289.878" y="375" type="line"/>
      <point x="81.3528" y="711.274" type="line"/>
      <point x="77" y="702.026" type="line"/>
      <point x="556" y="702.026" type="line"/>
      <point x="556" y="722" type="line"/>
      <point x="60" y="722" type="line"/>
      <point x="60" y="702.074" type="line"/>
      <point x="272.85" y="365.924" type="line"/>
      <point x="272.179" y="384.616" type="line"/>
      <point x="50" y="20" type="line"/>
    </contour>
  </outline>
</glyph>
<glyph name="Phi" format="2">
  <advance width="714"/>
  <unicode hex="03A6"/>
  <outline>
    <contour>
      <point x="342" y="-1" type="line"/>
      <point x="364" y="-1" type="line"/>
      <point x="364" y="721" type="line"/>
      <point x="342" y="721" type="line"/>
    </contour>
    <contour>
      <point x="358.2" y="65" type="line"/>
      <point x="377" y="65" type="line" smooth="yes"/>
      <point x="550.17" y="65"/>
      <point x="636" y="167.068"/>
      <point x="636" y="373" type="curve" smooth="yes"/>
      <point x="636" y="555.021"/>
      <point x="545.973" y="652"/>
      <point x="377" y="652" type="curve" smooth="yes"/>
      <point x="358.2" y="652" type="line"/>
      <point x="358.2" y="632" type="line"/>
      <point x="380" y="632" type="line" smooth="yes"/>
      <point x="532.437" y="632"/>
      <point x="614.029" y="541.612"/>
      <point x="614.029" y="373" type="curve" smooth="yes"/>
      <point x="614.029" y="179.817"/>
      <point x="537.019" y="85"/>
      <point x="380" y="85" type="curve" smooth="yes"/>
      <point x="358.2" y="85" type="line"/>
    </contour>
    <contour>
      <point x="347.8" y="65" type="line"/>
      <point x="347.8" y="85" type="line"/>
      <point x="326" y="85" type="line" smooth="yes"/>
      <point x="183.217" y="85"/>
      <point x="102.004" y="189.211"/>
      <point x="101.985" y="372" type="curve" smooth="yes"/>
      <point x="101.967" y="537.789"/>
      <point x="183.654" y="632"/>
      <point x="326" y="632" type="curve" smooth="yes"/>
      <point x="347.8" y="632" type="line"/>
      <point x="347.8" y="652" type="line"/>
      <point x="329" y="652" type="line" smooth="yes"/>
      <point x="169.94" y="652"/>
      <point x="80" y="551.723"/>
      <point x="80" y="373" type="curve" smooth="yes"/>
      <point x="80" y="170.51"/>
      <point x="164.822" y="65"/>
      <point x="329" y="65" type="curve" smooth="yes"/>
    </contour>
  </outline>
</glyph>
<glyph name="Omega" format="2">
  <advance width="801"/>
  <unicode hex="03A9"/>
  <outline>
    <contour>
      <point x="36" y="0" type="line"/>
      <point x="323.257" y="0" type="line"/>
      <point x="312.333" y="107" type="line"/>
      <point x="163.737" y="170.847"/>
      <point x="77.7357" y="239.034"/>
      <point x="77.7357" y="412" type="curve" smooth="yes"/>
      <point x="77.7357" y="569.381"/>
      <point x="218.042" y="698.249"/>
      <point x="400.998" y="698.249" type="curve" smooth="yes"/>
      <point x="598.568" y="698.249"/>
      <point x="723.521" y="582.161"/>
      <point x="723.521" y="412" type="curve" smooth="yes"/>
      <point x="723.521" y="243.674"/>
      <point x="633.208" y="168.205"/>
      <point x="489.662" y="107" type="curve"/>
      <point x="477.743" y="0" type="line"/>
      <point x="767" y="0" type="line"/>
      <point x="767" y="20" type="line"/>
      <point x="501.367" y="20" type="line"/>
      <point x="507.34" y="95" type="line"/>
      <point x="641.221" y="141.507"/>
      <point x="745" y="235.425"/>
      <point x="745" y="412" type="curve" smooth="yes"/>
      <point x="745" y="591.409"/>
      <point x="608.499" y="718"/>
      <point x="409.067" y="718" type="curve" smooth="yes"/>
      <point x="203.251" y="718"/>
      <point x="56" y="583.174"/>
      <point x="56" y="412" type="curve" smooth="yes"/>
      <point x="56" y="231.596"/>
      <point x="156.544" y="141.523"/>
      <point x="292.664" y="95" type="curve"/>
      <point x="297.642" y="20" type="line"/>
      <point x="36" y="20" type="line"/>
    </contour>
  </outline>
</glyph>
<glyph name="alpha" format="2">
  <advance width="608"/>
  <unicode hex="03B1"/>
  <anchor x="270" y="600" name="tonos.top"/>
  <outline>
    <contour>
      <point x="309.607" y="10" type="curve" smooth="yes"/>
      <point x="431.118" y="10"/>
      <point x="519" y="111.402"/>
      <point x="519" y="241.219" type="curve" smooth="yes"/>
      <point x="519" y="398.013"/>
      <point x="438.419" y="489.971"/>
      <point x="301.536" y="489.971" type="curve" smooth="yes"/>
      <point x="184.943" y="489.971"/>
      <point x="100.369" y="392.667"/>
      <point x="100.369" y="253.317" type="curve" smooth="yes"/>
      <point x="100.369" y="111.385"/>
      <point x="188.106" y="10"/>
    </contour>
    <contour>
      <point x="546" y="165.493" type="line"/>
      <point x="526" y="165.493" type="line"/>
      <point x="494.797" y="45.6873"/>
      <point x="415.424" y="-10"/>
      <point x="316.226" y="-10" type="curve" smooth="yes"/>
      <point x="178.028" y="-10"/>
      <point x="80" y="98.0824"/>
      <point x="80" y="248.01" type="curve" smooth="yes"/>
      <point x="80" y="405.208"/>
      <point x="161.871" y="510"/>
      <point x="307.114" y="510" type="curve" smooth="yes"/>
      <point x="434.844" y="510"/>
      <point x="509.758" y="428.957"/>
      <point x="526" y="340.665" type="curve"/>
      <point x="526" y="500" type="line"/>
      <point x="546" y="499.778" type="line"/>
    </contour>
    <contour>
      <point x="545.972" y="47" type="line" smooth="yes"/>
      <point x="545.972" y="23.74"/>
      <point x="558.026" y="7"/>
      <point x="577.832" y="7" type="curve" smooth="yes"/>
      <point x="585.983" y="7"/>
      <point x="594.203" y="10.1915"/>
      <point x="601.972" y="13" type="curve"/>
      <point x="601.972" y="-4" type="line"/>
      <point x="597" y="-7.4769"/>
      <point x="588.971" y="-10"/>
      <point x="577.022" y="-10" type="curve" smooth="yes"/>
      <point x="543.897" y="-10"/>
      <point x="526" y="9.38856"/>
      <point x="526" y="47" type="curve" smooth="yes"/>
      <point x="526" y="165.493" type="line"/>
      <point x="545.972" y="165.493" type="line"/>
    </contour>
  </outline>
</glyph>
<glyph name="beta" format="2">
  <advance width="575"/>
  <unicode hex="03B2"/>
  <outline>
    <contour>
      <point x="278.69" y="712" type="curve" smooth="yes"/>
      <point x="373.056" y="712"/>
      <point x="436" y="646.238"/>
      <point x="436" y="548" type="curve" smooth="yes"/>
      <point x="436" y="453.495"/>
      <point x="371.094" y="402"/>
      <point x="307.685" y="402" type="curve" smooth="yes"/>
      <point x="212.072" y="402" type="line"/>
      <point x="212.072" y="382" type="line"/>
      <point x="304.94" y="382" type="line" smooth="yes"/>
      <point x="397.354" y="382"/>
      <point x="473" y="309.333"/>
      <point x="473" y="195.5" type="curve" smooth="yes"/>
      <point x="473" y="72.6462"/>
      <point x="410.95" y="10"/>
      <point x="290.608" y="10" type="curve" smooth="yes"/>
      <point x="207.016" y="10"/>
      <point x="122" y="58.8304"/>
      <point x="122" y="135.312" type="curve" smooth="yes"/>
      <point x="122" y="532.67" type="line" smooth="yes"/>
      <point x="122" y="651.581"/>
      <point x="170.725" y="712"/>
    </contour>
    <contour>
      <point x="275.884" y="732" type="curve" smooth="yes"/>
      <point x="152.742" y="732"/>
      <point x="100" y="653.884"/>
      <point x="100" y="542" type="curve" smooth="yes"/>
      <point x="100" y="-193" type="line"/>
      <point x="122" y="-193" type="line"/>
      <point x="122" y="71.2411" type="line"/>
      <point x="151.855" y="19.2915"/>
      <point x="216.948" y="-10"/>
      <point x="298.035" y="-10" type="curve" smooth="yes"/>
      <point x="434.232" y="-10"/>
      <point x="495" y="72.6347"/>
      <point x="495" y="193.868" type="curve" smooth="yes"/>
      <point x="495" y="288.841"/>
      <point x="449.382" y="369.374"/>
      <point x="365.638" y="394.655" type="curve"/>
      <point x="417.92" y="417.114"/>
      <point x="458" y="471.444"/>
      <point x="458" y="544.766" type="curve" smooth="yes"/>
      <point x="458" y="648.316"/>
      <point x="400.339" y="732"/>
    </contour>
  </outline>
</glyph>
<glyph name="delta" format="2">
  <advance width="595"/>
  <unicode hex="03B4"/>
  <outline>
    <contour>
      <point x="354.904" y="470.736" type="line"/>
      <point x="362.447" y="464.943" type="line" smooth="yes"/>
      <point x="452.063" y="396.124"/>
      <point x="494.5" y="317.299"/>
      <point x="494.5" y="228.621" type="curve" smooth="yes"/>
      <point x="494.5" y="86.4338"/>
      <point x="415.827" y="2"/>
      <point x="299.165" y="2" type="curve" smooth="yes"/>
      <point x="289.165" y="2" type="line" smooth="yes"/>
      <point x="188.638" y="2"/>
      <point x="100" y="84.3067"/>
      <point x="100" y="231.761" type="curve" smooth="yes"/>
      <point x="100" y="376.136"/>
      <point x="193.943" y="452.845"/>
      <point x="324.96" y="467.407" type="curve" smooth="yes"/>
    </contour>
    <contour>
      <point x="95" y="695.98" type="line"/>
      <point x="344.543" y="478.95" type="line"/>
      <point x="347.221" y="488.46" type="line"/>
      <point x="168.563" y="474.058"/>
      <point x="80" y="384.347"/>
      <point x="80" y="227.618" type="curve" smooth="yes"/>
      <point x="80" y="76.8331"/>
      <point x="168.613" y="-16"/>
      <point x="292.289" y="-16" type="curve" smooth="yes"/>
      <point x="434.528" y="-16"/>
      <point x="514.5" y="75.0424"/>
      <point x="514.5" y="235.739" type="curve" smooth="yes"/>
      <point x="514.5" y="322.268"/>
      <point x="477.136" y="390.62"/>
      <point x="399.934" y="457.546" type="curve" smooth="yes"/>
      <point x="111" y="708.02" type="line"/>
      <point x="111.33" y="702" type="line"/>
      <point x="495" y="702" type="line"/>
      <point x="495" y="722" type="line"/>
      <point x="95" y="722" type="line"/>
    </contour>
  </outline>
  <guideline angle="318.894" x="95" y="695.98"/>
  <guideline angle="139.994" x="429" y="443.964"/>
</glyph>
<glyph name="eta" format="2">
  <advance width="608"/>
  <unicode hex="03B7"/>
  <anchor x="280" y="600" name="tonos.top"/>
  <outline>
    <contour>
      <point x="126" y="0" type="line"/>
      <point x="146" y="0" type="line"/>
      <point x="145.851" y="420.027" type="line"/>
      <point x="144.103" y="419.633" type="line"/>
      <point x="143.758" y="480.834"/>
      <point x="124.371" y="500"/>
      <point x="85" y="500" type="curve" smooth="yes"/>
      <point x="64.3297" y="500"/>
      <point x="52.67" y="498.12"/>
      <point x="32" y="492" type="curve"/>
      <point x="32" y="474" type="line"/>
      <point x="53.6521" y="480.1"/>
      <point x="68.847" y="482.225"/>
      <point x="81.5324" y="482.225" type="curve" smooth="yes"/>
      <point x="110.676" y="482.225"/>
      <point x="126" y="464.228"/>
      <point x="126" y="430" type="curve" smooth="yes"/>
    </contour>
    <contour>
      <point x="491" y="-200" type="line"/>
      <point x="511" y="-200" type="line"/>
      <point x="511" y="10" type="line"/>
      <point x="491" y="10" type="line"/>
    </contour>
    <contour>
      <point x="136" y="376.185" type="line"/>
      <point x="146" y="376" type="line"/>
      <point x="155.434" y="441.097"/>
      <point x="241.865" y="490"/>
      <point x="315.535" y="490" type="curve" smooth="yes"/>
      <point x="425.198" y="490"/>
      <point x="491" y="431.284"/>
      <point x="491" y="315.893" type="curve" smooth="yes"/>
      <point x="491" y="0" type="line"/>
      <point x="511" y="0" type="line"/>
      <point x="511" y="312" type="line" smooth="yes"/>
      <point x="511" y="441.495"/>
      <point x="438.03" y="510"/>
      <point x="319" y="510" type="curve" smooth="yes"/>
      <point x="254.947" y="510"/>
      <point x="176.75" y="474.346"/>
      <point x="146" y="420" type="curve" smooth="yes"/>
      <point x="136" y="402.327" type="line"/>
    </contour>
  </outline>
  <guideline angle="90" x="146" y="0"/>
</glyph>
